M48
; DRILL file {KiCad (5.1.9)-1} date 11/14/21 18:32:39
; FORMAT={-:-/ absolute / metric / decimal}
; #@! TF.CreationDate,2021-11-14T18:32:39+07:00
; #@! TF.GenerationSoftware,Kicad,Pcbnew,(5.1.9)-1
; #@! TF.FileFunction,Plated,1,2,PTH
FMAT,2
METRIC
T1C0.800
T2C1.000
T3C1.300
T4C1.500
T5C1.700
%
G90
G05
T1
X99.06Y-110.49
X99.06Y-124.46
X101.6Y-121.92
X101.6Y-124.46
X101.6Y-127.0
X101.6Y-129.54
X102.87Y-134.62
X105.41Y-134.62
X107.95Y-134.62
X109.22Y-121.92
X109.22Y-124.46
X109.22Y-127.0
X109.22Y-129.54
X115.57Y-124.46
X115.57Y-134.62
X119.38Y-124.46
X119.38Y-134.62
T2
X91.44Y-116.84
X91.44Y-119.38
X91.44Y-121.92
X91.44Y-124.46
X91.44Y-127.0
X93.98Y-116.84
X93.98Y-119.38
X93.98Y-121.92
X93.98Y-124.46
X93.98Y-127.0
X101.72Y-110.49
X101.72Y-116.84
X109.22Y-110.49
X109.22Y-116.84
X123.19Y-124.46
X130.69Y-124.46
T3
X125.73Y-110.49
X125.73Y-115.57
T4
X127.0Y-132.08
T5
X124.46Y-129.54
X124.46Y-134.62
X129.54Y-129.54
X129.54Y-134.62
T0
M30
