%TF.GenerationSoftware,KiCad,Pcbnew,(5.1.9)-1*%
%TF.CreationDate,2021-11-14T18:32:37+07:00*%
%TF.ProjectId,Pressure Sensor Preamp,50726573-7375-4726-9520-53656e736f72,rev?*%
%TF.SameCoordinates,Original*%
%TF.FileFunction,Copper,L1,Top*%
%TF.FilePolarity,Positive*%
%FSLAX46Y46*%
G04 Gerber Fmt 4.6, Leading zero omitted, Abs format (unit mm)*
G04 Created by KiCad (PCBNEW (5.1.9)-1) date 2021-11-14 18:32:37*
%MOMM*%
%LPD*%
G01*
G04 APERTURE LIST*
%TA.AperFunction,ComponentPad*%
%ADD10C,2.600000*%
%TD*%
%TA.AperFunction,ComponentPad*%
%ADD11R,2.600000X2.600000*%
%TD*%
%TA.AperFunction,ComponentPad*%
%ADD12C,1.700000*%
%TD*%
%TA.AperFunction,ComponentPad*%
%ADD13O,2.400000X1.600000*%
%TD*%
%TA.AperFunction,ComponentPad*%
%ADD14R,2.400000X1.600000*%
%TD*%
%TA.AperFunction,ComponentPad*%
%ADD15C,1.440000*%
%TD*%
%TA.AperFunction,ComponentPad*%
%ADD16O,1.600000X1.600000*%
%TD*%
%TA.AperFunction,ComponentPad*%
%ADD17C,1.600000*%
%TD*%
%TA.AperFunction,ComponentPad*%
%ADD18C,3.000000*%
%TD*%
%TA.AperFunction,ComponentPad*%
%ADD19C,2.000000*%
%TD*%
%TA.AperFunction,ViaPad*%
%ADD20C,2.000000*%
%TD*%
%TA.AperFunction,Conductor*%
%ADD21C,0.800000*%
%TD*%
%TA.AperFunction,Conductor*%
%ADD22C,0.254000*%
%TD*%
%TA.AperFunction,Conductor*%
%ADD23C,0.100000*%
%TD*%
G04 APERTURE END LIST*
D10*
%TO.P,J2,2*%
%TO.N,+5V*%
X125730000Y-110490000D03*
D11*
%TO.P,J2,1*%
%TO.N,GND*%
X125730000Y-115570000D03*
%TD*%
D12*
%TO.P,J1,10*%
%TO.N,Net-(J1-Pad10)*%
X93980000Y-116840000D03*
%TO.P,J1,8*%
%TO.N,Net-(J1-Pad8)*%
X93980000Y-119380000D03*
%TO.P,J1,6*%
%TO.N,Net-(J1-Pad6)*%
X93980000Y-121920000D03*
%TO.P,J1,4*%
%TO.N,+5V*%
X93980000Y-124460000D03*
%TO.P,J1,2*%
%TO.N,-OUT*%
X93980000Y-127000000D03*
%TO.P,J1,9*%
%TO.N,Net-(J1-Pad9)*%
X91440000Y-116840000D03*
%TO.P,J1,7*%
%TO.N,Net-(J1-Pad7)*%
X91440000Y-119380000D03*
%TO.P,J1,5*%
%TO.N,+5V*%
X91440000Y-121920000D03*
%TO.P,J1,3*%
%TO.N,+OUT*%
X91440000Y-124460000D03*
%TO.P,J1,1*%
%TO.N,GND*%
%TA.AperFunction,ComponentPad*%
G36*
G01*
X90590000Y-127600000D02*
X90590000Y-126400000D01*
G75*
G02*
X90840000Y-126150000I250000J0D01*
G01*
X92040000Y-126150000D01*
G75*
G02*
X92290000Y-126400000I0J-250000D01*
G01*
X92290000Y-127600000D01*
G75*
G02*
X92040000Y-127850000I-250000J0D01*
G01*
X90840000Y-127850000D01*
G75*
G02*
X90590000Y-127600000I0J250000D01*
G01*
G37*
%TD.AperFunction*%
%TD*%
D13*
%TO.P,U1,8*%
%TO.N,Net-(RV1-Pad3)*%
X109220000Y-129540000D03*
%TO.P,U1,4*%
%TO.N,GND*%
X101600000Y-121920000D03*
%TO.P,U1,7*%
%TO.N,+5V*%
X109220000Y-127000000D03*
%TO.P,U1,3*%
%TO.N,+OUT*%
X101600000Y-124460000D03*
%TO.P,U1,6*%
%TO.N,Net-(R1-Pad2)*%
X109220000Y-124460000D03*
%TO.P,U1,2*%
%TO.N,-OUT*%
X101600000Y-127000000D03*
%TO.P,U1,5*%
%TO.N,GNDA*%
X109220000Y-121920000D03*
D14*
%TO.P,U1,1*%
%TO.N,Net-(RV1-Pad1)*%
X101600000Y-129540000D03*
%TD*%
D15*
%TO.P,RV1,3*%
%TO.N,Net-(RV1-Pad3)*%
X107950000Y-134620000D03*
%TO.P,RV1,2*%
%TO.N,Net-(RV1-Pad1)*%
X105410000Y-134620000D03*
%TO.P,RV1,1*%
X102870000Y-134620000D03*
%TD*%
D16*
%TO.P,R2,2*%
%TO.N,GNDA*%
X119380000Y-134620000D03*
D17*
%TO.P,R2,1*%
%TO.N,Net-(C3-Pad1)*%
X119380000Y-124460000D03*
%TD*%
D16*
%TO.P,R1,2*%
%TO.N,Net-(R1-Pad2)*%
X115570000Y-134620000D03*
D17*
%TO.P,R1,1*%
%TO.N,Net-(C3-Pad1)*%
X115570000Y-124460000D03*
%TD*%
D18*
%TO.P,J3,2*%
%TO.N,GNDA*%
X124460000Y-129540000D03*
X124460000Y-134620000D03*
X129540000Y-134620000D03*
X129540000Y-129540000D03*
%TO.P,J3,1*%
%TO.N,Net-(C3-Pad1)*%
X127000000Y-132080000D03*
%TD*%
D19*
%TO.P,C3,2*%
%TO.N,GNDA*%
X130690000Y-124460000D03*
%TO.P,C3,1*%
%TO.N,Net-(C3-Pad1)*%
X123190000Y-124460000D03*
%TD*%
%TO.P,C2,2*%
%TO.N,+5V*%
X109220000Y-116840000D03*
%TO.P,C2,1*%
%TO.N,GND*%
X101720000Y-116840000D03*
%TD*%
%TO.P,C1,2*%
%TO.N,GND*%
X101720000Y-110490000D03*
%TO.P,C1,1*%
%TO.N,+5V*%
X109220000Y-110490000D03*
%TD*%
D20*
%TO.N,+5V*%
X99060000Y-124460000D03*
X99060000Y-110490000D03*
%TD*%
D21*
%TO.N,+5V*%
X125730000Y-110490000D02*
X109220000Y-110490000D01*
X109220000Y-110490000D02*
X109220000Y-116840000D01*
X100760001Y-112190001D02*
X107519999Y-112190001D01*
X107519999Y-112190001D02*
X109220000Y-110490000D01*
X99060000Y-110490000D02*
X100760001Y-112190001D01*
X93980000Y-124460000D02*
X99060000Y-124460000D01*
X107319990Y-125099990D02*
X109220000Y-127000000D01*
X107319990Y-118740010D02*
X107319990Y-125099990D01*
X109220000Y-116840000D02*
X107319990Y-118740010D01*
X93980000Y-124460000D02*
X91440000Y-121920000D01*
%TO.N,GNDA*%
X124460000Y-129540000D02*
X129540000Y-129540000D01*
X129540000Y-129540000D02*
X129540000Y-134620000D01*
X129540000Y-134620000D02*
X124460000Y-134620000D01*
X124460000Y-134620000D02*
X119380000Y-134620000D01*
X109220000Y-121938666D02*
X109220000Y-121920000D01*
X119380000Y-132098666D02*
X109220000Y-121938666D01*
X119380000Y-134620000D02*
X119380000Y-132098666D01*
X129540000Y-125610000D02*
X130690000Y-124460000D01*
X129540000Y-129540000D02*
X129540000Y-125610000D01*
%TO.N,Net-(R1-Pad2)*%
X115570000Y-130810000D02*
X109220000Y-124460000D01*
X115570000Y-134620000D02*
X115570000Y-130810000D01*
%TO.N,Net-(C3-Pad1)*%
X122190001Y-125459999D02*
X123190000Y-124460000D01*
X122190001Y-130526003D02*
X122190001Y-125459999D01*
X123743998Y-132080000D02*
X122190001Y-130526003D01*
X127000000Y-132080000D02*
X123743998Y-132080000D01*
X120379999Y-125459999D02*
X119380000Y-124460000D01*
X122190001Y-125459999D02*
X120379999Y-125459999D01*
X119380000Y-124460000D02*
X115570000Y-124460000D01*
%TO.N,-OUT*%
X93980000Y-127000000D02*
X101600000Y-127000000D01*
%TO.N,+OUT*%
X99060000Y-121920000D02*
X101600000Y-124460000D01*
X99060000Y-119625998D02*
X99060000Y-121920000D01*
X94724001Y-115289999D02*
X99060000Y-119625998D01*
X90695999Y-115289999D02*
X94724001Y-115289999D01*
X89889999Y-116095999D02*
X90695999Y-115289999D01*
X89889999Y-122909999D02*
X89889999Y-116095999D01*
X91440000Y-124460000D02*
X89889999Y-122909999D01*
%TO.N,Net-(RV1-Pad3)*%
X109220000Y-133350000D02*
X107950000Y-134620000D01*
X109220000Y-129540000D02*
X109220000Y-133350000D01*
%TO.N,Net-(RV1-Pad1)*%
X105410000Y-134620000D02*
X102870000Y-134620000D01*
X102870000Y-130810000D02*
X101600000Y-129540000D01*
X102870000Y-134620000D02*
X102870000Y-130810000D01*
%TD*%
D22*
%TO.N,GND*%
X131420001Y-122992665D02*
X131166912Y-122887832D01*
X130851033Y-122825000D01*
X130528967Y-122825000D01*
X130213088Y-122887832D01*
X129915537Y-123011082D01*
X129647748Y-123190013D01*
X129420013Y-123417748D01*
X129241082Y-123685537D01*
X129117832Y-123983088D01*
X129055000Y-124298967D01*
X129055000Y-124621033D01*
X129056702Y-124629588D01*
X128844092Y-124842198D01*
X128804605Y-124874604D01*
X128772198Y-124914092D01*
X128772197Y-124914093D01*
X128675266Y-125032203D01*
X128579160Y-125212007D01*
X128519977Y-125407105D01*
X128499994Y-125610000D01*
X128505001Y-125660838D01*
X128505000Y-127663822D01*
X128179017Y-127881637D01*
X127881637Y-128179017D01*
X127663822Y-128505000D01*
X126336178Y-128505000D01*
X126118363Y-128179017D01*
X125820983Y-127881637D01*
X125471302Y-127647988D01*
X125082756Y-127487047D01*
X124670279Y-127405000D01*
X124249721Y-127405000D01*
X123837244Y-127487047D01*
X123448698Y-127647988D01*
X123225001Y-127797457D01*
X123225001Y-126095000D01*
X123351033Y-126095000D01*
X123666912Y-126032168D01*
X123964463Y-125908918D01*
X124232252Y-125729987D01*
X124459987Y-125502252D01*
X124638918Y-125234463D01*
X124762168Y-124936912D01*
X124825000Y-124621033D01*
X124825000Y-124298967D01*
X124762168Y-123983088D01*
X124638918Y-123685537D01*
X124459987Y-123417748D01*
X124232252Y-123190013D01*
X123964463Y-123011082D01*
X123666912Y-122887832D01*
X123351033Y-122825000D01*
X123028967Y-122825000D01*
X122713088Y-122887832D01*
X122415537Y-123011082D01*
X122147748Y-123190013D01*
X121920013Y-123417748D01*
X121741082Y-123685537D01*
X121617832Y-123983088D01*
X121555000Y-124298967D01*
X121555000Y-124424999D01*
X120815000Y-124424999D01*
X120815000Y-124318665D01*
X120759853Y-124041426D01*
X120651680Y-123780273D01*
X120494637Y-123545241D01*
X120294759Y-123345363D01*
X120059727Y-123188320D01*
X119798574Y-123080147D01*
X119521335Y-123025000D01*
X119238665Y-123025000D01*
X118961426Y-123080147D01*
X118700273Y-123188320D01*
X118465241Y-123345363D01*
X118385604Y-123425000D01*
X116564396Y-123425000D01*
X116484759Y-123345363D01*
X116249727Y-123188320D01*
X115988574Y-123080147D01*
X115711335Y-123025000D01*
X115428665Y-123025000D01*
X115151426Y-123080147D01*
X114890273Y-123188320D01*
X114655241Y-123345363D01*
X114455363Y-123545241D01*
X114298320Y-123780273D01*
X114190147Y-124041426D01*
X114135000Y-124318665D01*
X114135000Y-124601335D01*
X114190147Y-124878574D01*
X114298320Y-125139727D01*
X114455363Y-125374759D01*
X114655241Y-125574637D01*
X114890273Y-125731680D01*
X115151426Y-125839853D01*
X115428665Y-125895000D01*
X115711335Y-125895000D01*
X115988574Y-125839853D01*
X116249727Y-125731680D01*
X116484759Y-125574637D01*
X116564396Y-125495000D01*
X118385604Y-125495000D01*
X118465241Y-125574637D01*
X118700273Y-125731680D01*
X118961426Y-125839853D01*
X119238665Y-125895000D01*
X119351289Y-125895000D01*
X119612196Y-126155907D01*
X119644603Y-126195395D01*
X119684091Y-126227802D01*
X119802201Y-126324733D01*
X119898308Y-126376103D01*
X119982006Y-126420840D01*
X120177104Y-126480023D01*
X120329161Y-126494999D01*
X120329170Y-126494999D01*
X120379998Y-126500005D01*
X120430826Y-126494999D01*
X121155002Y-126494999D01*
X121155001Y-130475175D01*
X121149995Y-130526003D01*
X121155001Y-130576831D01*
X121155001Y-130576840D01*
X121169977Y-130728897D01*
X121229160Y-130923995D01*
X121325267Y-131103800D01*
X121454605Y-131261399D01*
X121494098Y-131293810D01*
X122976195Y-132775908D01*
X123008602Y-132815396D01*
X123048090Y-132847803D01*
X123147402Y-132929307D01*
X123099017Y-132961637D01*
X122801637Y-133259017D01*
X122583822Y-133585000D01*
X120415000Y-133585000D01*
X120415000Y-132149501D01*
X120420007Y-132098666D01*
X120415000Y-132047828D01*
X120400024Y-131895771D01*
X120340841Y-131700673D01*
X120275166Y-131577803D01*
X120244734Y-131520868D01*
X120147803Y-131402758D01*
X120115396Y-131363270D01*
X120075908Y-131330863D01*
X111013782Y-122268738D01*
X111034236Y-122201309D01*
X111061943Y-121920000D01*
X111034236Y-121638691D01*
X110952182Y-121368192D01*
X110818932Y-121118899D01*
X110639608Y-120900392D01*
X110421101Y-120721068D01*
X110171808Y-120587818D01*
X109901309Y-120505764D01*
X109690492Y-120485000D01*
X108749508Y-120485000D01*
X108538691Y-120505764D01*
X108354990Y-120561488D01*
X108354990Y-119168720D01*
X109050412Y-118473298D01*
X109058967Y-118475000D01*
X109381033Y-118475000D01*
X109696912Y-118412168D01*
X109994463Y-118288918D01*
X110262252Y-118109987D01*
X110489987Y-117882252D01*
X110668918Y-117614463D01*
X110792168Y-117316912D01*
X110855000Y-117001033D01*
X110855000Y-116870000D01*
X123791928Y-116870000D01*
X123804188Y-116994482D01*
X123840498Y-117114180D01*
X123899463Y-117224494D01*
X123978815Y-117321185D01*
X124075506Y-117400537D01*
X124185820Y-117459502D01*
X124305518Y-117495812D01*
X124430000Y-117508072D01*
X125444250Y-117505000D01*
X125603000Y-117346250D01*
X125603000Y-115697000D01*
X125857000Y-115697000D01*
X125857000Y-117346250D01*
X126015750Y-117505000D01*
X127030000Y-117508072D01*
X127154482Y-117495812D01*
X127274180Y-117459502D01*
X127384494Y-117400537D01*
X127481185Y-117321185D01*
X127560537Y-117224494D01*
X127619502Y-117114180D01*
X127655812Y-116994482D01*
X127668072Y-116870000D01*
X127665000Y-115855750D01*
X127506250Y-115697000D01*
X125857000Y-115697000D01*
X125603000Y-115697000D01*
X123953750Y-115697000D01*
X123795000Y-115855750D01*
X123791928Y-116870000D01*
X110855000Y-116870000D01*
X110855000Y-116678967D01*
X110792168Y-116363088D01*
X110668918Y-116065537D01*
X110489987Y-115797748D01*
X110262252Y-115570013D01*
X110255000Y-115565167D01*
X110255000Y-114270000D01*
X123791928Y-114270000D01*
X123795000Y-115284250D01*
X123953750Y-115443000D01*
X125603000Y-115443000D01*
X125603000Y-113793750D01*
X125857000Y-113793750D01*
X125857000Y-115443000D01*
X127506250Y-115443000D01*
X127665000Y-115284250D01*
X127668072Y-114270000D01*
X127655812Y-114145518D01*
X127619502Y-114025820D01*
X127560537Y-113915506D01*
X127481185Y-113818815D01*
X127384494Y-113739463D01*
X127274180Y-113680498D01*
X127154482Y-113644188D01*
X127030000Y-113631928D01*
X126015750Y-113635000D01*
X125857000Y-113793750D01*
X125603000Y-113793750D01*
X125444250Y-113635000D01*
X124430000Y-113631928D01*
X124305518Y-113644188D01*
X124185820Y-113680498D01*
X124075506Y-113739463D01*
X123978815Y-113818815D01*
X123899463Y-113915506D01*
X123840498Y-114025820D01*
X123804188Y-114145518D01*
X123791928Y-114270000D01*
X110255000Y-114270000D01*
X110255000Y-111764833D01*
X110262252Y-111759987D01*
X110489987Y-111532252D01*
X110494833Y-111525000D01*
X124094360Y-111525000D01*
X124226987Y-111723491D01*
X124496509Y-111993013D01*
X124813434Y-112204775D01*
X125165581Y-112350639D01*
X125539419Y-112425000D01*
X125920581Y-112425000D01*
X126294419Y-112350639D01*
X126646566Y-112204775D01*
X126963491Y-111993013D01*
X127233013Y-111723491D01*
X127444775Y-111406566D01*
X127590639Y-111054419D01*
X127665000Y-110680581D01*
X127665000Y-110299419D01*
X127590639Y-109925581D01*
X127444775Y-109573434D01*
X127233013Y-109256509D01*
X126963491Y-108986987D01*
X126646566Y-108775225D01*
X126294419Y-108629361D01*
X125920581Y-108555000D01*
X125539419Y-108555000D01*
X125165581Y-108629361D01*
X124813434Y-108775225D01*
X124496509Y-108986987D01*
X124226987Y-109256509D01*
X124094360Y-109455000D01*
X110494833Y-109455000D01*
X110489987Y-109447748D01*
X110262252Y-109220013D01*
X109994463Y-109041082D01*
X109696912Y-108917832D01*
X109381033Y-108855000D01*
X109058967Y-108855000D01*
X108743088Y-108917832D01*
X108445537Y-109041082D01*
X108177748Y-109220013D01*
X107950013Y-109447748D01*
X107771082Y-109715537D01*
X107647832Y-110013088D01*
X107585000Y-110328967D01*
X107585000Y-110651033D01*
X107586702Y-110659588D01*
X107091289Y-111155001D01*
X103214697Y-111155001D01*
X103260704Y-111060429D01*
X103342384Y-110748892D01*
X103361718Y-110427405D01*
X103317961Y-110108325D01*
X103212795Y-109803912D01*
X103119814Y-109629956D01*
X102855413Y-109534192D01*
X101899605Y-110490000D01*
X101913748Y-110504143D01*
X101734143Y-110683748D01*
X101720000Y-110669605D01*
X101705858Y-110683748D01*
X101526253Y-110504143D01*
X101540395Y-110490000D01*
X100584587Y-109534192D01*
X100426102Y-109591594D01*
X100329987Y-109447748D01*
X100236826Y-109354587D01*
X100764192Y-109354587D01*
X101720000Y-110310395D01*
X102675808Y-109354587D01*
X102580044Y-109090186D01*
X102290429Y-108949296D01*
X101978892Y-108867616D01*
X101657405Y-108848282D01*
X101338325Y-108892039D01*
X101033912Y-108997205D01*
X100859956Y-109090186D01*
X100764192Y-109354587D01*
X100236826Y-109354587D01*
X100102252Y-109220013D01*
X99834463Y-109041082D01*
X99536912Y-108917832D01*
X99221033Y-108855000D01*
X98898967Y-108855000D01*
X98583088Y-108917832D01*
X98285537Y-109041082D01*
X98017748Y-109220013D01*
X97790013Y-109447748D01*
X97611082Y-109715537D01*
X97487832Y-110013088D01*
X97425000Y-110328967D01*
X97425000Y-110651033D01*
X97487832Y-110966912D01*
X97611082Y-111264463D01*
X97790013Y-111532252D01*
X98017748Y-111759987D01*
X98285537Y-111938918D01*
X98583088Y-112062168D01*
X98898967Y-112125000D01*
X99221033Y-112125000D01*
X99229588Y-112123298D01*
X99992198Y-112885909D01*
X100024605Y-112925397D01*
X100182204Y-113054735D01*
X100362008Y-113150842D01*
X100557106Y-113210025D01*
X100709163Y-113225001D01*
X100709172Y-113225001D01*
X100760000Y-113230007D01*
X100810828Y-113225001D01*
X107469171Y-113225001D01*
X107519999Y-113230007D01*
X107570827Y-113225001D01*
X107570837Y-113225001D01*
X107722894Y-113210025D01*
X107917992Y-113150842D01*
X108097796Y-113054735D01*
X108185000Y-112983168D01*
X108185001Y-115565167D01*
X108177748Y-115570013D01*
X107950013Y-115797748D01*
X107771082Y-116065537D01*
X107647832Y-116363088D01*
X107585000Y-116678967D01*
X107585000Y-117001033D01*
X107586702Y-117009588D01*
X106624087Y-117972203D01*
X106584594Y-118004614D01*
X106455256Y-118162213D01*
X106359149Y-118342018D01*
X106299966Y-118537116D01*
X106284990Y-118689173D01*
X106284990Y-118689182D01*
X106279984Y-118740010D01*
X106284990Y-118790838D01*
X106284991Y-125049152D01*
X106279984Y-125099990D01*
X106299967Y-125302885D01*
X106359150Y-125497983D01*
X106455256Y-125677787D01*
X106535850Y-125775990D01*
X106584595Y-125835386D01*
X106624082Y-125867792D01*
X107421874Y-126665584D01*
X107405764Y-126718691D01*
X107378057Y-127000000D01*
X107405764Y-127281309D01*
X107487818Y-127551808D01*
X107621068Y-127801101D01*
X107800392Y-128019608D01*
X108018899Y-128198932D01*
X108151858Y-128270000D01*
X108018899Y-128341068D01*
X107800392Y-128520392D01*
X107621068Y-128738899D01*
X107487818Y-128988192D01*
X107405764Y-129258691D01*
X107378057Y-129540000D01*
X107405764Y-129821309D01*
X107487818Y-130091808D01*
X107621068Y-130341101D01*
X107800392Y-130559608D01*
X108018899Y-130738932D01*
X108185000Y-130827715D01*
X108185001Y-132921288D01*
X107841290Y-133265000D01*
X107816544Y-133265000D01*
X107554761Y-133317072D01*
X107308167Y-133419215D01*
X107086238Y-133567503D01*
X106897503Y-133756238D01*
X106749215Y-133978167D01*
X106680000Y-134145266D01*
X106610785Y-133978167D01*
X106462497Y-133756238D01*
X106273762Y-133567503D01*
X106051833Y-133419215D01*
X105805239Y-133317072D01*
X105543456Y-133265000D01*
X105276544Y-133265000D01*
X105014761Y-133317072D01*
X104768167Y-133419215D01*
X104546238Y-133567503D01*
X104528741Y-133585000D01*
X103905000Y-133585000D01*
X103905000Y-130860827D01*
X103910006Y-130809999D01*
X103905000Y-130759171D01*
X103905000Y-130759162D01*
X103890024Y-130607105D01*
X103830841Y-130412007D01*
X103736714Y-130235907D01*
X103734734Y-130232202D01*
X103637803Y-130114092D01*
X103605396Y-130074604D01*
X103565908Y-130042197D01*
X103438072Y-129914361D01*
X103438072Y-128740000D01*
X103425812Y-128615518D01*
X103389502Y-128495820D01*
X103330537Y-128385506D01*
X103251185Y-128288815D01*
X103154494Y-128209463D01*
X103044180Y-128150498D01*
X102924482Y-128114188D01*
X102906518Y-128112419D01*
X103019608Y-128019608D01*
X103198932Y-127801101D01*
X103332182Y-127551808D01*
X103414236Y-127281309D01*
X103441943Y-127000000D01*
X103414236Y-126718691D01*
X103332182Y-126448192D01*
X103198932Y-126198899D01*
X103019608Y-125980392D01*
X102801101Y-125801068D01*
X102668142Y-125730000D01*
X102801101Y-125658932D01*
X103019608Y-125479608D01*
X103198932Y-125261101D01*
X103332182Y-125011808D01*
X103414236Y-124741309D01*
X103441943Y-124460000D01*
X103414236Y-124178691D01*
X103332182Y-123908192D01*
X103198932Y-123658899D01*
X103019608Y-123440392D01*
X102801101Y-123261068D01*
X102673259Y-123192735D01*
X102902839Y-123042601D01*
X103104500Y-122844895D01*
X103263715Y-122611646D01*
X103374367Y-122351818D01*
X103391904Y-122269039D01*
X103269915Y-122047000D01*
X101727000Y-122047000D01*
X101727000Y-122067000D01*
X101473000Y-122067000D01*
X101473000Y-122047000D01*
X101453000Y-122047000D01*
X101453000Y-121793000D01*
X101473000Y-121793000D01*
X101473000Y-120485000D01*
X101727000Y-120485000D01*
X101727000Y-121793000D01*
X103269915Y-121793000D01*
X103391904Y-121570961D01*
X103374367Y-121488182D01*
X103263715Y-121228354D01*
X103104500Y-120995105D01*
X102902839Y-120797399D01*
X102666483Y-120642834D01*
X102404514Y-120537350D01*
X102127000Y-120485000D01*
X101727000Y-120485000D01*
X101473000Y-120485000D01*
X101073000Y-120485000D01*
X100795486Y-120537350D01*
X100533517Y-120642834D01*
X100297161Y-120797399D01*
X100095500Y-120995105D01*
X100095000Y-120995837D01*
X100095000Y-119676833D01*
X100100007Y-119625998D01*
X100095000Y-119575160D01*
X100080024Y-119423103D01*
X100022581Y-119233740D01*
X100020841Y-119228004D01*
X99924734Y-119048200D01*
X99827803Y-118930090D01*
X99795396Y-118890602D01*
X99755908Y-118858195D01*
X98873126Y-117975413D01*
X100764192Y-117975413D01*
X100859956Y-118239814D01*
X101149571Y-118380704D01*
X101461108Y-118462384D01*
X101782595Y-118481718D01*
X102101675Y-118437961D01*
X102406088Y-118332795D01*
X102580044Y-118239814D01*
X102675808Y-117975413D01*
X101720000Y-117019605D01*
X100764192Y-117975413D01*
X98873126Y-117975413D01*
X97800308Y-116902595D01*
X100078282Y-116902595D01*
X100122039Y-117221675D01*
X100227205Y-117526088D01*
X100320186Y-117700044D01*
X100584587Y-117795808D01*
X101540395Y-116840000D01*
X101899605Y-116840000D01*
X102855413Y-117795808D01*
X103119814Y-117700044D01*
X103260704Y-117410429D01*
X103342384Y-117098892D01*
X103361718Y-116777405D01*
X103317961Y-116458325D01*
X103212795Y-116153912D01*
X103119814Y-115979956D01*
X102855413Y-115884192D01*
X101899605Y-116840000D01*
X101540395Y-116840000D01*
X100584587Y-115884192D01*
X100320186Y-115979956D01*
X100179296Y-116269571D01*
X100097616Y-116581108D01*
X100078282Y-116902595D01*
X97800308Y-116902595D01*
X96602300Y-115704587D01*
X100764192Y-115704587D01*
X101720000Y-116660395D01*
X102675808Y-115704587D01*
X102580044Y-115440186D01*
X102290429Y-115299296D01*
X101978892Y-115217616D01*
X101657405Y-115198282D01*
X101338325Y-115242039D01*
X101033912Y-115347205D01*
X100859956Y-115440186D01*
X100764192Y-115704587D01*
X96602300Y-115704587D01*
X95491808Y-114594096D01*
X95459397Y-114554603D01*
X95301798Y-114425265D01*
X95121994Y-114329158D01*
X94926896Y-114269975D01*
X94774839Y-114254999D01*
X94774829Y-114254999D01*
X94724001Y-114249993D01*
X94673173Y-114254999D01*
X90746826Y-114254999D01*
X90695998Y-114249993D01*
X90645170Y-114254999D01*
X90645161Y-114254999D01*
X90493104Y-114269975D01*
X90298006Y-114329158D01*
X90214308Y-114373895D01*
X90118201Y-114425265D01*
X90000091Y-114522196D01*
X89960603Y-114554603D01*
X89928196Y-114594091D01*
X89194091Y-115328197D01*
X89154604Y-115360603D01*
X89122197Y-115400091D01*
X89122196Y-115400092D01*
X89025265Y-115518202D01*
X88929159Y-115698006D01*
X88869976Y-115893104D01*
X88849993Y-116095999D01*
X88855000Y-116146837D01*
X88854999Y-122859171D01*
X88849993Y-122909999D01*
X88854999Y-122960827D01*
X88854999Y-122960836D01*
X88869975Y-123112893D01*
X88929158Y-123307991D01*
X89025265Y-123487796D01*
X89154603Y-123645395D01*
X89194096Y-123677806D01*
X89955000Y-124438711D01*
X89955000Y-124606260D01*
X90012068Y-124893158D01*
X90124010Y-125163411D01*
X90286525Y-125406632D01*
X90418380Y-125538487D01*
X90345820Y-125560498D01*
X90235506Y-125619463D01*
X90138815Y-125698815D01*
X90059463Y-125795506D01*
X90000498Y-125905820D01*
X89964188Y-126025518D01*
X89951928Y-126150000D01*
X89955000Y-126714250D01*
X90113750Y-126873000D01*
X91313000Y-126873000D01*
X91313000Y-126853000D01*
X91567000Y-126853000D01*
X91567000Y-126873000D01*
X91587000Y-126873000D01*
X91587000Y-127127000D01*
X91567000Y-127127000D01*
X91567000Y-128326250D01*
X91725750Y-128485000D01*
X92290000Y-128488072D01*
X92414482Y-128475812D01*
X92534180Y-128439502D01*
X92644494Y-128380537D01*
X92741185Y-128301185D01*
X92820537Y-128204494D01*
X92879502Y-128094180D01*
X92901513Y-128021620D01*
X93033368Y-128153475D01*
X93276589Y-128315990D01*
X93546842Y-128427932D01*
X93833740Y-128485000D01*
X94126260Y-128485000D01*
X94413158Y-128427932D01*
X94683411Y-128315990D01*
X94926632Y-128153475D01*
X95045107Y-128035000D01*
X100199147Y-128035000D01*
X100293482Y-128112419D01*
X100275518Y-128114188D01*
X100155820Y-128150498D01*
X100045506Y-128209463D01*
X99948815Y-128288815D01*
X99869463Y-128385506D01*
X99810498Y-128495820D01*
X99774188Y-128615518D01*
X99761928Y-128740000D01*
X99761928Y-130340000D01*
X99774188Y-130464482D01*
X99810498Y-130584180D01*
X99869463Y-130694494D01*
X99948815Y-130791185D01*
X100045506Y-130870537D01*
X100155820Y-130929502D01*
X100275518Y-130965812D01*
X100400000Y-130978072D01*
X101574361Y-130978072D01*
X101835001Y-131238712D01*
X101835000Y-133738741D01*
X101817503Y-133756238D01*
X101669215Y-133978167D01*
X101567072Y-134224761D01*
X101515000Y-134486544D01*
X101515000Y-134753456D01*
X101567072Y-135015239D01*
X101669215Y-135261833D01*
X101817503Y-135483762D01*
X102006238Y-135672497D01*
X102228167Y-135820785D01*
X102474761Y-135922928D01*
X102736544Y-135975000D01*
X103003456Y-135975000D01*
X103265239Y-135922928D01*
X103511833Y-135820785D01*
X103733762Y-135672497D01*
X103751259Y-135655000D01*
X104528741Y-135655000D01*
X104546238Y-135672497D01*
X104768167Y-135820785D01*
X105014761Y-135922928D01*
X105276544Y-135975000D01*
X105543456Y-135975000D01*
X105805239Y-135922928D01*
X106051833Y-135820785D01*
X106273762Y-135672497D01*
X106462497Y-135483762D01*
X106610785Y-135261833D01*
X106680000Y-135094734D01*
X106749215Y-135261833D01*
X106897503Y-135483762D01*
X107086238Y-135672497D01*
X107308167Y-135820785D01*
X107554761Y-135922928D01*
X107816544Y-135975000D01*
X108083456Y-135975000D01*
X108345239Y-135922928D01*
X108591833Y-135820785D01*
X108813762Y-135672497D01*
X109002497Y-135483762D01*
X109150785Y-135261833D01*
X109252928Y-135015239D01*
X109305000Y-134753456D01*
X109305000Y-134728710D01*
X109915908Y-134117803D01*
X109955396Y-134085396D01*
X109990844Y-134042203D01*
X110084734Y-133927798D01*
X110176434Y-133756238D01*
X110180841Y-133747993D01*
X110240024Y-133552895D01*
X110255000Y-133400838D01*
X110255000Y-133400829D01*
X110260006Y-133350001D01*
X110255000Y-133299173D01*
X110255000Y-130827715D01*
X110421101Y-130738932D01*
X110639608Y-130559608D01*
X110818932Y-130341101D01*
X110952182Y-130091808D01*
X111034236Y-129821309D01*
X111061943Y-129540000D01*
X111034236Y-129258691D01*
X110952182Y-128988192D01*
X110818932Y-128738899D01*
X110639608Y-128520392D01*
X110421101Y-128341068D01*
X110288142Y-128270000D01*
X110421101Y-128198932D01*
X110639608Y-128019608D01*
X110818932Y-127801101D01*
X110915927Y-127619637D01*
X114535001Y-131238712D01*
X114535000Y-133625604D01*
X114455363Y-133705241D01*
X114298320Y-133940273D01*
X114190147Y-134201426D01*
X114135000Y-134478665D01*
X114135000Y-134761335D01*
X114190147Y-135038574D01*
X114298320Y-135299727D01*
X114455363Y-135534759D01*
X114655241Y-135734637D01*
X114890273Y-135891680D01*
X115151426Y-135999853D01*
X115428665Y-136055000D01*
X115711335Y-136055000D01*
X115988574Y-135999853D01*
X116249727Y-135891680D01*
X116484759Y-135734637D01*
X116684637Y-135534759D01*
X116841680Y-135299727D01*
X116949853Y-135038574D01*
X117005000Y-134761335D01*
X117005000Y-134478665D01*
X116949853Y-134201426D01*
X116841680Y-133940273D01*
X116684637Y-133705241D01*
X116605000Y-133625604D01*
X116605000Y-130860827D01*
X116610006Y-130809999D01*
X116608081Y-130790458D01*
X118345001Y-132527378D01*
X118345000Y-133625604D01*
X118265363Y-133705241D01*
X118108320Y-133940273D01*
X118000147Y-134201426D01*
X117945000Y-134478665D01*
X117945000Y-134761335D01*
X118000147Y-135038574D01*
X118108320Y-135299727D01*
X118265363Y-135534759D01*
X118465241Y-135734637D01*
X118700273Y-135891680D01*
X118961426Y-135999853D01*
X119238665Y-136055000D01*
X119521335Y-136055000D01*
X119798574Y-135999853D01*
X120059727Y-135891680D01*
X120294759Y-135734637D01*
X120374396Y-135655000D01*
X122583822Y-135655000D01*
X122801637Y-135980983D01*
X123099017Y-136278363D01*
X123430721Y-136500000D01*
X87020000Y-136500000D01*
X87020000Y-127850000D01*
X89951928Y-127850000D01*
X89964188Y-127974482D01*
X90000498Y-128094180D01*
X90059463Y-128204494D01*
X90138815Y-128301185D01*
X90235506Y-128380537D01*
X90345820Y-128439502D01*
X90465518Y-128475812D01*
X90590000Y-128488072D01*
X91154250Y-128485000D01*
X91313000Y-128326250D01*
X91313000Y-127127000D01*
X90113750Y-127127000D01*
X89955000Y-127285750D01*
X89951928Y-127850000D01*
X87020000Y-127850000D01*
X87020000Y-107340000D01*
X131420000Y-107340000D01*
X131420001Y-122992665D01*
%TA.AperFunction,Conductor*%
D23*
G36*
X131420001Y-122992665D02*
G01*
X131166912Y-122887832D01*
X130851033Y-122825000D01*
X130528967Y-122825000D01*
X130213088Y-122887832D01*
X129915537Y-123011082D01*
X129647748Y-123190013D01*
X129420013Y-123417748D01*
X129241082Y-123685537D01*
X129117832Y-123983088D01*
X129055000Y-124298967D01*
X129055000Y-124621033D01*
X129056702Y-124629588D01*
X128844092Y-124842198D01*
X128804605Y-124874604D01*
X128772198Y-124914092D01*
X128772197Y-124914093D01*
X128675266Y-125032203D01*
X128579160Y-125212007D01*
X128519977Y-125407105D01*
X128499994Y-125610000D01*
X128505001Y-125660838D01*
X128505000Y-127663822D01*
X128179017Y-127881637D01*
X127881637Y-128179017D01*
X127663822Y-128505000D01*
X126336178Y-128505000D01*
X126118363Y-128179017D01*
X125820983Y-127881637D01*
X125471302Y-127647988D01*
X125082756Y-127487047D01*
X124670279Y-127405000D01*
X124249721Y-127405000D01*
X123837244Y-127487047D01*
X123448698Y-127647988D01*
X123225001Y-127797457D01*
X123225001Y-126095000D01*
X123351033Y-126095000D01*
X123666912Y-126032168D01*
X123964463Y-125908918D01*
X124232252Y-125729987D01*
X124459987Y-125502252D01*
X124638918Y-125234463D01*
X124762168Y-124936912D01*
X124825000Y-124621033D01*
X124825000Y-124298967D01*
X124762168Y-123983088D01*
X124638918Y-123685537D01*
X124459987Y-123417748D01*
X124232252Y-123190013D01*
X123964463Y-123011082D01*
X123666912Y-122887832D01*
X123351033Y-122825000D01*
X123028967Y-122825000D01*
X122713088Y-122887832D01*
X122415537Y-123011082D01*
X122147748Y-123190013D01*
X121920013Y-123417748D01*
X121741082Y-123685537D01*
X121617832Y-123983088D01*
X121555000Y-124298967D01*
X121555000Y-124424999D01*
X120815000Y-124424999D01*
X120815000Y-124318665D01*
X120759853Y-124041426D01*
X120651680Y-123780273D01*
X120494637Y-123545241D01*
X120294759Y-123345363D01*
X120059727Y-123188320D01*
X119798574Y-123080147D01*
X119521335Y-123025000D01*
X119238665Y-123025000D01*
X118961426Y-123080147D01*
X118700273Y-123188320D01*
X118465241Y-123345363D01*
X118385604Y-123425000D01*
X116564396Y-123425000D01*
X116484759Y-123345363D01*
X116249727Y-123188320D01*
X115988574Y-123080147D01*
X115711335Y-123025000D01*
X115428665Y-123025000D01*
X115151426Y-123080147D01*
X114890273Y-123188320D01*
X114655241Y-123345363D01*
X114455363Y-123545241D01*
X114298320Y-123780273D01*
X114190147Y-124041426D01*
X114135000Y-124318665D01*
X114135000Y-124601335D01*
X114190147Y-124878574D01*
X114298320Y-125139727D01*
X114455363Y-125374759D01*
X114655241Y-125574637D01*
X114890273Y-125731680D01*
X115151426Y-125839853D01*
X115428665Y-125895000D01*
X115711335Y-125895000D01*
X115988574Y-125839853D01*
X116249727Y-125731680D01*
X116484759Y-125574637D01*
X116564396Y-125495000D01*
X118385604Y-125495000D01*
X118465241Y-125574637D01*
X118700273Y-125731680D01*
X118961426Y-125839853D01*
X119238665Y-125895000D01*
X119351289Y-125895000D01*
X119612196Y-126155907D01*
X119644603Y-126195395D01*
X119684091Y-126227802D01*
X119802201Y-126324733D01*
X119898308Y-126376103D01*
X119982006Y-126420840D01*
X120177104Y-126480023D01*
X120329161Y-126494999D01*
X120329170Y-126494999D01*
X120379998Y-126500005D01*
X120430826Y-126494999D01*
X121155002Y-126494999D01*
X121155001Y-130475175D01*
X121149995Y-130526003D01*
X121155001Y-130576831D01*
X121155001Y-130576840D01*
X121169977Y-130728897D01*
X121229160Y-130923995D01*
X121325267Y-131103800D01*
X121454605Y-131261399D01*
X121494098Y-131293810D01*
X122976195Y-132775908D01*
X123008602Y-132815396D01*
X123048090Y-132847803D01*
X123147402Y-132929307D01*
X123099017Y-132961637D01*
X122801637Y-133259017D01*
X122583822Y-133585000D01*
X120415000Y-133585000D01*
X120415000Y-132149501D01*
X120420007Y-132098666D01*
X120415000Y-132047828D01*
X120400024Y-131895771D01*
X120340841Y-131700673D01*
X120275166Y-131577803D01*
X120244734Y-131520868D01*
X120147803Y-131402758D01*
X120115396Y-131363270D01*
X120075908Y-131330863D01*
X111013782Y-122268738D01*
X111034236Y-122201309D01*
X111061943Y-121920000D01*
X111034236Y-121638691D01*
X110952182Y-121368192D01*
X110818932Y-121118899D01*
X110639608Y-120900392D01*
X110421101Y-120721068D01*
X110171808Y-120587818D01*
X109901309Y-120505764D01*
X109690492Y-120485000D01*
X108749508Y-120485000D01*
X108538691Y-120505764D01*
X108354990Y-120561488D01*
X108354990Y-119168720D01*
X109050412Y-118473298D01*
X109058967Y-118475000D01*
X109381033Y-118475000D01*
X109696912Y-118412168D01*
X109994463Y-118288918D01*
X110262252Y-118109987D01*
X110489987Y-117882252D01*
X110668918Y-117614463D01*
X110792168Y-117316912D01*
X110855000Y-117001033D01*
X110855000Y-116870000D01*
X123791928Y-116870000D01*
X123804188Y-116994482D01*
X123840498Y-117114180D01*
X123899463Y-117224494D01*
X123978815Y-117321185D01*
X124075506Y-117400537D01*
X124185820Y-117459502D01*
X124305518Y-117495812D01*
X124430000Y-117508072D01*
X125444250Y-117505000D01*
X125603000Y-117346250D01*
X125603000Y-115697000D01*
X125857000Y-115697000D01*
X125857000Y-117346250D01*
X126015750Y-117505000D01*
X127030000Y-117508072D01*
X127154482Y-117495812D01*
X127274180Y-117459502D01*
X127384494Y-117400537D01*
X127481185Y-117321185D01*
X127560537Y-117224494D01*
X127619502Y-117114180D01*
X127655812Y-116994482D01*
X127668072Y-116870000D01*
X127665000Y-115855750D01*
X127506250Y-115697000D01*
X125857000Y-115697000D01*
X125603000Y-115697000D01*
X123953750Y-115697000D01*
X123795000Y-115855750D01*
X123791928Y-116870000D01*
X110855000Y-116870000D01*
X110855000Y-116678967D01*
X110792168Y-116363088D01*
X110668918Y-116065537D01*
X110489987Y-115797748D01*
X110262252Y-115570013D01*
X110255000Y-115565167D01*
X110255000Y-114270000D01*
X123791928Y-114270000D01*
X123795000Y-115284250D01*
X123953750Y-115443000D01*
X125603000Y-115443000D01*
X125603000Y-113793750D01*
X125857000Y-113793750D01*
X125857000Y-115443000D01*
X127506250Y-115443000D01*
X127665000Y-115284250D01*
X127668072Y-114270000D01*
X127655812Y-114145518D01*
X127619502Y-114025820D01*
X127560537Y-113915506D01*
X127481185Y-113818815D01*
X127384494Y-113739463D01*
X127274180Y-113680498D01*
X127154482Y-113644188D01*
X127030000Y-113631928D01*
X126015750Y-113635000D01*
X125857000Y-113793750D01*
X125603000Y-113793750D01*
X125444250Y-113635000D01*
X124430000Y-113631928D01*
X124305518Y-113644188D01*
X124185820Y-113680498D01*
X124075506Y-113739463D01*
X123978815Y-113818815D01*
X123899463Y-113915506D01*
X123840498Y-114025820D01*
X123804188Y-114145518D01*
X123791928Y-114270000D01*
X110255000Y-114270000D01*
X110255000Y-111764833D01*
X110262252Y-111759987D01*
X110489987Y-111532252D01*
X110494833Y-111525000D01*
X124094360Y-111525000D01*
X124226987Y-111723491D01*
X124496509Y-111993013D01*
X124813434Y-112204775D01*
X125165581Y-112350639D01*
X125539419Y-112425000D01*
X125920581Y-112425000D01*
X126294419Y-112350639D01*
X126646566Y-112204775D01*
X126963491Y-111993013D01*
X127233013Y-111723491D01*
X127444775Y-111406566D01*
X127590639Y-111054419D01*
X127665000Y-110680581D01*
X127665000Y-110299419D01*
X127590639Y-109925581D01*
X127444775Y-109573434D01*
X127233013Y-109256509D01*
X126963491Y-108986987D01*
X126646566Y-108775225D01*
X126294419Y-108629361D01*
X125920581Y-108555000D01*
X125539419Y-108555000D01*
X125165581Y-108629361D01*
X124813434Y-108775225D01*
X124496509Y-108986987D01*
X124226987Y-109256509D01*
X124094360Y-109455000D01*
X110494833Y-109455000D01*
X110489987Y-109447748D01*
X110262252Y-109220013D01*
X109994463Y-109041082D01*
X109696912Y-108917832D01*
X109381033Y-108855000D01*
X109058967Y-108855000D01*
X108743088Y-108917832D01*
X108445537Y-109041082D01*
X108177748Y-109220013D01*
X107950013Y-109447748D01*
X107771082Y-109715537D01*
X107647832Y-110013088D01*
X107585000Y-110328967D01*
X107585000Y-110651033D01*
X107586702Y-110659588D01*
X107091289Y-111155001D01*
X103214697Y-111155001D01*
X103260704Y-111060429D01*
X103342384Y-110748892D01*
X103361718Y-110427405D01*
X103317961Y-110108325D01*
X103212795Y-109803912D01*
X103119814Y-109629956D01*
X102855413Y-109534192D01*
X101899605Y-110490000D01*
X101913748Y-110504143D01*
X101734143Y-110683748D01*
X101720000Y-110669605D01*
X101705858Y-110683748D01*
X101526253Y-110504143D01*
X101540395Y-110490000D01*
X100584587Y-109534192D01*
X100426102Y-109591594D01*
X100329987Y-109447748D01*
X100236826Y-109354587D01*
X100764192Y-109354587D01*
X101720000Y-110310395D01*
X102675808Y-109354587D01*
X102580044Y-109090186D01*
X102290429Y-108949296D01*
X101978892Y-108867616D01*
X101657405Y-108848282D01*
X101338325Y-108892039D01*
X101033912Y-108997205D01*
X100859956Y-109090186D01*
X100764192Y-109354587D01*
X100236826Y-109354587D01*
X100102252Y-109220013D01*
X99834463Y-109041082D01*
X99536912Y-108917832D01*
X99221033Y-108855000D01*
X98898967Y-108855000D01*
X98583088Y-108917832D01*
X98285537Y-109041082D01*
X98017748Y-109220013D01*
X97790013Y-109447748D01*
X97611082Y-109715537D01*
X97487832Y-110013088D01*
X97425000Y-110328967D01*
X97425000Y-110651033D01*
X97487832Y-110966912D01*
X97611082Y-111264463D01*
X97790013Y-111532252D01*
X98017748Y-111759987D01*
X98285537Y-111938918D01*
X98583088Y-112062168D01*
X98898967Y-112125000D01*
X99221033Y-112125000D01*
X99229588Y-112123298D01*
X99992198Y-112885909D01*
X100024605Y-112925397D01*
X100182204Y-113054735D01*
X100362008Y-113150842D01*
X100557106Y-113210025D01*
X100709163Y-113225001D01*
X100709172Y-113225001D01*
X100760000Y-113230007D01*
X100810828Y-113225001D01*
X107469171Y-113225001D01*
X107519999Y-113230007D01*
X107570827Y-113225001D01*
X107570837Y-113225001D01*
X107722894Y-113210025D01*
X107917992Y-113150842D01*
X108097796Y-113054735D01*
X108185000Y-112983168D01*
X108185001Y-115565167D01*
X108177748Y-115570013D01*
X107950013Y-115797748D01*
X107771082Y-116065537D01*
X107647832Y-116363088D01*
X107585000Y-116678967D01*
X107585000Y-117001033D01*
X107586702Y-117009588D01*
X106624087Y-117972203D01*
X106584594Y-118004614D01*
X106455256Y-118162213D01*
X106359149Y-118342018D01*
X106299966Y-118537116D01*
X106284990Y-118689173D01*
X106284990Y-118689182D01*
X106279984Y-118740010D01*
X106284990Y-118790838D01*
X106284991Y-125049152D01*
X106279984Y-125099990D01*
X106299967Y-125302885D01*
X106359150Y-125497983D01*
X106455256Y-125677787D01*
X106535850Y-125775990D01*
X106584595Y-125835386D01*
X106624082Y-125867792D01*
X107421874Y-126665584D01*
X107405764Y-126718691D01*
X107378057Y-127000000D01*
X107405764Y-127281309D01*
X107487818Y-127551808D01*
X107621068Y-127801101D01*
X107800392Y-128019608D01*
X108018899Y-128198932D01*
X108151858Y-128270000D01*
X108018899Y-128341068D01*
X107800392Y-128520392D01*
X107621068Y-128738899D01*
X107487818Y-128988192D01*
X107405764Y-129258691D01*
X107378057Y-129540000D01*
X107405764Y-129821309D01*
X107487818Y-130091808D01*
X107621068Y-130341101D01*
X107800392Y-130559608D01*
X108018899Y-130738932D01*
X108185000Y-130827715D01*
X108185001Y-132921288D01*
X107841290Y-133265000D01*
X107816544Y-133265000D01*
X107554761Y-133317072D01*
X107308167Y-133419215D01*
X107086238Y-133567503D01*
X106897503Y-133756238D01*
X106749215Y-133978167D01*
X106680000Y-134145266D01*
X106610785Y-133978167D01*
X106462497Y-133756238D01*
X106273762Y-133567503D01*
X106051833Y-133419215D01*
X105805239Y-133317072D01*
X105543456Y-133265000D01*
X105276544Y-133265000D01*
X105014761Y-133317072D01*
X104768167Y-133419215D01*
X104546238Y-133567503D01*
X104528741Y-133585000D01*
X103905000Y-133585000D01*
X103905000Y-130860827D01*
X103910006Y-130809999D01*
X103905000Y-130759171D01*
X103905000Y-130759162D01*
X103890024Y-130607105D01*
X103830841Y-130412007D01*
X103736714Y-130235907D01*
X103734734Y-130232202D01*
X103637803Y-130114092D01*
X103605396Y-130074604D01*
X103565908Y-130042197D01*
X103438072Y-129914361D01*
X103438072Y-128740000D01*
X103425812Y-128615518D01*
X103389502Y-128495820D01*
X103330537Y-128385506D01*
X103251185Y-128288815D01*
X103154494Y-128209463D01*
X103044180Y-128150498D01*
X102924482Y-128114188D01*
X102906518Y-128112419D01*
X103019608Y-128019608D01*
X103198932Y-127801101D01*
X103332182Y-127551808D01*
X103414236Y-127281309D01*
X103441943Y-127000000D01*
X103414236Y-126718691D01*
X103332182Y-126448192D01*
X103198932Y-126198899D01*
X103019608Y-125980392D01*
X102801101Y-125801068D01*
X102668142Y-125730000D01*
X102801101Y-125658932D01*
X103019608Y-125479608D01*
X103198932Y-125261101D01*
X103332182Y-125011808D01*
X103414236Y-124741309D01*
X103441943Y-124460000D01*
X103414236Y-124178691D01*
X103332182Y-123908192D01*
X103198932Y-123658899D01*
X103019608Y-123440392D01*
X102801101Y-123261068D01*
X102673259Y-123192735D01*
X102902839Y-123042601D01*
X103104500Y-122844895D01*
X103263715Y-122611646D01*
X103374367Y-122351818D01*
X103391904Y-122269039D01*
X103269915Y-122047000D01*
X101727000Y-122047000D01*
X101727000Y-122067000D01*
X101473000Y-122067000D01*
X101473000Y-122047000D01*
X101453000Y-122047000D01*
X101453000Y-121793000D01*
X101473000Y-121793000D01*
X101473000Y-120485000D01*
X101727000Y-120485000D01*
X101727000Y-121793000D01*
X103269915Y-121793000D01*
X103391904Y-121570961D01*
X103374367Y-121488182D01*
X103263715Y-121228354D01*
X103104500Y-120995105D01*
X102902839Y-120797399D01*
X102666483Y-120642834D01*
X102404514Y-120537350D01*
X102127000Y-120485000D01*
X101727000Y-120485000D01*
X101473000Y-120485000D01*
X101073000Y-120485000D01*
X100795486Y-120537350D01*
X100533517Y-120642834D01*
X100297161Y-120797399D01*
X100095500Y-120995105D01*
X100095000Y-120995837D01*
X100095000Y-119676833D01*
X100100007Y-119625998D01*
X100095000Y-119575160D01*
X100080024Y-119423103D01*
X100022581Y-119233740D01*
X100020841Y-119228004D01*
X99924734Y-119048200D01*
X99827803Y-118930090D01*
X99795396Y-118890602D01*
X99755908Y-118858195D01*
X98873126Y-117975413D01*
X100764192Y-117975413D01*
X100859956Y-118239814D01*
X101149571Y-118380704D01*
X101461108Y-118462384D01*
X101782595Y-118481718D01*
X102101675Y-118437961D01*
X102406088Y-118332795D01*
X102580044Y-118239814D01*
X102675808Y-117975413D01*
X101720000Y-117019605D01*
X100764192Y-117975413D01*
X98873126Y-117975413D01*
X97800308Y-116902595D01*
X100078282Y-116902595D01*
X100122039Y-117221675D01*
X100227205Y-117526088D01*
X100320186Y-117700044D01*
X100584587Y-117795808D01*
X101540395Y-116840000D01*
X101899605Y-116840000D01*
X102855413Y-117795808D01*
X103119814Y-117700044D01*
X103260704Y-117410429D01*
X103342384Y-117098892D01*
X103361718Y-116777405D01*
X103317961Y-116458325D01*
X103212795Y-116153912D01*
X103119814Y-115979956D01*
X102855413Y-115884192D01*
X101899605Y-116840000D01*
X101540395Y-116840000D01*
X100584587Y-115884192D01*
X100320186Y-115979956D01*
X100179296Y-116269571D01*
X100097616Y-116581108D01*
X100078282Y-116902595D01*
X97800308Y-116902595D01*
X96602300Y-115704587D01*
X100764192Y-115704587D01*
X101720000Y-116660395D01*
X102675808Y-115704587D01*
X102580044Y-115440186D01*
X102290429Y-115299296D01*
X101978892Y-115217616D01*
X101657405Y-115198282D01*
X101338325Y-115242039D01*
X101033912Y-115347205D01*
X100859956Y-115440186D01*
X100764192Y-115704587D01*
X96602300Y-115704587D01*
X95491808Y-114594096D01*
X95459397Y-114554603D01*
X95301798Y-114425265D01*
X95121994Y-114329158D01*
X94926896Y-114269975D01*
X94774839Y-114254999D01*
X94774829Y-114254999D01*
X94724001Y-114249993D01*
X94673173Y-114254999D01*
X90746826Y-114254999D01*
X90695998Y-114249993D01*
X90645170Y-114254999D01*
X90645161Y-114254999D01*
X90493104Y-114269975D01*
X90298006Y-114329158D01*
X90214308Y-114373895D01*
X90118201Y-114425265D01*
X90000091Y-114522196D01*
X89960603Y-114554603D01*
X89928196Y-114594091D01*
X89194091Y-115328197D01*
X89154604Y-115360603D01*
X89122197Y-115400091D01*
X89122196Y-115400092D01*
X89025265Y-115518202D01*
X88929159Y-115698006D01*
X88869976Y-115893104D01*
X88849993Y-116095999D01*
X88855000Y-116146837D01*
X88854999Y-122859171D01*
X88849993Y-122909999D01*
X88854999Y-122960827D01*
X88854999Y-122960836D01*
X88869975Y-123112893D01*
X88929158Y-123307991D01*
X89025265Y-123487796D01*
X89154603Y-123645395D01*
X89194096Y-123677806D01*
X89955000Y-124438711D01*
X89955000Y-124606260D01*
X90012068Y-124893158D01*
X90124010Y-125163411D01*
X90286525Y-125406632D01*
X90418380Y-125538487D01*
X90345820Y-125560498D01*
X90235506Y-125619463D01*
X90138815Y-125698815D01*
X90059463Y-125795506D01*
X90000498Y-125905820D01*
X89964188Y-126025518D01*
X89951928Y-126150000D01*
X89955000Y-126714250D01*
X90113750Y-126873000D01*
X91313000Y-126873000D01*
X91313000Y-126853000D01*
X91567000Y-126853000D01*
X91567000Y-126873000D01*
X91587000Y-126873000D01*
X91587000Y-127127000D01*
X91567000Y-127127000D01*
X91567000Y-128326250D01*
X91725750Y-128485000D01*
X92290000Y-128488072D01*
X92414482Y-128475812D01*
X92534180Y-128439502D01*
X92644494Y-128380537D01*
X92741185Y-128301185D01*
X92820537Y-128204494D01*
X92879502Y-128094180D01*
X92901513Y-128021620D01*
X93033368Y-128153475D01*
X93276589Y-128315990D01*
X93546842Y-128427932D01*
X93833740Y-128485000D01*
X94126260Y-128485000D01*
X94413158Y-128427932D01*
X94683411Y-128315990D01*
X94926632Y-128153475D01*
X95045107Y-128035000D01*
X100199147Y-128035000D01*
X100293482Y-128112419D01*
X100275518Y-128114188D01*
X100155820Y-128150498D01*
X100045506Y-128209463D01*
X99948815Y-128288815D01*
X99869463Y-128385506D01*
X99810498Y-128495820D01*
X99774188Y-128615518D01*
X99761928Y-128740000D01*
X99761928Y-130340000D01*
X99774188Y-130464482D01*
X99810498Y-130584180D01*
X99869463Y-130694494D01*
X99948815Y-130791185D01*
X100045506Y-130870537D01*
X100155820Y-130929502D01*
X100275518Y-130965812D01*
X100400000Y-130978072D01*
X101574361Y-130978072D01*
X101835001Y-131238712D01*
X101835000Y-133738741D01*
X101817503Y-133756238D01*
X101669215Y-133978167D01*
X101567072Y-134224761D01*
X101515000Y-134486544D01*
X101515000Y-134753456D01*
X101567072Y-135015239D01*
X101669215Y-135261833D01*
X101817503Y-135483762D01*
X102006238Y-135672497D01*
X102228167Y-135820785D01*
X102474761Y-135922928D01*
X102736544Y-135975000D01*
X103003456Y-135975000D01*
X103265239Y-135922928D01*
X103511833Y-135820785D01*
X103733762Y-135672497D01*
X103751259Y-135655000D01*
X104528741Y-135655000D01*
X104546238Y-135672497D01*
X104768167Y-135820785D01*
X105014761Y-135922928D01*
X105276544Y-135975000D01*
X105543456Y-135975000D01*
X105805239Y-135922928D01*
X106051833Y-135820785D01*
X106273762Y-135672497D01*
X106462497Y-135483762D01*
X106610785Y-135261833D01*
X106680000Y-135094734D01*
X106749215Y-135261833D01*
X106897503Y-135483762D01*
X107086238Y-135672497D01*
X107308167Y-135820785D01*
X107554761Y-135922928D01*
X107816544Y-135975000D01*
X108083456Y-135975000D01*
X108345239Y-135922928D01*
X108591833Y-135820785D01*
X108813762Y-135672497D01*
X109002497Y-135483762D01*
X109150785Y-135261833D01*
X109252928Y-135015239D01*
X109305000Y-134753456D01*
X109305000Y-134728710D01*
X109915908Y-134117803D01*
X109955396Y-134085396D01*
X109990844Y-134042203D01*
X110084734Y-133927798D01*
X110176434Y-133756238D01*
X110180841Y-133747993D01*
X110240024Y-133552895D01*
X110255000Y-133400838D01*
X110255000Y-133400829D01*
X110260006Y-133350001D01*
X110255000Y-133299173D01*
X110255000Y-130827715D01*
X110421101Y-130738932D01*
X110639608Y-130559608D01*
X110818932Y-130341101D01*
X110952182Y-130091808D01*
X111034236Y-129821309D01*
X111061943Y-129540000D01*
X111034236Y-129258691D01*
X110952182Y-128988192D01*
X110818932Y-128738899D01*
X110639608Y-128520392D01*
X110421101Y-128341068D01*
X110288142Y-128270000D01*
X110421101Y-128198932D01*
X110639608Y-128019608D01*
X110818932Y-127801101D01*
X110915927Y-127619637D01*
X114535001Y-131238712D01*
X114535000Y-133625604D01*
X114455363Y-133705241D01*
X114298320Y-133940273D01*
X114190147Y-134201426D01*
X114135000Y-134478665D01*
X114135000Y-134761335D01*
X114190147Y-135038574D01*
X114298320Y-135299727D01*
X114455363Y-135534759D01*
X114655241Y-135734637D01*
X114890273Y-135891680D01*
X115151426Y-135999853D01*
X115428665Y-136055000D01*
X115711335Y-136055000D01*
X115988574Y-135999853D01*
X116249727Y-135891680D01*
X116484759Y-135734637D01*
X116684637Y-135534759D01*
X116841680Y-135299727D01*
X116949853Y-135038574D01*
X117005000Y-134761335D01*
X117005000Y-134478665D01*
X116949853Y-134201426D01*
X116841680Y-133940273D01*
X116684637Y-133705241D01*
X116605000Y-133625604D01*
X116605000Y-130860827D01*
X116610006Y-130809999D01*
X116608081Y-130790458D01*
X118345001Y-132527378D01*
X118345000Y-133625604D01*
X118265363Y-133705241D01*
X118108320Y-133940273D01*
X118000147Y-134201426D01*
X117945000Y-134478665D01*
X117945000Y-134761335D01*
X118000147Y-135038574D01*
X118108320Y-135299727D01*
X118265363Y-135534759D01*
X118465241Y-135734637D01*
X118700273Y-135891680D01*
X118961426Y-135999853D01*
X119238665Y-136055000D01*
X119521335Y-136055000D01*
X119798574Y-135999853D01*
X120059727Y-135891680D01*
X120294759Y-135734637D01*
X120374396Y-135655000D01*
X122583822Y-135655000D01*
X122801637Y-135980983D01*
X123099017Y-136278363D01*
X123430721Y-136500000D01*
X87020000Y-136500000D01*
X87020000Y-127850000D01*
X89951928Y-127850000D01*
X89964188Y-127974482D01*
X90000498Y-128094180D01*
X90059463Y-128204494D01*
X90138815Y-128301185D01*
X90235506Y-128380537D01*
X90345820Y-128439502D01*
X90465518Y-128475812D01*
X90590000Y-128488072D01*
X91154250Y-128485000D01*
X91313000Y-128326250D01*
X91313000Y-127127000D01*
X90113750Y-127127000D01*
X89955000Y-127285750D01*
X89951928Y-127850000D01*
X87020000Y-127850000D01*
X87020000Y-107340000D01*
X131420000Y-107340000D01*
X131420001Y-122992665D01*
G37*
%TD.AperFunction*%
%TD*%
M02*
