M48
; DRILL file {KiCad (5.1.9)-1} date 11/03/21 21:47:18
; FORMAT={-:-/ absolute / metric / decimal}
; #@! TF.CreationDate,2021-11-03T21:47:18+07:00
; #@! TF.GenerationSoftware,Kicad,Pcbnew,(5.1.9)-1
; #@! TF.FileFunction,Plated,1,2,PTH
FMAT,2
METRIC
T1C0.800
T2C1.000
T3C1.300
T4C1.500
T5C1.700
%
G90
G05
T1
X109.22Y-148.59
X113.03Y-137.16
X113.03Y-144.78
X115.57Y-137.16
X115.57Y-144.78
X118.11Y-121.92
X118.11Y-127.0
X118.11Y-137.16
X118.11Y-144.78
X119.38Y-148.59
X120.65Y-137.16
X120.65Y-144.78
X125.73Y-130.81
X125.73Y-140.97
X128.27Y-121.92
X128.27Y-127.0
X130.81Y-130.81
X130.81Y-140.97
T2
X109.22Y-132.08
X109.22Y-134.62
X109.22Y-137.16
X109.22Y-139.7
X113.03Y-132.08
X118.03Y-132.08
X124.46Y-148.59
X129.46Y-148.59
X132.08Y-121.92
X137.08Y-121.92
X137.16Y-128.27
X137.16Y-133.27
X137.16Y-138.43
X137.16Y-143.43
T3
X146.05Y-130.81
X146.05Y-135.89
X146.05Y-140.97
T4
X111.76Y-123.19
X146.05Y-123.19
X146.05Y-148.59
T5
X109.22Y-120.65
X109.22Y-125.73
X114.3Y-120.65
X114.3Y-125.73
X143.51Y-120.65
X143.51Y-125.73
X143.51Y-146.05
X143.51Y-151.13
X148.59Y-120.65
X148.59Y-125.73
X148.59Y-146.05
X148.59Y-151.13
T0
M30
