%FSLAX45Y45*%
G04 Gerber Fmt 4.5, Leading zero omitted, Abs format (unit mm)*
G04 Created by KiCad (PCBNEW (5.1.9)-1) date 2021-11-03 21:44:59*
%MOMM*%
%LPD*%
G01*
G04 APERTURE LIST*
%TA.AperFunction,Profile*%
%ADD10C,0.050000*%
%TD*%
%ADD11C,0.200000*%
%ADD12C,0.300000*%
G04 APERTURE END LIST*
D10*
X15240000Y-11811000D02*
X10541000Y-11811000D01*
X15240000Y-15367000D02*
X15240000Y-11811000D01*
X10541000Y-15367000D02*
X15240000Y-15367000D01*
X10541000Y-11811000D02*
X10541000Y-15367000D01*
D11*
D12*
X10824928Y-15835214D02*
X10824928Y-15535214D01*
X10896357Y-15535214D01*
X10939214Y-15549500D01*
X10967786Y-15578071D01*
X10982071Y-15606643D01*
X10996357Y-15663786D01*
X10996357Y-15706643D01*
X10982071Y-15763786D01*
X10967786Y-15792357D01*
X10939214Y-15820929D01*
X10896357Y-15835214D01*
X10824928Y-15835214D01*
X11124928Y-15835214D02*
X11124928Y-15635214D01*
X11124928Y-15692357D02*
X11139214Y-15663786D01*
X11153500Y-15649500D01*
X11182071Y-15635214D01*
X11210643Y-15635214D01*
X11310643Y-15835214D02*
X11310643Y-15635214D01*
X11310643Y-15535214D02*
X11296357Y-15549500D01*
X11310643Y-15563786D01*
X11324928Y-15549500D01*
X11310643Y-15535214D01*
X11310643Y-15563786D01*
X11496357Y-15835214D02*
X11467786Y-15820929D01*
X11453500Y-15792357D01*
X11453500Y-15535214D01*
X11653500Y-15835214D02*
X11624928Y-15820929D01*
X11610643Y-15792357D01*
X11610643Y-15535214D01*
X11996357Y-15835214D02*
X11996357Y-15535214D01*
X12096357Y-15749500D01*
X12196357Y-15535214D01*
X12196357Y-15835214D01*
X12467786Y-15835214D02*
X12467786Y-15678071D01*
X12453500Y-15649500D01*
X12424928Y-15635214D01*
X12367786Y-15635214D01*
X12339214Y-15649500D01*
X12467786Y-15820929D02*
X12439214Y-15835214D01*
X12367786Y-15835214D01*
X12339214Y-15820929D01*
X12324928Y-15792357D01*
X12324928Y-15763786D01*
X12339214Y-15735214D01*
X12367786Y-15720929D01*
X12439214Y-15720929D01*
X12467786Y-15706643D01*
X12610643Y-15635214D02*
X12610643Y-15935214D01*
X12610643Y-15649500D02*
X12639214Y-15635214D01*
X12696357Y-15635214D01*
X12724928Y-15649500D01*
X12739214Y-15663786D01*
X12753500Y-15692357D01*
X12753500Y-15778071D01*
X12739214Y-15806643D01*
X12724928Y-15820929D01*
X12696357Y-15835214D01*
X12639214Y-15835214D01*
X12610643Y-15820929D01*
X12882071Y-15806643D02*
X12896357Y-15820929D01*
X12882071Y-15835214D01*
X12867786Y-15820929D01*
X12882071Y-15806643D01*
X12882071Y-15835214D01*
X12882071Y-15649500D02*
X12896357Y-15663786D01*
X12882071Y-15678071D01*
X12867786Y-15663786D01*
X12882071Y-15649500D01*
X12882071Y-15678071D01*
M02*
