%TF.GenerationSoftware,KiCad,Pcbnew,(5.1.9)-1*%
%TF.CreationDate,2021-11-03T21:44:47+07:00*%
%TF.ProjectId,PMT_Mini_Amp,504d545f-4d69-46e6-995f-416d702e6b69,rev?*%
%TF.SameCoordinates,Original*%
%TF.FileFunction,Copper,L2,Bot*%
%TF.FilePolarity,Positive*%
%FSLAX46Y46*%
G04 Gerber Fmt 4.6, Leading zero omitted, Abs format (unit mm)*
G04 Created by KiCad (PCBNEW (5.1.9)-1) date 2021-11-03 21:44:47*
%MOMM*%
%LPD*%
G01*
G04 APERTURE LIST*
%TA.AperFunction,ComponentPad*%
%ADD10O,1.600000X1.600000*%
%TD*%
%TA.AperFunction,ComponentPad*%
%ADD11C,1.600000*%
%TD*%
%TA.AperFunction,ComponentPad*%
%ADD12O,3.000000X2.000000*%
%TD*%
%TA.AperFunction,ComponentPad*%
%ADD13R,3.000000X2.000000*%
%TD*%
%TA.AperFunction,ComponentPad*%
%ADD14O,1.600000X2.400000*%
%TD*%
%TA.AperFunction,ComponentPad*%
%ADD15R,1.600000X2.400000*%
%TD*%
%TA.AperFunction,ComponentPad*%
%ADD16C,2.250000*%
%TD*%
%TA.AperFunction,ComponentPad*%
%ADD17C,3.000000*%
%TD*%
%TA.AperFunction,ComponentPad*%
%ADD18C,2.600000*%
%TD*%
%TA.AperFunction,ComponentPad*%
%ADD19R,2.600000X2.600000*%
%TD*%
%TA.AperFunction,ComponentPad*%
%ADD20C,2.000000*%
%TD*%
%TA.AperFunction,Conductor*%
%ADD21C,1.000000*%
%TD*%
%TA.AperFunction,Conductor*%
%ADD22C,0.254000*%
%TD*%
%TA.AperFunction,Conductor*%
%ADD23C,0.100000*%
%TD*%
G04 APERTURE END LIST*
D10*
%TO.P,R5,2*%
%TO.N,GND*%
X130810000Y-140970000D03*
D11*
%TO.P,R5,1*%
%TO.N,Net-(C5-Pad1)*%
X130810000Y-130810000D03*
%TD*%
D12*
%TO.P,J1,4*%
%TO.N,Blue*%
X109220000Y-132080000D03*
%TO.P,J1,3*%
%TO.N,White*%
X109220000Y-134620000D03*
%TO.P,J1,2*%
%TO.N,GND*%
X109220000Y-137160000D03*
D13*
%TO.P,J1,1*%
%TO.N,+12V*%
X109220000Y-139700000D03*
%TD*%
D14*
%TO.P,U1,8*%
%TO.N,+12V*%
X120650000Y-144780000D03*
%TO.P,U1,4*%
%TO.N,-12V*%
X113030000Y-137160000D03*
%TO.P,U1,7*%
%TO.N,N/C*%
X118110000Y-144780000D03*
%TO.P,U1,3*%
%TO.N,GND*%
X115570000Y-137160000D03*
%TO.P,U1,6*%
%TO.N,N/C*%
X115570000Y-144780000D03*
%TO.P,U1,2*%
%TO.N,Net-(C4-Pad2)*%
X118110000Y-137160000D03*
%TO.P,U1,5*%
%TO.N,N/C*%
X113030000Y-144780000D03*
D15*
%TO.P,U1,1*%
%TO.N,Net-(C4-Pad1)*%
X120650000Y-137160000D03*
%TD*%
D10*
%TO.P,R4,2*%
%TO.N,Net-(C4-Pad1)*%
X125730000Y-140970000D03*
D11*
%TO.P,R4,1*%
%TO.N,Net-(C5-Pad1)*%
X125730000Y-130810000D03*
%TD*%
D10*
%TO.P,R3,2*%
%TO.N,Net-(C4-Pad2)*%
X118110000Y-127000000D03*
D11*
%TO.P,R3,1*%
%TO.N,Net-(C4-Pad1)*%
X128270000Y-127000000D03*
%TD*%
D10*
%TO.P,R2,2*%
%TO.N,Net-(C1-Pad1)*%
X119380000Y-148590000D03*
D11*
%TO.P,R2,1*%
%TO.N,White*%
X109220000Y-148590000D03*
%TD*%
D10*
%TO.P,R1,2*%
%TO.N,Net-(J2-Pad1)*%
X118110000Y-121920000D03*
D11*
%TO.P,R1,1*%
%TO.N,Net-(C4-Pad2)*%
X128270000Y-121920000D03*
%TD*%
D16*
%TO.P,J5,2*%
%TO.N,GND*%
X143510000Y-125730000D03*
X143510000Y-120650000D03*
X148590000Y-120650000D03*
X148590000Y-125730000D03*
D17*
%TO.P,J5,1*%
%TO.N,Net-(C5-Pad1)*%
X146050000Y-123190000D03*
%TD*%
D18*
%TO.P,J4,3*%
%TO.N,-12V*%
X146050000Y-130810000D03*
%TO.P,J4,2*%
%TO.N,GND*%
X146050000Y-135890000D03*
D19*
%TO.P,J4,1*%
%TO.N,+12V*%
X146050000Y-140970000D03*
%TD*%
D16*
%TO.P,J3,2*%
%TO.N,GND*%
X143510000Y-151130000D03*
X143510000Y-146050000D03*
X148590000Y-146050000D03*
X148590000Y-151130000D03*
D17*
%TO.P,J3,1*%
%TO.N,Net-(C1-Pad1)*%
X146050000Y-148590000D03*
%TD*%
D16*
%TO.P,J2,2*%
%TO.N,GND*%
X109220000Y-125730000D03*
X109220000Y-120650000D03*
X114300000Y-120650000D03*
X114300000Y-125730000D03*
D17*
%TO.P,J2,1*%
%TO.N,Net-(J2-Pad1)*%
X111760000Y-123190000D03*
%TD*%
D20*
%TO.P,C5,2*%
%TO.N,GND*%
X137080000Y-121920000D03*
%TO.P,C5,1*%
%TO.N,Net-(C5-Pad1)*%
X132080000Y-121920000D03*
%TD*%
%TO.P,C4,2*%
%TO.N,Net-(C4-Pad2)*%
X113030000Y-132080000D03*
%TO.P,C4,1*%
%TO.N,Net-(C4-Pad1)*%
X118030000Y-132080000D03*
%TD*%
%TO.P,C3,2*%
%TO.N,+12V*%
X137160000Y-143430000D03*
%TO.P,C3,1*%
%TO.N,GND*%
X137160000Y-138430000D03*
%TD*%
%TO.P,C2,2*%
%TO.N,-12V*%
X137160000Y-128270000D03*
%TO.P,C2,1*%
%TO.N,GND*%
X137160000Y-133270000D03*
%TD*%
%TO.P,C1,2*%
%TO.N,GND*%
X129460000Y-148590000D03*
%TO.P,C1,1*%
%TO.N,Net-(C1-Pad1)*%
X124460000Y-148590000D03*
%TD*%
D21*
%TO.N,Net-(C1-Pad1)*%
X119380000Y-148590000D02*
X124460000Y-148590000D01*
X126160001Y-146889999D02*
X124460000Y-148590000D01*
X130276001Y-146889999D02*
X126160001Y-146889999D01*
X131976002Y-148590000D02*
X130276001Y-146889999D01*
X146050000Y-148590000D02*
X131976002Y-148590000D01*
%TO.N,Net-(C4-Pad2)*%
X123190000Y-121920000D02*
X118110000Y-127000000D01*
X128270000Y-121920000D02*
X123190000Y-121920000D01*
X118110000Y-137160000D02*
X118110000Y-134620000D01*
X118110000Y-134620000D02*
X116840000Y-134620000D01*
X115570000Y-133350000D02*
X115570000Y-129540000D01*
X116840000Y-134620000D02*
X115570000Y-133350000D01*
X115570000Y-129540000D02*
X113030000Y-132080000D01*
X118110000Y-127000000D02*
X115570000Y-129540000D01*
%TO.N,Net-(C4-Pad1)*%
X123110000Y-127000000D02*
X128270000Y-127000000D01*
X118030000Y-132080000D02*
X123110000Y-127000000D01*
X124460000Y-140970000D02*
X120650000Y-137160000D01*
X125730000Y-140970000D02*
X124460000Y-140970000D01*
X120650000Y-134700000D02*
X118030000Y-132080000D01*
X120650000Y-137160000D02*
X120650000Y-134700000D01*
%TO.N,Net-(C5-Pad1)*%
X130810000Y-130810000D02*
X125730000Y-130810000D01*
X130810000Y-123190000D02*
X132080000Y-121920000D01*
X130810000Y-130810000D02*
X130810000Y-123190000D01*
X145335001Y-123904999D02*
X146050000Y-123190000D01*
X134064999Y-123904999D02*
X145335001Y-123904999D01*
X132080000Y-121920000D02*
X134064999Y-123904999D01*
%TO.N,White*%
X109220000Y-148590000D02*
X106680000Y-146050000D01*
X106720000Y-134620000D02*
X109220000Y-134620000D01*
X106680000Y-134660000D02*
X106720000Y-134620000D01*
X106680000Y-146050000D02*
X106680000Y-134660000D01*
%TO.N,+12V*%
X143590000Y-143430000D02*
X146050000Y-140970000D01*
X137160000Y-143430000D02*
X143590000Y-143430000D01*
X111760000Y-142240000D02*
X109220000Y-139700000D01*
X118110000Y-142240000D02*
X111760000Y-142240000D01*
X120650000Y-144780000D02*
X118110000Y-142240000D01*
X135810000Y-144780000D02*
X137160000Y-143430000D01*
X120650000Y-144780000D02*
X135810000Y-144780000D01*
%TO.N,Net-(J2-Pad1)*%
X116840000Y-123190000D02*
X118110000Y-121920000D01*
X111760000Y-123190000D02*
X116840000Y-123190000D01*
%TO.N,-12V*%
X146050000Y-130810000D02*
X143510000Y-128270000D01*
X143510000Y-128270000D02*
X137160000Y-128270000D01*
X114300000Y-140970000D02*
X113030000Y-139700000D01*
X120019990Y-140970000D02*
X114300000Y-140970000D01*
X121519991Y-142470001D02*
X120019990Y-140970000D01*
X126450001Y-142470001D02*
X121519991Y-142470001D01*
X135459999Y-133460003D02*
X126450001Y-142470001D01*
X135459999Y-129970001D02*
X135459999Y-133460003D01*
X113030000Y-139700000D02*
X113030000Y-137160000D01*
X137160000Y-128270000D02*
X135459999Y-129970001D01*
%TD*%
D22*
%TO.N,GND*%
X151740000Y-153010000D02*
X106070000Y-153010000D01*
X106070000Y-147045131D01*
X107792150Y-148767282D01*
X107840147Y-149008574D01*
X107948320Y-149269727D01*
X108105363Y-149504759D01*
X108305241Y-149704637D01*
X108540273Y-149861680D01*
X108801426Y-149969853D01*
X109078665Y-150025000D01*
X109361335Y-150025000D01*
X109638574Y-149969853D01*
X109899727Y-149861680D01*
X110134759Y-149704637D01*
X110334637Y-149504759D01*
X110491680Y-149269727D01*
X110599853Y-149008574D01*
X110655000Y-148731335D01*
X110655000Y-148448665D01*
X110599853Y-148171426D01*
X110491680Y-147910273D01*
X110334637Y-147675241D01*
X110134759Y-147475363D01*
X109899727Y-147318320D01*
X109638574Y-147210147D01*
X109397282Y-147162150D01*
X107815000Y-145579869D01*
X107815000Y-141338072D01*
X109252941Y-141338072D01*
X110918009Y-143003141D01*
X110953551Y-143046449D01*
X111126377Y-143188284D01*
X111323553Y-143293676D01*
X111537501Y-143358577D01*
X111704248Y-143375000D01*
X111704257Y-143375000D01*
X111759999Y-143380490D01*
X111815741Y-143375000D01*
X111998404Y-143375000D01*
X111831068Y-143578899D01*
X111697818Y-143828192D01*
X111615764Y-144098691D01*
X111595000Y-144309508D01*
X111595000Y-145250491D01*
X111615764Y-145461308D01*
X111697818Y-145731807D01*
X111831068Y-145981100D01*
X112010392Y-146199607D01*
X112228899Y-146378932D01*
X112478192Y-146512182D01*
X112748691Y-146594236D01*
X113030000Y-146621943D01*
X113311308Y-146594236D01*
X113581807Y-146512182D01*
X113831100Y-146378932D01*
X114049607Y-146199608D01*
X114228932Y-145981101D01*
X114300000Y-145848142D01*
X114371068Y-145981100D01*
X114550392Y-146199607D01*
X114768899Y-146378932D01*
X115018192Y-146512182D01*
X115288691Y-146594236D01*
X115570000Y-146621943D01*
X115851308Y-146594236D01*
X116121807Y-146512182D01*
X116371100Y-146378932D01*
X116589607Y-146199608D01*
X116768932Y-145981101D01*
X116840000Y-145848142D01*
X116911068Y-145981100D01*
X117090392Y-146199607D01*
X117308899Y-146378932D01*
X117558192Y-146512182D01*
X117828691Y-146594236D01*
X118110000Y-146621943D01*
X118391308Y-146594236D01*
X118661807Y-146512182D01*
X118911100Y-146378932D01*
X119129607Y-146199608D01*
X119308932Y-145981101D01*
X119380000Y-145848142D01*
X119451068Y-145981100D01*
X119630392Y-146199607D01*
X119848899Y-146378932D01*
X120098192Y-146512182D01*
X120368691Y-146594236D01*
X120650000Y-146621943D01*
X120931308Y-146594236D01*
X121201807Y-146512182D01*
X121451100Y-146378932D01*
X121669607Y-146199608D01*
X121848932Y-145981101D01*
X121884264Y-145915000D01*
X125576359Y-145915000D01*
X125526378Y-145941715D01*
X125353552Y-146083550D01*
X125318010Y-146126859D01*
X124489869Y-146955000D01*
X124298967Y-146955000D01*
X123983088Y-147017832D01*
X123685537Y-147141082D01*
X123417748Y-147320013D01*
X123282761Y-147455000D01*
X120264284Y-147455000D01*
X120059727Y-147318320D01*
X119798574Y-147210147D01*
X119521335Y-147155000D01*
X119238665Y-147155000D01*
X118961426Y-147210147D01*
X118700273Y-147318320D01*
X118465241Y-147475363D01*
X118265363Y-147675241D01*
X118108320Y-147910273D01*
X118000147Y-148171426D01*
X117945000Y-148448665D01*
X117945000Y-148731335D01*
X118000147Y-149008574D01*
X118108320Y-149269727D01*
X118265363Y-149504759D01*
X118465241Y-149704637D01*
X118700273Y-149861680D01*
X118961426Y-149969853D01*
X119238665Y-150025000D01*
X119521335Y-150025000D01*
X119798574Y-149969853D01*
X120059727Y-149861680D01*
X120264284Y-149725000D01*
X123282761Y-149725000D01*
X123417748Y-149859987D01*
X123685537Y-150038918D01*
X123983088Y-150162168D01*
X124298967Y-150225000D01*
X124621033Y-150225000D01*
X124936912Y-150162168D01*
X125234463Y-150038918D01*
X125502252Y-149859987D01*
X125729987Y-149632252D01*
X125908918Y-149364463D01*
X126032168Y-149066912D01*
X126095000Y-148751033D01*
X126095000Y-148560131D01*
X126630133Y-148024999D01*
X129805870Y-148024999D01*
X131134011Y-149353140D01*
X131169553Y-149396449D01*
X131342379Y-149538284D01*
X131539555Y-149643676D01*
X131753503Y-149708577D01*
X131920250Y-149725000D01*
X131920259Y-149725000D01*
X131976001Y-149730490D01*
X132031743Y-149725000D01*
X144240640Y-149725000D01*
X144391637Y-149950983D01*
X144689017Y-150248363D01*
X145038698Y-150482012D01*
X145427244Y-150642953D01*
X145839721Y-150725000D01*
X146260279Y-150725000D01*
X146672756Y-150642953D01*
X147061302Y-150482012D01*
X147410983Y-150248363D01*
X147708363Y-149950983D01*
X147942012Y-149601302D01*
X148102953Y-149212756D01*
X148185000Y-148800279D01*
X148185000Y-148379721D01*
X148102953Y-147967244D01*
X147942012Y-147578698D01*
X147708363Y-147229017D01*
X147410983Y-146931637D01*
X147061302Y-146697988D01*
X146672756Y-146537047D01*
X146260279Y-146455000D01*
X145839721Y-146455000D01*
X145427244Y-146537047D01*
X145038698Y-146697988D01*
X144689017Y-146931637D01*
X144391637Y-147229017D01*
X144240640Y-147455000D01*
X132446134Y-147455000D01*
X131117997Y-146126864D01*
X131082450Y-146083550D01*
X130909624Y-145941715D01*
X130859643Y-145915000D01*
X135754249Y-145915000D01*
X135810000Y-145920491D01*
X135865751Y-145915000D01*
X135865752Y-145915000D01*
X136032499Y-145898577D01*
X136246447Y-145833676D01*
X136443623Y-145728284D01*
X136616449Y-145586449D01*
X136651996Y-145543135D01*
X137130131Y-145065000D01*
X137321033Y-145065000D01*
X137636912Y-145002168D01*
X137934463Y-144878918D01*
X138202252Y-144699987D01*
X138337239Y-144565000D01*
X143534249Y-144565000D01*
X143590000Y-144570491D01*
X143645751Y-144565000D01*
X143645752Y-144565000D01*
X143812499Y-144548577D01*
X144026447Y-144483676D01*
X144223623Y-144378284D01*
X144396449Y-144236449D01*
X144431996Y-144193135D01*
X145717060Y-142908072D01*
X147350000Y-142908072D01*
X147474482Y-142895812D01*
X147594180Y-142859502D01*
X147704494Y-142800537D01*
X147801185Y-142721185D01*
X147880537Y-142624494D01*
X147939502Y-142514180D01*
X147975812Y-142394482D01*
X147988072Y-142270000D01*
X147988072Y-139670000D01*
X147975812Y-139545518D01*
X147939502Y-139425820D01*
X147880537Y-139315506D01*
X147801185Y-139218815D01*
X147704494Y-139139463D01*
X147594180Y-139080498D01*
X147474482Y-139044188D01*
X147350000Y-139031928D01*
X144750000Y-139031928D01*
X144625518Y-139044188D01*
X144505820Y-139080498D01*
X144395506Y-139139463D01*
X144298815Y-139218815D01*
X144219463Y-139315506D01*
X144160498Y-139425820D01*
X144124188Y-139545518D01*
X144111928Y-139670000D01*
X144111928Y-141302940D01*
X143119869Y-142295000D01*
X138337239Y-142295000D01*
X138202252Y-142160013D01*
X137934463Y-141981082D01*
X137636912Y-141857832D01*
X137321033Y-141795000D01*
X136998967Y-141795000D01*
X136683088Y-141857832D01*
X136385537Y-141981082D01*
X136117748Y-142160013D01*
X135890013Y-142387748D01*
X135711082Y-142655537D01*
X135587832Y-142953088D01*
X135525000Y-143268967D01*
X135525000Y-143459869D01*
X135339869Y-143645000D01*
X121884264Y-143645000D01*
X121862884Y-143605001D01*
X126394250Y-143605001D01*
X126450001Y-143610492D01*
X126505752Y-143605001D01*
X126505753Y-143605001D01*
X126672500Y-143588578D01*
X126886448Y-143523677D01*
X127083624Y-143418285D01*
X127256450Y-143276450D01*
X127291997Y-143233136D01*
X136223140Y-134301994D01*
X136266448Y-134266452D01*
X136408283Y-134093626D01*
X136513675Y-133896450D01*
X136578576Y-133682502D01*
X136594999Y-133515755D01*
X136594999Y-133515746D01*
X136600489Y-133460004D01*
X136594999Y-133404262D01*
X136594999Y-130440132D01*
X137130132Y-129905000D01*
X137321033Y-129905000D01*
X137636912Y-129842168D01*
X137934463Y-129718918D01*
X138202252Y-129539987D01*
X138337239Y-129405000D01*
X143039869Y-129405000D01*
X144138109Y-130503241D01*
X144115000Y-130619419D01*
X144115000Y-131000581D01*
X144189361Y-131374419D01*
X144335225Y-131726566D01*
X144546987Y-132043491D01*
X144816509Y-132313013D01*
X145133434Y-132524775D01*
X145485581Y-132670639D01*
X145859419Y-132745000D01*
X146240581Y-132745000D01*
X146614419Y-132670639D01*
X146966566Y-132524775D01*
X147283491Y-132313013D01*
X147553013Y-132043491D01*
X147764775Y-131726566D01*
X147910639Y-131374419D01*
X147985000Y-131000581D01*
X147985000Y-130619419D01*
X147910639Y-130245581D01*
X147764775Y-129893434D01*
X147553013Y-129576509D01*
X147283491Y-129306987D01*
X146966566Y-129095225D01*
X146614419Y-128949361D01*
X146240581Y-128875000D01*
X145859419Y-128875000D01*
X145743241Y-128898109D01*
X144351996Y-127506865D01*
X144316449Y-127463551D01*
X144143623Y-127321716D01*
X143946447Y-127216324D01*
X143732499Y-127151423D01*
X143565752Y-127135000D01*
X143565751Y-127135000D01*
X143510000Y-127129509D01*
X143454249Y-127135000D01*
X138337239Y-127135000D01*
X138202252Y-127000013D01*
X137934463Y-126821082D01*
X137636912Y-126697832D01*
X137321033Y-126635000D01*
X136998967Y-126635000D01*
X136683088Y-126697832D01*
X136385537Y-126821082D01*
X136117748Y-127000013D01*
X135890013Y-127227748D01*
X135711082Y-127495537D01*
X135587832Y-127793088D01*
X135525000Y-128108967D01*
X135525000Y-128299868D01*
X134696864Y-129128005D01*
X134653550Y-129163552D01*
X134511715Y-129336378D01*
X134432678Y-129484248D01*
X134406323Y-129533555D01*
X134341422Y-129747503D01*
X134319508Y-129970001D01*
X134324999Y-130025753D01*
X134325000Y-132989870D01*
X127008392Y-140306478D01*
X127001680Y-140290273D01*
X126844637Y-140055241D01*
X126644759Y-139855363D01*
X126409727Y-139698320D01*
X126148574Y-139590147D01*
X125871335Y-139535000D01*
X125588665Y-139535000D01*
X125311426Y-139590147D01*
X125050273Y-139698320D01*
X124896320Y-139801188D01*
X122088072Y-136992941D01*
X122088072Y-135960000D01*
X122075812Y-135835518D01*
X122039502Y-135715820D01*
X121980537Y-135605506D01*
X121901185Y-135508815D01*
X121804494Y-135429463D01*
X121785000Y-135419043D01*
X121785000Y-134755752D01*
X121790491Y-134700000D01*
X121768577Y-134477501D01*
X121703676Y-134263553D01*
X121598284Y-134066377D01*
X121491989Y-133936856D01*
X121491987Y-133936854D01*
X121456449Y-133893551D01*
X121413146Y-133858013D01*
X119665000Y-132109868D01*
X119665000Y-132050131D01*
X123580132Y-128135000D01*
X127385716Y-128135000D01*
X127590273Y-128271680D01*
X127851426Y-128379853D01*
X128128665Y-128435000D01*
X128411335Y-128435000D01*
X128688574Y-128379853D01*
X128949727Y-128271680D01*
X129184759Y-128114637D01*
X129384637Y-127914759D01*
X129541680Y-127679727D01*
X129649853Y-127418574D01*
X129675000Y-127292151D01*
X129675000Y-129675000D01*
X126614284Y-129675000D01*
X126409727Y-129538320D01*
X126148574Y-129430147D01*
X125871335Y-129375000D01*
X125588665Y-129375000D01*
X125311426Y-129430147D01*
X125050273Y-129538320D01*
X124815241Y-129695363D01*
X124615363Y-129895241D01*
X124458320Y-130130273D01*
X124350147Y-130391426D01*
X124295000Y-130668665D01*
X124295000Y-130951335D01*
X124350147Y-131228574D01*
X124458320Y-131489727D01*
X124615363Y-131724759D01*
X124815241Y-131924637D01*
X125050273Y-132081680D01*
X125311426Y-132189853D01*
X125588665Y-132245000D01*
X125871335Y-132245000D01*
X126148574Y-132189853D01*
X126409727Y-132081680D01*
X126614284Y-131945000D01*
X129925716Y-131945000D01*
X130130273Y-132081680D01*
X130391426Y-132189853D01*
X130668665Y-132245000D01*
X130951335Y-132245000D01*
X131228574Y-132189853D01*
X131489727Y-132081680D01*
X131724759Y-131924637D01*
X131924637Y-131724759D01*
X132081680Y-131489727D01*
X132189853Y-131228574D01*
X132245000Y-130951335D01*
X132245000Y-130668665D01*
X132189853Y-130391426D01*
X132081680Y-130130273D01*
X131945000Y-129925716D01*
X131945000Y-123660131D01*
X132050131Y-123555000D01*
X132109868Y-123555000D01*
X133223012Y-124668145D01*
X133258550Y-124711448D01*
X133301853Y-124746986D01*
X133301855Y-124746988D01*
X133431376Y-124853283D01*
X133628552Y-124958675D01*
X133842500Y-125023576D01*
X134064999Y-125045490D01*
X134120751Y-125039999D01*
X144975821Y-125039999D01*
X145038698Y-125082012D01*
X145427244Y-125242953D01*
X145839721Y-125325000D01*
X146260279Y-125325000D01*
X146672756Y-125242953D01*
X147061302Y-125082012D01*
X147410983Y-124848363D01*
X147708363Y-124550983D01*
X147942012Y-124201302D01*
X148102953Y-123812756D01*
X148185000Y-123400279D01*
X148185000Y-122979721D01*
X148102953Y-122567244D01*
X147942012Y-122178698D01*
X147708363Y-121829017D01*
X147410983Y-121531637D01*
X147061302Y-121297988D01*
X146672756Y-121137047D01*
X146260279Y-121055000D01*
X145839721Y-121055000D01*
X145427244Y-121137047D01*
X145038698Y-121297988D01*
X144689017Y-121531637D01*
X144391637Y-121829017D01*
X144157988Y-122178698D01*
X143997047Y-122567244D01*
X143956716Y-122769999D01*
X134535132Y-122769999D01*
X133715000Y-121949868D01*
X133715000Y-121758967D01*
X133652168Y-121443088D01*
X133528918Y-121145537D01*
X133349987Y-120877748D01*
X133122252Y-120650013D01*
X132854463Y-120471082D01*
X132556912Y-120347832D01*
X132241033Y-120285000D01*
X131918967Y-120285000D01*
X131603088Y-120347832D01*
X131305537Y-120471082D01*
X131037748Y-120650013D01*
X130810013Y-120877748D01*
X130631082Y-121145537D01*
X130507832Y-121443088D01*
X130445000Y-121758967D01*
X130445000Y-121949869D01*
X130046860Y-122348009D01*
X130003552Y-122383551D01*
X129861717Y-122556377D01*
X129855909Y-122567244D01*
X129756324Y-122753554D01*
X129691423Y-122967502D01*
X129669509Y-123190000D01*
X129675001Y-123245761D01*
X129675001Y-126707850D01*
X129649853Y-126581426D01*
X129541680Y-126320273D01*
X129384637Y-126085241D01*
X129184759Y-125885363D01*
X128949727Y-125728320D01*
X128688574Y-125620147D01*
X128411335Y-125565000D01*
X128128665Y-125565000D01*
X127851426Y-125620147D01*
X127590273Y-125728320D01*
X127385716Y-125865000D01*
X123165751Y-125865000D01*
X123110000Y-125859509D01*
X123054248Y-125865000D01*
X122887501Y-125881423D01*
X122673553Y-125946324D01*
X122476377Y-126051716D01*
X122303551Y-126193551D01*
X122268011Y-126236857D01*
X118059869Y-130445000D01*
X117868967Y-130445000D01*
X117553088Y-130507832D01*
X117255537Y-130631082D01*
X116987748Y-130810013D01*
X116760013Y-131037748D01*
X116705000Y-131120081D01*
X116705000Y-130010131D01*
X118287282Y-128427850D01*
X118528574Y-128379853D01*
X118789727Y-128271680D01*
X119024759Y-128114637D01*
X119224637Y-127914759D01*
X119381680Y-127679727D01*
X119489853Y-127418574D01*
X119537850Y-127177281D01*
X123660132Y-123055000D01*
X127385716Y-123055000D01*
X127590273Y-123191680D01*
X127851426Y-123299853D01*
X128128665Y-123355000D01*
X128411335Y-123355000D01*
X128688574Y-123299853D01*
X128949727Y-123191680D01*
X129184759Y-123034637D01*
X129384637Y-122834759D01*
X129541680Y-122599727D01*
X129649853Y-122338574D01*
X129705000Y-122061335D01*
X129705000Y-121778665D01*
X129649853Y-121501426D01*
X129541680Y-121240273D01*
X129384637Y-121005241D01*
X129184759Y-120805363D01*
X128949727Y-120648320D01*
X128688574Y-120540147D01*
X128411335Y-120485000D01*
X128128665Y-120485000D01*
X127851426Y-120540147D01*
X127590273Y-120648320D01*
X127385716Y-120785000D01*
X123245751Y-120785000D01*
X123190000Y-120779509D01*
X123134248Y-120785000D01*
X122967501Y-120801423D01*
X122753553Y-120866324D01*
X122556377Y-120971716D01*
X122383551Y-121113551D01*
X122348009Y-121156859D01*
X117932719Y-125572150D01*
X117691426Y-125620147D01*
X117430273Y-125728320D01*
X117195241Y-125885363D01*
X116995363Y-126085241D01*
X116838320Y-126320273D01*
X116730147Y-126581426D01*
X116682150Y-126822718D01*
X114806861Y-128698008D01*
X114806856Y-128698012D01*
X114763552Y-128733551D01*
X114728014Y-128776854D01*
X113059869Y-130445000D01*
X112868967Y-130445000D01*
X112553088Y-130507832D01*
X112255537Y-130631082D01*
X111987748Y-130810013D01*
X111760013Y-131037748D01*
X111581082Y-131305537D01*
X111457832Y-131603088D01*
X111395000Y-131918967D01*
X111395000Y-132241033D01*
X111457832Y-132556912D01*
X111581082Y-132854463D01*
X111760013Y-133122252D01*
X111987748Y-133349987D01*
X112255537Y-133528918D01*
X112553088Y-133652168D01*
X112868967Y-133715000D01*
X113191033Y-133715000D01*
X113506912Y-133652168D01*
X113804463Y-133528918D01*
X114072252Y-133349987D01*
X114299987Y-133122252D01*
X114435000Y-132920191D01*
X114435000Y-133294248D01*
X114429509Y-133350000D01*
X114435000Y-133405751D01*
X114451423Y-133572498D01*
X114516324Y-133786446D01*
X114621716Y-133983623D01*
X114763551Y-134156449D01*
X114806865Y-134191996D01*
X115998008Y-135383140D01*
X116033551Y-135426449D01*
X116206377Y-135568284D01*
X116403553Y-135673676D01*
X116542482Y-135715820D01*
X116617500Y-135738577D01*
X116635929Y-135740392D01*
X116784248Y-135755000D01*
X116784255Y-135755000D01*
X116839999Y-135760490D01*
X116895743Y-135755000D01*
X116975001Y-135755000D01*
X116975001Y-135880997D01*
X116911068Y-135958899D01*
X116777818Y-136208192D01*
X116695764Y-136478691D01*
X116675000Y-136689508D01*
X116675000Y-137630491D01*
X116695764Y-137841308D01*
X116777818Y-138111807D01*
X116911068Y-138361100D01*
X117090392Y-138579607D01*
X117308899Y-138758932D01*
X117558192Y-138892182D01*
X117828691Y-138974236D01*
X118110000Y-139001943D01*
X118391308Y-138974236D01*
X118661807Y-138892182D01*
X118911100Y-138758932D01*
X119129607Y-138579608D01*
X119222419Y-138466517D01*
X119224188Y-138484482D01*
X119260498Y-138604180D01*
X119319463Y-138714494D01*
X119398815Y-138811185D01*
X119495506Y-138890537D01*
X119605820Y-138949502D01*
X119725518Y-138985812D01*
X119850000Y-138998072D01*
X120882940Y-138998072D01*
X123219868Y-141335001D01*
X121990123Y-141335001D01*
X120861986Y-140206865D01*
X120826439Y-140163551D01*
X120653613Y-140021716D01*
X120456437Y-139916324D01*
X120242489Y-139851423D01*
X120075742Y-139835000D01*
X120075741Y-139835000D01*
X120019990Y-139829509D01*
X119964239Y-139835000D01*
X114770132Y-139835000D01*
X114165000Y-139229869D01*
X114165000Y-138439002D01*
X114228932Y-138361101D01*
X114362182Y-138111808D01*
X114444236Y-137841309D01*
X114465000Y-137630492D01*
X114465000Y-136689509D01*
X114444236Y-136478691D01*
X114362182Y-136208192D01*
X114228932Y-135958899D01*
X114049608Y-135740392D01*
X113831101Y-135561068D01*
X113581808Y-135427818D01*
X113311309Y-135345764D01*
X113030000Y-135318057D01*
X112748692Y-135345764D01*
X112478193Y-135427818D01*
X112228900Y-135561068D01*
X112010393Y-135740392D01*
X111831068Y-135958899D01*
X111697818Y-136208192D01*
X111615764Y-136478691D01*
X111595000Y-136689508D01*
X111595000Y-137630491D01*
X111615764Y-137841308D01*
X111697818Y-138111807D01*
X111831068Y-138361100D01*
X111895000Y-138439002D01*
X111895000Y-139644248D01*
X111889509Y-139700000D01*
X111895000Y-139755751D01*
X111911423Y-139922498D01*
X111976324Y-140136446D01*
X112081716Y-140333623D01*
X112223551Y-140506449D01*
X112266865Y-140541996D01*
X112829869Y-141105000D01*
X112230132Y-141105000D01*
X111358072Y-140232940D01*
X111358072Y-138700000D01*
X111345812Y-138575518D01*
X111309502Y-138455820D01*
X111250537Y-138345506D01*
X111171185Y-138248815D01*
X111074494Y-138169463D01*
X110964180Y-138110498D01*
X110844482Y-138074188D01*
X110720000Y-138061928D01*
X107815000Y-138061928D01*
X107815000Y-135990175D01*
X108091285Y-136137852D01*
X108399484Y-136231343D01*
X108639678Y-136255000D01*
X109800322Y-136255000D01*
X110040516Y-136231343D01*
X110348715Y-136137852D01*
X110632752Y-135986031D01*
X110881714Y-135781714D01*
X111086031Y-135532752D01*
X111237852Y-135248715D01*
X111331343Y-134940516D01*
X111362911Y-134620000D01*
X111331343Y-134299484D01*
X111237852Y-133991285D01*
X111086031Y-133707248D01*
X110881714Y-133458286D01*
X110749767Y-133350000D01*
X110881714Y-133241714D01*
X111086031Y-132992752D01*
X111237852Y-132708715D01*
X111331343Y-132400516D01*
X111362911Y-132080000D01*
X111331343Y-131759484D01*
X111237852Y-131451285D01*
X111086031Y-131167248D01*
X110881714Y-130918286D01*
X110632752Y-130713969D01*
X110348715Y-130562148D01*
X110040516Y-130468657D01*
X109800322Y-130445000D01*
X108639678Y-130445000D01*
X108399484Y-130468657D01*
X108091285Y-130562148D01*
X107807248Y-130713969D01*
X107558286Y-130918286D01*
X107353969Y-131167248D01*
X107202148Y-131451285D01*
X107108657Y-131759484D01*
X107077089Y-132080000D01*
X107108657Y-132400516D01*
X107202148Y-132708715D01*
X107353969Y-132992752D01*
X107558286Y-133241714D01*
X107690233Y-133350000D01*
X107558286Y-133458286D01*
X107536362Y-133485000D01*
X106775752Y-133485000D01*
X106720000Y-133479509D01*
X106664249Y-133485000D01*
X106664248Y-133485000D01*
X106497501Y-133501423D01*
X106283553Y-133566324D01*
X106086377Y-133671716D01*
X106070000Y-133685156D01*
X106070000Y-122979721D01*
X109625000Y-122979721D01*
X109625000Y-123400279D01*
X109707047Y-123812756D01*
X109867988Y-124201302D01*
X110101637Y-124550983D01*
X110399017Y-124848363D01*
X110748698Y-125082012D01*
X111137244Y-125242953D01*
X111549721Y-125325000D01*
X111970279Y-125325000D01*
X112382756Y-125242953D01*
X112771302Y-125082012D01*
X113120983Y-124848363D01*
X113418363Y-124550983D01*
X113569360Y-124325000D01*
X116784249Y-124325000D01*
X116840000Y-124330491D01*
X116895751Y-124325000D01*
X116895752Y-124325000D01*
X117062499Y-124308577D01*
X117276447Y-124243676D01*
X117473623Y-124138284D01*
X117646449Y-123996449D01*
X117681996Y-123953135D01*
X118287282Y-123347850D01*
X118528574Y-123299853D01*
X118789727Y-123191680D01*
X119024759Y-123034637D01*
X119224637Y-122834759D01*
X119381680Y-122599727D01*
X119489853Y-122338574D01*
X119545000Y-122061335D01*
X119545000Y-121778665D01*
X119489853Y-121501426D01*
X119381680Y-121240273D01*
X119224637Y-121005241D01*
X119024759Y-120805363D01*
X118789727Y-120648320D01*
X118528574Y-120540147D01*
X118251335Y-120485000D01*
X117968665Y-120485000D01*
X117691426Y-120540147D01*
X117430273Y-120648320D01*
X117195241Y-120805363D01*
X116995363Y-121005241D01*
X116838320Y-121240273D01*
X116730147Y-121501426D01*
X116682150Y-121742718D01*
X116369869Y-122055000D01*
X113569360Y-122055000D01*
X113418363Y-121829017D01*
X113120983Y-121531637D01*
X112771302Y-121297988D01*
X112382756Y-121137047D01*
X111970279Y-121055000D01*
X111549721Y-121055000D01*
X111137244Y-121137047D01*
X110748698Y-121297988D01*
X110399017Y-121531637D01*
X110101637Y-121829017D01*
X109867988Y-122178698D01*
X109707047Y-122567244D01*
X109625000Y-122979721D01*
X106070000Y-122979721D01*
X106070000Y-118770000D01*
X151740001Y-118770000D01*
X151740000Y-153010000D01*
%TA.AperFunction,Conductor*%
D23*
G36*
X151740000Y-153010000D02*
G01*
X106070000Y-153010000D01*
X106070000Y-147045131D01*
X107792150Y-148767282D01*
X107840147Y-149008574D01*
X107948320Y-149269727D01*
X108105363Y-149504759D01*
X108305241Y-149704637D01*
X108540273Y-149861680D01*
X108801426Y-149969853D01*
X109078665Y-150025000D01*
X109361335Y-150025000D01*
X109638574Y-149969853D01*
X109899727Y-149861680D01*
X110134759Y-149704637D01*
X110334637Y-149504759D01*
X110491680Y-149269727D01*
X110599853Y-149008574D01*
X110655000Y-148731335D01*
X110655000Y-148448665D01*
X110599853Y-148171426D01*
X110491680Y-147910273D01*
X110334637Y-147675241D01*
X110134759Y-147475363D01*
X109899727Y-147318320D01*
X109638574Y-147210147D01*
X109397282Y-147162150D01*
X107815000Y-145579869D01*
X107815000Y-141338072D01*
X109252941Y-141338072D01*
X110918009Y-143003141D01*
X110953551Y-143046449D01*
X111126377Y-143188284D01*
X111323553Y-143293676D01*
X111537501Y-143358577D01*
X111704248Y-143375000D01*
X111704257Y-143375000D01*
X111759999Y-143380490D01*
X111815741Y-143375000D01*
X111998404Y-143375000D01*
X111831068Y-143578899D01*
X111697818Y-143828192D01*
X111615764Y-144098691D01*
X111595000Y-144309508D01*
X111595000Y-145250491D01*
X111615764Y-145461308D01*
X111697818Y-145731807D01*
X111831068Y-145981100D01*
X112010392Y-146199607D01*
X112228899Y-146378932D01*
X112478192Y-146512182D01*
X112748691Y-146594236D01*
X113030000Y-146621943D01*
X113311308Y-146594236D01*
X113581807Y-146512182D01*
X113831100Y-146378932D01*
X114049607Y-146199608D01*
X114228932Y-145981101D01*
X114300000Y-145848142D01*
X114371068Y-145981100D01*
X114550392Y-146199607D01*
X114768899Y-146378932D01*
X115018192Y-146512182D01*
X115288691Y-146594236D01*
X115570000Y-146621943D01*
X115851308Y-146594236D01*
X116121807Y-146512182D01*
X116371100Y-146378932D01*
X116589607Y-146199608D01*
X116768932Y-145981101D01*
X116840000Y-145848142D01*
X116911068Y-145981100D01*
X117090392Y-146199607D01*
X117308899Y-146378932D01*
X117558192Y-146512182D01*
X117828691Y-146594236D01*
X118110000Y-146621943D01*
X118391308Y-146594236D01*
X118661807Y-146512182D01*
X118911100Y-146378932D01*
X119129607Y-146199608D01*
X119308932Y-145981101D01*
X119380000Y-145848142D01*
X119451068Y-145981100D01*
X119630392Y-146199607D01*
X119848899Y-146378932D01*
X120098192Y-146512182D01*
X120368691Y-146594236D01*
X120650000Y-146621943D01*
X120931308Y-146594236D01*
X121201807Y-146512182D01*
X121451100Y-146378932D01*
X121669607Y-146199608D01*
X121848932Y-145981101D01*
X121884264Y-145915000D01*
X125576359Y-145915000D01*
X125526378Y-145941715D01*
X125353552Y-146083550D01*
X125318010Y-146126859D01*
X124489869Y-146955000D01*
X124298967Y-146955000D01*
X123983088Y-147017832D01*
X123685537Y-147141082D01*
X123417748Y-147320013D01*
X123282761Y-147455000D01*
X120264284Y-147455000D01*
X120059727Y-147318320D01*
X119798574Y-147210147D01*
X119521335Y-147155000D01*
X119238665Y-147155000D01*
X118961426Y-147210147D01*
X118700273Y-147318320D01*
X118465241Y-147475363D01*
X118265363Y-147675241D01*
X118108320Y-147910273D01*
X118000147Y-148171426D01*
X117945000Y-148448665D01*
X117945000Y-148731335D01*
X118000147Y-149008574D01*
X118108320Y-149269727D01*
X118265363Y-149504759D01*
X118465241Y-149704637D01*
X118700273Y-149861680D01*
X118961426Y-149969853D01*
X119238665Y-150025000D01*
X119521335Y-150025000D01*
X119798574Y-149969853D01*
X120059727Y-149861680D01*
X120264284Y-149725000D01*
X123282761Y-149725000D01*
X123417748Y-149859987D01*
X123685537Y-150038918D01*
X123983088Y-150162168D01*
X124298967Y-150225000D01*
X124621033Y-150225000D01*
X124936912Y-150162168D01*
X125234463Y-150038918D01*
X125502252Y-149859987D01*
X125729987Y-149632252D01*
X125908918Y-149364463D01*
X126032168Y-149066912D01*
X126095000Y-148751033D01*
X126095000Y-148560131D01*
X126630133Y-148024999D01*
X129805870Y-148024999D01*
X131134011Y-149353140D01*
X131169553Y-149396449D01*
X131342379Y-149538284D01*
X131539555Y-149643676D01*
X131753503Y-149708577D01*
X131920250Y-149725000D01*
X131920259Y-149725000D01*
X131976001Y-149730490D01*
X132031743Y-149725000D01*
X144240640Y-149725000D01*
X144391637Y-149950983D01*
X144689017Y-150248363D01*
X145038698Y-150482012D01*
X145427244Y-150642953D01*
X145839721Y-150725000D01*
X146260279Y-150725000D01*
X146672756Y-150642953D01*
X147061302Y-150482012D01*
X147410983Y-150248363D01*
X147708363Y-149950983D01*
X147942012Y-149601302D01*
X148102953Y-149212756D01*
X148185000Y-148800279D01*
X148185000Y-148379721D01*
X148102953Y-147967244D01*
X147942012Y-147578698D01*
X147708363Y-147229017D01*
X147410983Y-146931637D01*
X147061302Y-146697988D01*
X146672756Y-146537047D01*
X146260279Y-146455000D01*
X145839721Y-146455000D01*
X145427244Y-146537047D01*
X145038698Y-146697988D01*
X144689017Y-146931637D01*
X144391637Y-147229017D01*
X144240640Y-147455000D01*
X132446134Y-147455000D01*
X131117997Y-146126864D01*
X131082450Y-146083550D01*
X130909624Y-145941715D01*
X130859643Y-145915000D01*
X135754249Y-145915000D01*
X135810000Y-145920491D01*
X135865751Y-145915000D01*
X135865752Y-145915000D01*
X136032499Y-145898577D01*
X136246447Y-145833676D01*
X136443623Y-145728284D01*
X136616449Y-145586449D01*
X136651996Y-145543135D01*
X137130131Y-145065000D01*
X137321033Y-145065000D01*
X137636912Y-145002168D01*
X137934463Y-144878918D01*
X138202252Y-144699987D01*
X138337239Y-144565000D01*
X143534249Y-144565000D01*
X143590000Y-144570491D01*
X143645751Y-144565000D01*
X143645752Y-144565000D01*
X143812499Y-144548577D01*
X144026447Y-144483676D01*
X144223623Y-144378284D01*
X144396449Y-144236449D01*
X144431996Y-144193135D01*
X145717060Y-142908072D01*
X147350000Y-142908072D01*
X147474482Y-142895812D01*
X147594180Y-142859502D01*
X147704494Y-142800537D01*
X147801185Y-142721185D01*
X147880537Y-142624494D01*
X147939502Y-142514180D01*
X147975812Y-142394482D01*
X147988072Y-142270000D01*
X147988072Y-139670000D01*
X147975812Y-139545518D01*
X147939502Y-139425820D01*
X147880537Y-139315506D01*
X147801185Y-139218815D01*
X147704494Y-139139463D01*
X147594180Y-139080498D01*
X147474482Y-139044188D01*
X147350000Y-139031928D01*
X144750000Y-139031928D01*
X144625518Y-139044188D01*
X144505820Y-139080498D01*
X144395506Y-139139463D01*
X144298815Y-139218815D01*
X144219463Y-139315506D01*
X144160498Y-139425820D01*
X144124188Y-139545518D01*
X144111928Y-139670000D01*
X144111928Y-141302940D01*
X143119869Y-142295000D01*
X138337239Y-142295000D01*
X138202252Y-142160013D01*
X137934463Y-141981082D01*
X137636912Y-141857832D01*
X137321033Y-141795000D01*
X136998967Y-141795000D01*
X136683088Y-141857832D01*
X136385537Y-141981082D01*
X136117748Y-142160013D01*
X135890013Y-142387748D01*
X135711082Y-142655537D01*
X135587832Y-142953088D01*
X135525000Y-143268967D01*
X135525000Y-143459869D01*
X135339869Y-143645000D01*
X121884264Y-143645000D01*
X121862884Y-143605001D01*
X126394250Y-143605001D01*
X126450001Y-143610492D01*
X126505752Y-143605001D01*
X126505753Y-143605001D01*
X126672500Y-143588578D01*
X126886448Y-143523677D01*
X127083624Y-143418285D01*
X127256450Y-143276450D01*
X127291997Y-143233136D01*
X136223140Y-134301994D01*
X136266448Y-134266452D01*
X136408283Y-134093626D01*
X136513675Y-133896450D01*
X136578576Y-133682502D01*
X136594999Y-133515755D01*
X136594999Y-133515746D01*
X136600489Y-133460004D01*
X136594999Y-133404262D01*
X136594999Y-130440132D01*
X137130132Y-129905000D01*
X137321033Y-129905000D01*
X137636912Y-129842168D01*
X137934463Y-129718918D01*
X138202252Y-129539987D01*
X138337239Y-129405000D01*
X143039869Y-129405000D01*
X144138109Y-130503241D01*
X144115000Y-130619419D01*
X144115000Y-131000581D01*
X144189361Y-131374419D01*
X144335225Y-131726566D01*
X144546987Y-132043491D01*
X144816509Y-132313013D01*
X145133434Y-132524775D01*
X145485581Y-132670639D01*
X145859419Y-132745000D01*
X146240581Y-132745000D01*
X146614419Y-132670639D01*
X146966566Y-132524775D01*
X147283491Y-132313013D01*
X147553013Y-132043491D01*
X147764775Y-131726566D01*
X147910639Y-131374419D01*
X147985000Y-131000581D01*
X147985000Y-130619419D01*
X147910639Y-130245581D01*
X147764775Y-129893434D01*
X147553013Y-129576509D01*
X147283491Y-129306987D01*
X146966566Y-129095225D01*
X146614419Y-128949361D01*
X146240581Y-128875000D01*
X145859419Y-128875000D01*
X145743241Y-128898109D01*
X144351996Y-127506865D01*
X144316449Y-127463551D01*
X144143623Y-127321716D01*
X143946447Y-127216324D01*
X143732499Y-127151423D01*
X143565752Y-127135000D01*
X143565751Y-127135000D01*
X143510000Y-127129509D01*
X143454249Y-127135000D01*
X138337239Y-127135000D01*
X138202252Y-127000013D01*
X137934463Y-126821082D01*
X137636912Y-126697832D01*
X137321033Y-126635000D01*
X136998967Y-126635000D01*
X136683088Y-126697832D01*
X136385537Y-126821082D01*
X136117748Y-127000013D01*
X135890013Y-127227748D01*
X135711082Y-127495537D01*
X135587832Y-127793088D01*
X135525000Y-128108967D01*
X135525000Y-128299868D01*
X134696864Y-129128005D01*
X134653550Y-129163552D01*
X134511715Y-129336378D01*
X134432678Y-129484248D01*
X134406323Y-129533555D01*
X134341422Y-129747503D01*
X134319508Y-129970001D01*
X134324999Y-130025753D01*
X134325000Y-132989870D01*
X127008392Y-140306478D01*
X127001680Y-140290273D01*
X126844637Y-140055241D01*
X126644759Y-139855363D01*
X126409727Y-139698320D01*
X126148574Y-139590147D01*
X125871335Y-139535000D01*
X125588665Y-139535000D01*
X125311426Y-139590147D01*
X125050273Y-139698320D01*
X124896320Y-139801188D01*
X122088072Y-136992941D01*
X122088072Y-135960000D01*
X122075812Y-135835518D01*
X122039502Y-135715820D01*
X121980537Y-135605506D01*
X121901185Y-135508815D01*
X121804494Y-135429463D01*
X121785000Y-135419043D01*
X121785000Y-134755752D01*
X121790491Y-134700000D01*
X121768577Y-134477501D01*
X121703676Y-134263553D01*
X121598284Y-134066377D01*
X121491989Y-133936856D01*
X121491987Y-133936854D01*
X121456449Y-133893551D01*
X121413146Y-133858013D01*
X119665000Y-132109868D01*
X119665000Y-132050131D01*
X123580132Y-128135000D01*
X127385716Y-128135000D01*
X127590273Y-128271680D01*
X127851426Y-128379853D01*
X128128665Y-128435000D01*
X128411335Y-128435000D01*
X128688574Y-128379853D01*
X128949727Y-128271680D01*
X129184759Y-128114637D01*
X129384637Y-127914759D01*
X129541680Y-127679727D01*
X129649853Y-127418574D01*
X129675000Y-127292151D01*
X129675000Y-129675000D01*
X126614284Y-129675000D01*
X126409727Y-129538320D01*
X126148574Y-129430147D01*
X125871335Y-129375000D01*
X125588665Y-129375000D01*
X125311426Y-129430147D01*
X125050273Y-129538320D01*
X124815241Y-129695363D01*
X124615363Y-129895241D01*
X124458320Y-130130273D01*
X124350147Y-130391426D01*
X124295000Y-130668665D01*
X124295000Y-130951335D01*
X124350147Y-131228574D01*
X124458320Y-131489727D01*
X124615363Y-131724759D01*
X124815241Y-131924637D01*
X125050273Y-132081680D01*
X125311426Y-132189853D01*
X125588665Y-132245000D01*
X125871335Y-132245000D01*
X126148574Y-132189853D01*
X126409727Y-132081680D01*
X126614284Y-131945000D01*
X129925716Y-131945000D01*
X130130273Y-132081680D01*
X130391426Y-132189853D01*
X130668665Y-132245000D01*
X130951335Y-132245000D01*
X131228574Y-132189853D01*
X131489727Y-132081680D01*
X131724759Y-131924637D01*
X131924637Y-131724759D01*
X132081680Y-131489727D01*
X132189853Y-131228574D01*
X132245000Y-130951335D01*
X132245000Y-130668665D01*
X132189853Y-130391426D01*
X132081680Y-130130273D01*
X131945000Y-129925716D01*
X131945000Y-123660131D01*
X132050131Y-123555000D01*
X132109868Y-123555000D01*
X133223012Y-124668145D01*
X133258550Y-124711448D01*
X133301853Y-124746986D01*
X133301855Y-124746988D01*
X133431376Y-124853283D01*
X133628552Y-124958675D01*
X133842500Y-125023576D01*
X134064999Y-125045490D01*
X134120751Y-125039999D01*
X144975821Y-125039999D01*
X145038698Y-125082012D01*
X145427244Y-125242953D01*
X145839721Y-125325000D01*
X146260279Y-125325000D01*
X146672756Y-125242953D01*
X147061302Y-125082012D01*
X147410983Y-124848363D01*
X147708363Y-124550983D01*
X147942012Y-124201302D01*
X148102953Y-123812756D01*
X148185000Y-123400279D01*
X148185000Y-122979721D01*
X148102953Y-122567244D01*
X147942012Y-122178698D01*
X147708363Y-121829017D01*
X147410983Y-121531637D01*
X147061302Y-121297988D01*
X146672756Y-121137047D01*
X146260279Y-121055000D01*
X145839721Y-121055000D01*
X145427244Y-121137047D01*
X145038698Y-121297988D01*
X144689017Y-121531637D01*
X144391637Y-121829017D01*
X144157988Y-122178698D01*
X143997047Y-122567244D01*
X143956716Y-122769999D01*
X134535132Y-122769999D01*
X133715000Y-121949868D01*
X133715000Y-121758967D01*
X133652168Y-121443088D01*
X133528918Y-121145537D01*
X133349987Y-120877748D01*
X133122252Y-120650013D01*
X132854463Y-120471082D01*
X132556912Y-120347832D01*
X132241033Y-120285000D01*
X131918967Y-120285000D01*
X131603088Y-120347832D01*
X131305537Y-120471082D01*
X131037748Y-120650013D01*
X130810013Y-120877748D01*
X130631082Y-121145537D01*
X130507832Y-121443088D01*
X130445000Y-121758967D01*
X130445000Y-121949869D01*
X130046860Y-122348009D01*
X130003552Y-122383551D01*
X129861717Y-122556377D01*
X129855909Y-122567244D01*
X129756324Y-122753554D01*
X129691423Y-122967502D01*
X129669509Y-123190000D01*
X129675001Y-123245761D01*
X129675001Y-126707850D01*
X129649853Y-126581426D01*
X129541680Y-126320273D01*
X129384637Y-126085241D01*
X129184759Y-125885363D01*
X128949727Y-125728320D01*
X128688574Y-125620147D01*
X128411335Y-125565000D01*
X128128665Y-125565000D01*
X127851426Y-125620147D01*
X127590273Y-125728320D01*
X127385716Y-125865000D01*
X123165751Y-125865000D01*
X123110000Y-125859509D01*
X123054248Y-125865000D01*
X122887501Y-125881423D01*
X122673553Y-125946324D01*
X122476377Y-126051716D01*
X122303551Y-126193551D01*
X122268011Y-126236857D01*
X118059869Y-130445000D01*
X117868967Y-130445000D01*
X117553088Y-130507832D01*
X117255537Y-130631082D01*
X116987748Y-130810013D01*
X116760013Y-131037748D01*
X116705000Y-131120081D01*
X116705000Y-130010131D01*
X118287282Y-128427850D01*
X118528574Y-128379853D01*
X118789727Y-128271680D01*
X119024759Y-128114637D01*
X119224637Y-127914759D01*
X119381680Y-127679727D01*
X119489853Y-127418574D01*
X119537850Y-127177281D01*
X123660132Y-123055000D01*
X127385716Y-123055000D01*
X127590273Y-123191680D01*
X127851426Y-123299853D01*
X128128665Y-123355000D01*
X128411335Y-123355000D01*
X128688574Y-123299853D01*
X128949727Y-123191680D01*
X129184759Y-123034637D01*
X129384637Y-122834759D01*
X129541680Y-122599727D01*
X129649853Y-122338574D01*
X129705000Y-122061335D01*
X129705000Y-121778665D01*
X129649853Y-121501426D01*
X129541680Y-121240273D01*
X129384637Y-121005241D01*
X129184759Y-120805363D01*
X128949727Y-120648320D01*
X128688574Y-120540147D01*
X128411335Y-120485000D01*
X128128665Y-120485000D01*
X127851426Y-120540147D01*
X127590273Y-120648320D01*
X127385716Y-120785000D01*
X123245751Y-120785000D01*
X123190000Y-120779509D01*
X123134248Y-120785000D01*
X122967501Y-120801423D01*
X122753553Y-120866324D01*
X122556377Y-120971716D01*
X122383551Y-121113551D01*
X122348009Y-121156859D01*
X117932719Y-125572150D01*
X117691426Y-125620147D01*
X117430273Y-125728320D01*
X117195241Y-125885363D01*
X116995363Y-126085241D01*
X116838320Y-126320273D01*
X116730147Y-126581426D01*
X116682150Y-126822718D01*
X114806861Y-128698008D01*
X114806856Y-128698012D01*
X114763552Y-128733551D01*
X114728014Y-128776854D01*
X113059869Y-130445000D01*
X112868967Y-130445000D01*
X112553088Y-130507832D01*
X112255537Y-130631082D01*
X111987748Y-130810013D01*
X111760013Y-131037748D01*
X111581082Y-131305537D01*
X111457832Y-131603088D01*
X111395000Y-131918967D01*
X111395000Y-132241033D01*
X111457832Y-132556912D01*
X111581082Y-132854463D01*
X111760013Y-133122252D01*
X111987748Y-133349987D01*
X112255537Y-133528918D01*
X112553088Y-133652168D01*
X112868967Y-133715000D01*
X113191033Y-133715000D01*
X113506912Y-133652168D01*
X113804463Y-133528918D01*
X114072252Y-133349987D01*
X114299987Y-133122252D01*
X114435000Y-132920191D01*
X114435000Y-133294248D01*
X114429509Y-133350000D01*
X114435000Y-133405751D01*
X114451423Y-133572498D01*
X114516324Y-133786446D01*
X114621716Y-133983623D01*
X114763551Y-134156449D01*
X114806865Y-134191996D01*
X115998008Y-135383140D01*
X116033551Y-135426449D01*
X116206377Y-135568284D01*
X116403553Y-135673676D01*
X116542482Y-135715820D01*
X116617500Y-135738577D01*
X116635929Y-135740392D01*
X116784248Y-135755000D01*
X116784255Y-135755000D01*
X116839999Y-135760490D01*
X116895743Y-135755000D01*
X116975001Y-135755000D01*
X116975001Y-135880997D01*
X116911068Y-135958899D01*
X116777818Y-136208192D01*
X116695764Y-136478691D01*
X116675000Y-136689508D01*
X116675000Y-137630491D01*
X116695764Y-137841308D01*
X116777818Y-138111807D01*
X116911068Y-138361100D01*
X117090392Y-138579607D01*
X117308899Y-138758932D01*
X117558192Y-138892182D01*
X117828691Y-138974236D01*
X118110000Y-139001943D01*
X118391308Y-138974236D01*
X118661807Y-138892182D01*
X118911100Y-138758932D01*
X119129607Y-138579608D01*
X119222419Y-138466517D01*
X119224188Y-138484482D01*
X119260498Y-138604180D01*
X119319463Y-138714494D01*
X119398815Y-138811185D01*
X119495506Y-138890537D01*
X119605820Y-138949502D01*
X119725518Y-138985812D01*
X119850000Y-138998072D01*
X120882940Y-138998072D01*
X123219868Y-141335001D01*
X121990123Y-141335001D01*
X120861986Y-140206865D01*
X120826439Y-140163551D01*
X120653613Y-140021716D01*
X120456437Y-139916324D01*
X120242489Y-139851423D01*
X120075742Y-139835000D01*
X120075741Y-139835000D01*
X120019990Y-139829509D01*
X119964239Y-139835000D01*
X114770132Y-139835000D01*
X114165000Y-139229869D01*
X114165000Y-138439002D01*
X114228932Y-138361101D01*
X114362182Y-138111808D01*
X114444236Y-137841309D01*
X114465000Y-137630492D01*
X114465000Y-136689509D01*
X114444236Y-136478691D01*
X114362182Y-136208192D01*
X114228932Y-135958899D01*
X114049608Y-135740392D01*
X113831101Y-135561068D01*
X113581808Y-135427818D01*
X113311309Y-135345764D01*
X113030000Y-135318057D01*
X112748692Y-135345764D01*
X112478193Y-135427818D01*
X112228900Y-135561068D01*
X112010393Y-135740392D01*
X111831068Y-135958899D01*
X111697818Y-136208192D01*
X111615764Y-136478691D01*
X111595000Y-136689508D01*
X111595000Y-137630491D01*
X111615764Y-137841308D01*
X111697818Y-138111807D01*
X111831068Y-138361100D01*
X111895000Y-138439002D01*
X111895000Y-139644248D01*
X111889509Y-139700000D01*
X111895000Y-139755751D01*
X111911423Y-139922498D01*
X111976324Y-140136446D01*
X112081716Y-140333623D01*
X112223551Y-140506449D01*
X112266865Y-140541996D01*
X112829869Y-141105000D01*
X112230132Y-141105000D01*
X111358072Y-140232940D01*
X111358072Y-138700000D01*
X111345812Y-138575518D01*
X111309502Y-138455820D01*
X111250537Y-138345506D01*
X111171185Y-138248815D01*
X111074494Y-138169463D01*
X110964180Y-138110498D01*
X110844482Y-138074188D01*
X110720000Y-138061928D01*
X107815000Y-138061928D01*
X107815000Y-135990175D01*
X108091285Y-136137852D01*
X108399484Y-136231343D01*
X108639678Y-136255000D01*
X109800322Y-136255000D01*
X110040516Y-136231343D01*
X110348715Y-136137852D01*
X110632752Y-135986031D01*
X110881714Y-135781714D01*
X111086031Y-135532752D01*
X111237852Y-135248715D01*
X111331343Y-134940516D01*
X111362911Y-134620000D01*
X111331343Y-134299484D01*
X111237852Y-133991285D01*
X111086031Y-133707248D01*
X110881714Y-133458286D01*
X110749767Y-133350000D01*
X110881714Y-133241714D01*
X111086031Y-132992752D01*
X111237852Y-132708715D01*
X111331343Y-132400516D01*
X111362911Y-132080000D01*
X111331343Y-131759484D01*
X111237852Y-131451285D01*
X111086031Y-131167248D01*
X110881714Y-130918286D01*
X110632752Y-130713969D01*
X110348715Y-130562148D01*
X110040516Y-130468657D01*
X109800322Y-130445000D01*
X108639678Y-130445000D01*
X108399484Y-130468657D01*
X108091285Y-130562148D01*
X107807248Y-130713969D01*
X107558286Y-130918286D01*
X107353969Y-131167248D01*
X107202148Y-131451285D01*
X107108657Y-131759484D01*
X107077089Y-132080000D01*
X107108657Y-132400516D01*
X107202148Y-132708715D01*
X107353969Y-132992752D01*
X107558286Y-133241714D01*
X107690233Y-133350000D01*
X107558286Y-133458286D01*
X107536362Y-133485000D01*
X106775752Y-133485000D01*
X106720000Y-133479509D01*
X106664249Y-133485000D01*
X106664248Y-133485000D01*
X106497501Y-133501423D01*
X106283553Y-133566324D01*
X106086377Y-133671716D01*
X106070000Y-133685156D01*
X106070000Y-122979721D01*
X109625000Y-122979721D01*
X109625000Y-123400279D01*
X109707047Y-123812756D01*
X109867988Y-124201302D01*
X110101637Y-124550983D01*
X110399017Y-124848363D01*
X110748698Y-125082012D01*
X111137244Y-125242953D01*
X111549721Y-125325000D01*
X111970279Y-125325000D01*
X112382756Y-125242953D01*
X112771302Y-125082012D01*
X113120983Y-124848363D01*
X113418363Y-124550983D01*
X113569360Y-124325000D01*
X116784249Y-124325000D01*
X116840000Y-124330491D01*
X116895751Y-124325000D01*
X116895752Y-124325000D01*
X117062499Y-124308577D01*
X117276447Y-124243676D01*
X117473623Y-124138284D01*
X117646449Y-123996449D01*
X117681996Y-123953135D01*
X118287282Y-123347850D01*
X118528574Y-123299853D01*
X118789727Y-123191680D01*
X119024759Y-123034637D01*
X119224637Y-122834759D01*
X119381680Y-122599727D01*
X119489853Y-122338574D01*
X119545000Y-122061335D01*
X119545000Y-121778665D01*
X119489853Y-121501426D01*
X119381680Y-121240273D01*
X119224637Y-121005241D01*
X119024759Y-120805363D01*
X118789727Y-120648320D01*
X118528574Y-120540147D01*
X118251335Y-120485000D01*
X117968665Y-120485000D01*
X117691426Y-120540147D01*
X117430273Y-120648320D01*
X117195241Y-120805363D01*
X116995363Y-121005241D01*
X116838320Y-121240273D01*
X116730147Y-121501426D01*
X116682150Y-121742718D01*
X116369869Y-122055000D01*
X113569360Y-122055000D01*
X113418363Y-121829017D01*
X113120983Y-121531637D01*
X112771302Y-121297988D01*
X112382756Y-121137047D01*
X111970279Y-121055000D01*
X111549721Y-121055000D01*
X111137244Y-121137047D01*
X110748698Y-121297988D01*
X110399017Y-121531637D01*
X110101637Y-121829017D01*
X109867988Y-122178698D01*
X109707047Y-122567244D01*
X109625000Y-122979721D01*
X106070000Y-122979721D01*
X106070000Y-118770000D01*
X151740001Y-118770000D01*
X151740000Y-153010000D01*
G37*
%TD.AperFunction*%
%TD*%
M02*
