M48
; DRILL file {KiCad (5.1.9)-1} date 11/23/21 15:31:59
; FORMAT={-:-/ absolute / metric / decimal}
; #@! TF.CreationDate,2021-11-23T15:31:59+07:00
; #@! TF.GenerationSoftware,Kicad,Pcbnew,(5.1.9)-1
; #@! TF.FileFunction,Plated,1,2,PTH
FMAT,2
METRIC
T1C1.200
T2C1.500
T3C1.700
%
G90
G05
T1
X47.625Y-98.425
X50.8Y-98.425
X53.975Y-98.425
X57.15Y-98.425
X60.325Y-98.425
X63.5Y-98.425
X66.675Y-98.425
X69.85Y-98.425
X73.025Y-98.425
X76.2Y-98.425
X79.375Y-98.425
X82.55Y-98.425
X85.725Y-98.425
T2
X44.45Y-79.375
X53.975Y-79.375
X63.5Y-79.375
X76.2Y-79.375
X85.725Y-79.375
X95.25Y-79.375
T3
X41.91Y-76.835
X41.91Y-81.915
X46.99Y-76.835
X46.99Y-81.915
X51.435Y-76.835
X51.435Y-81.915
X56.515Y-76.835
X56.515Y-81.915
X60.96Y-76.835
X60.96Y-81.915
X66.04Y-76.835
X66.04Y-81.915
X73.66Y-76.835
X73.66Y-81.915
X78.74Y-76.835
X78.74Y-81.915
X83.185Y-76.835
X83.185Y-81.915
X88.265Y-76.835
X88.265Y-81.915
X92.71Y-76.835
X92.71Y-81.915
X97.79Y-76.835
X97.79Y-81.915
T0
M30
