%TF.GenerationSoftware,KiCad,Pcbnew,(5.1.9)-1*%
%TF.CreationDate,2021-11-23T15:31:52+07:00*%
%TF.ProjectId,DAC_SMA,4441435f-534d-4412-9e6b-696361645f70,rev?*%
%TF.SameCoordinates,Original*%
%TF.FileFunction,Copper,L1,Top*%
%TF.FilePolarity,Positive*%
%FSLAX46Y46*%
G04 Gerber Fmt 4.6, Leading zero omitted, Abs format (unit mm)*
G04 Created by KiCad (PCBNEW (5.1.9)-1) date 2021-11-23 15:31:52*
%MOMM*%
%LPD*%
G01*
G04 APERTURE LIST*
%TA.AperFunction,ComponentPad*%
%ADD10C,2.400000*%
%TD*%
%TA.AperFunction,ComponentPad*%
%ADD11C,3.000000*%
%TD*%
%TA.AperFunction,ComponentPad*%
%ADD12C,2.050000*%
%TD*%
%TA.AperFunction,Conductor*%
%ADD13C,1.500000*%
%TD*%
%TA.AperFunction,Conductor*%
%ADD14C,0.700000*%
%TD*%
%TA.AperFunction,Conductor*%
%ADD15C,0.100000*%
%TD*%
G04 APERTURE END LIST*
D10*
%TO.P,J2,1*%
%TO.N,N/C*%
X47625000Y-98425000D03*
%TD*%
%TO.P,J2,1*%
%TO.N,N/C*%
X53975000Y-98425000D03*
%TD*%
%TO.P,J2,1*%
%TO.N,N/C*%
X63500000Y-98425000D03*
%TD*%
%TO.P,J2,1*%
%TO.N,N/C*%
X69850000Y-98425000D03*
%TD*%
%TO.P,J2,1*%
%TO.N,N/C*%
X76200000Y-98425000D03*
%TD*%
%TO.P,J2,1*%
%TO.N,N/C*%
X82550000Y-98425000D03*
%TD*%
%TO.P,J13,1*%
%TO.N,GNDA*%
X60325000Y-98425000D03*
%TD*%
D11*
%TO.P,J12,2*%
%TO.N,GNDA*%
X56515000Y-81915000D03*
X51435000Y-81915000D03*
X51435000Y-76835000D03*
X56515000Y-76835000D03*
D12*
%TO.P,J12,1*%
%TO.N,Net-(J12-Pad1)*%
X53975000Y-79375000D03*
%TD*%
D11*
%TO.P,J11,2*%
%TO.N,GNDA*%
X46990000Y-81915000D03*
X41910000Y-81915000D03*
X41910000Y-76835000D03*
X46990000Y-76835000D03*
D12*
%TO.P,J11,1*%
%TO.N,Net-(J11-Pad1)*%
X44450000Y-79375000D03*
%TD*%
D11*
%TO.P,J10,2*%
%TO.N,GNDA*%
X66040000Y-81915000D03*
X60960000Y-81915000D03*
X60960000Y-76835000D03*
X66040000Y-76835000D03*
D12*
%TO.P,J10,1*%
%TO.N,Net-(J10-Pad1)*%
X63500000Y-79375000D03*
%TD*%
D11*
%TO.P,J9,2*%
%TO.N,GNDA*%
X78740000Y-81915000D03*
X73660000Y-81915000D03*
X73660000Y-76835000D03*
X78740000Y-76835000D03*
D12*
%TO.P,J9,1*%
%TO.N,Net-(J3-Pad1)*%
X76200000Y-79375000D03*
%TD*%
D11*
%TO.P,J8,2*%
%TO.N,GNDA*%
X88265000Y-81915000D03*
X83185000Y-81915000D03*
X83185000Y-76835000D03*
X88265000Y-76835000D03*
D12*
%TO.P,J8,1*%
%TO.N,Net-(J2-Pad1)*%
X85725000Y-79375000D03*
%TD*%
D10*
%TO.P,J7,1*%
%TO.N,Net-(J12-Pad1)*%
X57150000Y-98425000D03*
%TD*%
%TO.P,J6,1*%
%TO.N,Net-(J11-Pad1)*%
X50800000Y-98425000D03*
%TD*%
%TO.P,J5,1*%
%TO.N,Net-(J10-Pad1)*%
X66675000Y-98425000D03*
%TD*%
D11*
%TO.P,J4,2*%
%TO.N,GNDA*%
X97790000Y-81915000D03*
X92710000Y-81915000D03*
X92710000Y-76835000D03*
X97790000Y-76835000D03*
D12*
%TO.P,J4,1*%
%TO.N,Net-(J1-Pad1)*%
X95250000Y-79375000D03*
%TD*%
D10*
%TO.P,J3,1*%
%TO.N,Net-(J3-Pad1)*%
X73025000Y-98425000D03*
%TD*%
%TO.P,J2,1*%
%TO.N,Net-(J2-Pad1)*%
X79375000Y-98425000D03*
%TD*%
%TO.P,J1,1*%
%TO.N,Net-(J1-Pad1)*%
X85725000Y-98425000D03*
%TD*%
D13*
%TO.N,Net-(J1-Pad1)*%
X95250000Y-88900000D02*
X85725000Y-98425000D01*
X95250000Y-79375000D02*
X95250000Y-88900000D01*
%TO.N,Net-(J2-Pad1)*%
X85725000Y-92075000D02*
X85725000Y-79375000D01*
X79375000Y-98425000D02*
X85725000Y-92075000D01*
%TO.N,Net-(J3-Pad1)*%
X76200000Y-95250000D02*
X76200000Y-79375000D01*
X73025000Y-98425000D02*
X76200000Y-95250000D01*
%TO.N,Net-(J10-Pad1)*%
X63500000Y-95250000D02*
X63500000Y-79375000D01*
X66675000Y-98425000D02*
X63500000Y-95250000D01*
%TO.N,Net-(J11-Pad1)*%
X44450000Y-92075000D02*
X50800000Y-98425000D01*
X44450000Y-79375000D02*
X44450000Y-92075000D01*
%TO.N,Net-(J12-Pad1)*%
X53975000Y-95250000D02*
X53975000Y-79375000D01*
X57150000Y-98425000D02*
X53975000Y-95250000D01*
%TD*%
D14*
%TO.N,GNDA*%
X100925000Y-85488223D02*
X88575579Y-100925000D01*
X48007178Y-100925000D01*
X47617178Y-100275000D01*
X47807209Y-100275000D01*
X48164625Y-100203905D01*
X48501303Y-100064448D01*
X48804306Y-99861989D01*
X49061989Y-99604306D01*
X49212500Y-99379049D01*
X49363011Y-99604306D01*
X49620694Y-99861989D01*
X49923697Y-100064448D01*
X50260375Y-100203905D01*
X50617791Y-100275000D01*
X50982209Y-100275000D01*
X51339625Y-100203905D01*
X51676303Y-100064448D01*
X51979306Y-99861989D01*
X52236989Y-99604306D01*
X52387500Y-99379049D01*
X52538011Y-99604306D01*
X52795694Y-99861989D01*
X53098697Y-100064448D01*
X53435375Y-100203905D01*
X53792791Y-100275000D01*
X54157209Y-100275000D01*
X54514625Y-100203905D01*
X54851303Y-100064448D01*
X55154306Y-99861989D01*
X55411989Y-99604306D01*
X55562500Y-99379049D01*
X55713011Y-99604306D01*
X55970694Y-99861989D01*
X56273697Y-100064448D01*
X56610375Y-100203905D01*
X56967791Y-100275000D01*
X57332209Y-100275000D01*
X57689625Y-100203905D01*
X58026303Y-100064448D01*
X58329306Y-99861989D01*
X58465356Y-99725939D01*
X59236193Y-99725939D01*
X59357252Y-100012187D01*
X59685491Y-100170487D01*
X60038307Y-100261711D01*
X60402140Y-100282350D01*
X60763010Y-100231612D01*
X61107046Y-100111447D01*
X61292748Y-100012187D01*
X61413807Y-99725939D01*
X60325000Y-98637132D01*
X59236193Y-99725939D01*
X58465356Y-99725939D01*
X58586989Y-99604306D01*
X58733606Y-99384877D01*
X58737813Y-99392748D01*
X59024061Y-99513807D01*
X60112868Y-98425000D01*
X59024061Y-97336193D01*
X58737813Y-97457252D01*
X58733845Y-97465480D01*
X58586989Y-97245694D01*
X58465356Y-97124061D01*
X59236193Y-97124061D01*
X60325000Y-98212868D01*
X61413807Y-97124061D01*
X61292748Y-96837813D01*
X60964509Y-96679513D01*
X60611693Y-96588289D01*
X60247860Y-96567650D01*
X59886990Y-96618388D01*
X59542954Y-96738553D01*
X59357252Y-96837813D01*
X59236193Y-97124061D01*
X58465356Y-97124061D01*
X58329306Y-96988011D01*
X58026303Y-96785552D01*
X57689625Y-96646095D01*
X57332209Y-96575000D01*
X57279899Y-96575000D01*
X55375000Y-94670102D01*
X55375000Y-83749450D01*
X55748930Y-83935019D01*
X56157736Y-84045658D01*
X56580272Y-84074416D01*
X57000299Y-84020190D01*
X57401676Y-83885062D01*
X57660436Y-83746752D01*
X57817677Y-83429809D01*
X56515000Y-82127132D01*
X56500858Y-82141275D01*
X56288726Y-81929143D01*
X56302868Y-81915000D01*
X56727132Y-81915000D01*
X58029809Y-83217677D01*
X58346752Y-83060436D01*
X58535019Y-82681070D01*
X58645658Y-82272264D01*
X58665531Y-81980272D01*
X58800584Y-81980272D01*
X58854810Y-82400299D01*
X58989938Y-82801676D01*
X59128248Y-83060436D01*
X59445191Y-83217677D01*
X60747868Y-81915000D01*
X59445191Y-80612323D01*
X59128248Y-80769564D01*
X58939981Y-81148930D01*
X58829342Y-81557736D01*
X58800584Y-81980272D01*
X58665531Y-81980272D01*
X58674416Y-81849728D01*
X58620190Y-81429701D01*
X58485062Y-81028324D01*
X58346752Y-80769564D01*
X58029809Y-80612323D01*
X56727132Y-81915000D01*
X56302868Y-81915000D01*
X56288726Y-81900858D01*
X56500858Y-81688726D01*
X56515000Y-81702868D01*
X57817677Y-80400191D01*
X57660436Y-80083248D01*
X57281070Y-79894981D01*
X56872264Y-79784342D01*
X56449728Y-79755584D01*
X56029701Y-79809810D01*
X55628324Y-79944938D01*
X55530208Y-79997382D01*
X55585631Y-79863580D01*
X55650000Y-79539973D01*
X55650000Y-79210027D01*
X55585631Y-78886420D01*
X55527005Y-78744885D01*
X55748930Y-78855019D01*
X56157736Y-78965658D01*
X56580272Y-78994416D01*
X57000299Y-78940190D01*
X57401676Y-78805062D01*
X57660436Y-78666752D01*
X57817677Y-78349809D01*
X59657323Y-78349809D01*
X59814564Y-78666752D01*
X60193930Y-78855019D01*
X60602736Y-78965658D01*
X61025272Y-78994416D01*
X61445299Y-78940190D01*
X61846676Y-78805062D01*
X61944792Y-78752618D01*
X61889369Y-78886420D01*
X61825000Y-79210027D01*
X61825000Y-79539973D01*
X61889369Y-79863580D01*
X61947995Y-80005115D01*
X61726070Y-79894981D01*
X61317264Y-79784342D01*
X60894728Y-79755584D01*
X60474701Y-79809810D01*
X60073324Y-79944938D01*
X59814564Y-80083248D01*
X59657323Y-80400191D01*
X60960000Y-81702868D01*
X60974143Y-81688726D01*
X61186275Y-81900858D01*
X61172132Y-81915000D01*
X61186275Y-81929143D01*
X60974143Y-82141275D01*
X60960000Y-82127132D01*
X59657323Y-83429809D01*
X59814564Y-83746752D01*
X60193930Y-83935019D01*
X60602736Y-84045658D01*
X61025272Y-84074416D01*
X61445299Y-84020190D01*
X61846676Y-83885062D01*
X62100001Y-83749657D01*
X62100000Y-95181231D01*
X62093227Y-95250000D01*
X62100000Y-95318769D01*
X62100000Y-95318776D01*
X62120257Y-95524447D01*
X62200310Y-95788348D01*
X62330310Y-96031561D01*
X62505261Y-96244738D01*
X62558682Y-96288580D01*
X62929136Y-96659035D01*
X62623697Y-96785552D01*
X62320694Y-96988011D01*
X62063011Y-97245694D01*
X61916394Y-97465123D01*
X61912187Y-97457252D01*
X61625939Y-97336193D01*
X60537132Y-98425000D01*
X61625939Y-99513807D01*
X61912187Y-99392748D01*
X61916155Y-99384520D01*
X62063011Y-99604306D01*
X62320694Y-99861989D01*
X62623697Y-100064448D01*
X62960375Y-100203905D01*
X63317791Y-100275000D01*
X63682209Y-100275000D01*
X64039625Y-100203905D01*
X64376303Y-100064448D01*
X64679306Y-99861989D01*
X64936989Y-99604306D01*
X65087500Y-99379049D01*
X65238011Y-99604306D01*
X65495694Y-99861989D01*
X65798697Y-100064448D01*
X66135375Y-100203905D01*
X66492791Y-100275000D01*
X66857209Y-100275000D01*
X67214625Y-100203905D01*
X67551303Y-100064448D01*
X67854306Y-99861989D01*
X68111989Y-99604306D01*
X68262500Y-99379049D01*
X68413011Y-99604306D01*
X68670694Y-99861989D01*
X68973697Y-100064448D01*
X69310375Y-100203905D01*
X69667791Y-100275000D01*
X70032209Y-100275000D01*
X70389625Y-100203905D01*
X70726303Y-100064448D01*
X71029306Y-99861989D01*
X71286989Y-99604306D01*
X71437500Y-99379049D01*
X71588011Y-99604306D01*
X71845694Y-99861989D01*
X72148697Y-100064448D01*
X72485375Y-100203905D01*
X72842791Y-100275000D01*
X73207209Y-100275000D01*
X73564625Y-100203905D01*
X73901303Y-100064448D01*
X74204306Y-99861989D01*
X74461989Y-99604306D01*
X74612500Y-99379049D01*
X74763011Y-99604306D01*
X75020694Y-99861989D01*
X75323697Y-100064448D01*
X75660375Y-100203905D01*
X76017791Y-100275000D01*
X76382209Y-100275000D01*
X76739625Y-100203905D01*
X77076303Y-100064448D01*
X77379306Y-99861989D01*
X77636989Y-99604306D01*
X77787500Y-99379049D01*
X77938011Y-99604306D01*
X78195694Y-99861989D01*
X78498697Y-100064448D01*
X78835375Y-100203905D01*
X79192791Y-100275000D01*
X79557209Y-100275000D01*
X79914625Y-100203905D01*
X80251303Y-100064448D01*
X80554306Y-99861989D01*
X80811989Y-99604306D01*
X80962500Y-99379049D01*
X81113011Y-99604306D01*
X81370694Y-99861989D01*
X81673697Y-100064448D01*
X82010375Y-100203905D01*
X82367791Y-100275000D01*
X82732209Y-100275000D01*
X83089625Y-100203905D01*
X83426303Y-100064448D01*
X83729306Y-99861989D01*
X83986989Y-99604306D01*
X84137500Y-99379049D01*
X84288011Y-99604306D01*
X84545694Y-99861989D01*
X84848697Y-100064448D01*
X85185375Y-100203905D01*
X85542791Y-100275000D01*
X85907209Y-100275000D01*
X86264625Y-100203905D01*
X86601303Y-100064448D01*
X86904306Y-99861989D01*
X87161989Y-99604306D01*
X87364448Y-99301303D01*
X87503905Y-98964625D01*
X87575000Y-98607209D01*
X87575000Y-98554898D01*
X96191319Y-89938580D01*
X96244739Y-89894739D01*
X96419690Y-89681562D01*
X96549690Y-89438349D01*
X96629743Y-89174448D01*
X96650000Y-88968777D01*
X96650000Y-88968770D01*
X96656773Y-88900001D01*
X96650000Y-88831232D01*
X96650000Y-83749450D01*
X97023930Y-83935019D01*
X97432736Y-84045658D01*
X97855272Y-84074416D01*
X98275299Y-84020190D01*
X98676676Y-83885062D01*
X98935436Y-83746752D01*
X99092677Y-83429809D01*
X97790000Y-82127132D01*
X97775858Y-82141275D01*
X97563726Y-81929143D01*
X97577868Y-81915000D01*
X98002132Y-81915000D01*
X99304809Y-83217677D01*
X99621752Y-83060436D01*
X99810019Y-82681070D01*
X99920658Y-82272264D01*
X99949416Y-81849728D01*
X99895190Y-81429701D01*
X99760062Y-81028324D01*
X99621752Y-80769564D01*
X99304809Y-80612323D01*
X98002132Y-81915000D01*
X97577868Y-81915000D01*
X97563726Y-81900858D01*
X97775858Y-81688726D01*
X97790000Y-81702868D01*
X99092677Y-80400191D01*
X98935436Y-80083248D01*
X98556070Y-79894981D01*
X98147264Y-79784342D01*
X97724728Y-79755584D01*
X97304701Y-79809810D01*
X96903324Y-79944938D01*
X96805208Y-79997382D01*
X96860631Y-79863580D01*
X96925000Y-79539973D01*
X96925000Y-79210027D01*
X96860631Y-78886420D01*
X96802005Y-78744885D01*
X97023930Y-78855019D01*
X97432736Y-78965658D01*
X97855272Y-78994416D01*
X98275299Y-78940190D01*
X98676676Y-78805062D01*
X98935436Y-78666752D01*
X99092677Y-78349809D01*
X97790000Y-77047132D01*
X97775858Y-77061275D01*
X97563726Y-76849143D01*
X97577868Y-76835000D01*
X98002132Y-76835000D01*
X99304809Y-78137677D01*
X99621752Y-77980436D01*
X99810019Y-77601070D01*
X99920658Y-77192264D01*
X99949416Y-76769728D01*
X99895190Y-76349701D01*
X99760062Y-75948324D01*
X99621752Y-75689564D01*
X99304809Y-75532323D01*
X98002132Y-76835000D01*
X97577868Y-76835000D01*
X96275191Y-75532323D01*
X95958248Y-75689564D01*
X95769981Y-76068930D01*
X95659342Y-76477736D01*
X95630584Y-76900272D01*
X95684810Y-77320299D01*
X95819938Y-77721676D01*
X95872382Y-77819792D01*
X95738580Y-77764369D01*
X95414973Y-77700000D01*
X95085027Y-77700000D01*
X94761420Y-77764369D01*
X94619885Y-77822995D01*
X94730019Y-77601070D01*
X94840658Y-77192264D01*
X94869416Y-76769728D01*
X94815190Y-76349701D01*
X94680062Y-75948324D01*
X94541752Y-75689564D01*
X94224809Y-75532323D01*
X92922132Y-76835000D01*
X92936275Y-76849143D01*
X92724143Y-77061275D01*
X92710000Y-77047132D01*
X91407323Y-78349809D01*
X91564564Y-78666752D01*
X91943930Y-78855019D01*
X92352736Y-78965658D01*
X92775272Y-78994416D01*
X93195299Y-78940190D01*
X93596676Y-78805062D01*
X93694792Y-78752618D01*
X93639369Y-78886420D01*
X93575000Y-79210027D01*
X93575000Y-79539973D01*
X93639369Y-79863580D01*
X93697995Y-80005115D01*
X93476070Y-79894981D01*
X93067264Y-79784342D01*
X92644728Y-79755584D01*
X92224701Y-79809810D01*
X91823324Y-79944938D01*
X91564564Y-80083248D01*
X91407323Y-80400191D01*
X92710000Y-81702868D01*
X92724143Y-81688726D01*
X92936275Y-81900858D01*
X92922132Y-81915000D01*
X92936275Y-81929143D01*
X92724143Y-82141275D01*
X92710000Y-82127132D01*
X91407323Y-83429809D01*
X91564564Y-83746752D01*
X91943930Y-83935019D01*
X92352736Y-84045658D01*
X92775272Y-84074416D01*
X93195299Y-84020190D01*
X93596676Y-83885062D01*
X93850000Y-83749657D01*
X93850001Y-88320100D01*
X85595102Y-96575000D01*
X85542791Y-96575000D01*
X85185375Y-96646095D01*
X84848697Y-96785552D01*
X84545694Y-96988011D01*
X84288011Y-97245694D01*
X84137500Y-97470951D01*
X83986989Y-97245694D01*
X83729306Y-96988011D01*
X83426303Y-96785552D01*
X83120864Y-96659035D01*
X86666324Y-93113575D01*
X86719738Y-93069739D01*
X86763576Y-93016323D01*
X86763582Y-93016317D01*
X86833907Y-92930626D01*
X86894690Y-92856562D01*
X87024690Y-92613349D01*
X87104743Y-92349448D01*
X87125000Y-92143777D01*
X87125000Y-92143770D01*
X87131773Y-92075001D01*
X87125000Y-92006232D01*
X87125000Y-83749450D01*
X87498930Y-83935019D01*
X87907736Y-84045658D01*
X88330272Y-84074416D01*
X88750299Y-84020190D01*
X89151676Y-83885062D01*
X89410436Y-83746752D01*
X89567677Y-83429809D01*
X88265000Y-82127132D01*
X88250858Y-82141275D01*
X88038726Y-81929143D01*
X88052868Y-81915000D01*
X88477132Y-81915000D01*
X89779809Y-83217677D01*
X90096752Y-83060436D01*
X90285019Y-82681070D01*
X90395658Y-82272264D01*
X90415531Y-81980272D01*
X90550584Y-81980272D01*
X90604810Y-82400299D01*
X90739938Y-82801676D01*
X90878248Y-83060436D01*
X91195191Y-83217677D01*
X92497868Y-81915000D01*
X91195191Y-80612323D01*
X90878248Y-80769564D01*
X90689981Y-81148930D01*
X90579342Y-81557736D01*
X90550584Y-81980272D01*
X90415531Y-81980272D01*
X90424416Y-81849728D01*
X90370190Y-81429701D01*
X90235062Y-81028324D01*
X90096752Y-80769564D01*
X89779809Y-80612323D01*
X88477132Y-81915000D01*
X88052868Y-81915000D01*
X88038726Y-81900858D01*
X88250858Y-81688726D01*
X88265000Y-81702868D01*
X89567677Y-80400191D01*
X89410436Y-80083248D01*
X89031070Y-79894981D01*
X88622264Y-79784342D01*
X88199728Y-79755584D01*
X87779701Y-79809810D01*
X87378324Y-79944938D01*
X87280208Y-79997382D01*
X87335631Y-79863580D01*
X87400000Y-79539973D01*
X87400000Y-79210027D01*
X87335631Y-78886420D01*
X87277005Y-78744885D01*
X87498930Y-78855019D01*
X87907736Y-78965658D01*
X88330272Y-78994416D01*
X88750299Y-78940190D01*
X89151676Y-78805062D01*
X89410436Y-78666752D01*
X89567677Y-78349809D01*
X88265000Y-77047132D01*
X88250858Y-77061275D01*
X88038726Y-76849143D01*
X88052868Y-76835000D01*
X88477132Y-76835000D01*
X89779809Y-78137677D01*
X90096752Y-77980436D01*
X90285019Y-77601070D01*
X90395658Y-77192264D01*
X90415531Y-76900272D01*
X90550584Y-76900272D01*
X90604810Y-77320299D01*
X90739938Y-77721676D01*
X90878248Y-77980436D01*
X91195191Y-78137677D01*
X92497868Y-76835000D01*
X91195191Y-75532323D01*
X90878248Y-75689564D01*
X90689981Y-76068930D01*
X90579342Y-76477736D01*
X90550584Y-76900272D01*
X90415531Y-76900272D01*
X90424416Y-76769728D01*
X90370190Y-76349701D01*
X90235062Y-75948324D01*
X90096752Y-75689564D01*
X89779809Y-75532323D01*
X88477132Y-76835000D01*
X88052868Y-76835000D01*
X86750191Y-75532323D01*
X86433248Y-75689564D01*
X86244981Y-76068930D01*
X86134342Y-76477736D01*
X86105584Y-76900272D01*
X86159810Y-77320299D01*
X86294938Y-77721676D01*
X86347382Y-77819792D01*
X86213580Y-77764369D01*
X85889973Y-77700000D01*
X85560027Y-77700000D01*
X85236420Y-77764369D01*
X85094885Y-77822995D01*
X85205019Y-77601070D01*
X85315658Y-77192264D01*
X85344416Y-76769728D01*
X85290190Y-76349701D01*
X85155062Y-75948324D01*
X85016752Y-75689564D01*
X84699809Y-75532323D01*
X83397132Y-76835000D01*
X83411275Y-76849143D01*
X83199143Y-77061275D01*
X83185000Y-77047132D01*
X81882323Y-78349809D01*
X82039564Y-78666752D01*
X82418930Y-78855019D01*
X82827736Y-78965658D01*
X83250272Y-78994416D01*
X83670299Y-78940190D01*
X84071676Y-78805062D01*
X84169792Y-78752618D01*
X84114369Y-78886420D01*
X84050000Y-79210027D01*
X84050000Y-79539973D01*
X84114369Y-79863580D01*
X84172995Y-80005115D01*
X83951070Y-79894981D01*
X83542264Y-79784342D01*
X83119728Y-79755584D01*
X82699701Y-79809810D01*
X82298324Y-79944938D01*
X82039564Y-80083248D01*
X81882323Y-80400191D01*
X83185000Y-81702868D01*
X83199143Y-81688726D01*
X83411275Y-81900858D01*
X83397132Y-81915000D01*
X83411275Y-81929143D01*
X83199143Y-82141275D01*
X83185000Y-82127132D01*
X81882323Y-83429809D01*
X82039564Y-83746752D01*
X82418930Y-83935019D01*
X82827736Y-84045658D01*
X83250272Y-84074416D01*
X83670299Y-84020190D01*
X84071676Y-83885062D01*
X84325001Y-83749657D01*
X84325000Y-91495101D01*
X79245102Y-96575000D01*
X79192791Y-96575000D01*
X78835375Y-96646095D01*
X78498697Y-96785552D01*
X78195694Y-96988011D01*
X77938011Y-97245694D01*
X77787500Y-97470951D01*
X77636989Y-97245694D01*
X77379306Y-96988011D01*
X77076303Y-96785552D01*
X76770864Y-96659035D01*
X77141324Y-96288575D01*
X77194738Y-96244739D01*
X77238576Y-96191323D01*
X77238582Y-96191317D01*
X77308907Y-96105626D01*
X77369690Y-96031562D01*
X77499690Y-95788349D01*
X77579743Y-95524448D01*
X77600000Y-95318777D01*
X77600000Y-95318770D01*
X77606773Y-95250001D01*
X77600000Y-95181232D01*
X77600000Y-83749450D01*
X77973930Y-83935019D01*
X78382736Y-84045658D01*
X78805272Y-84074416D01*
X79225299Y-84020190D01*
X79626676Y-83885062D01*
X79885436Y-83746752D01*
X80042677Y-83429809D01*
X78740000Y-82127132D01*
X78725858Y-82141275D01*
X78513726Y-81929143D01*
X78527868Y-81915000D01*
X78952132Y-81915000D01*
X80254809Y-83217677D01*
X80571752Y-83060436D01*
X80760019Y-82681070D01*
X80870658Y-82272264D01*
X80890531Y-81980272D01*
X81025584Y-81980272D01*
X81079810Y-82400299D01*
X81214938Y-82801676D01*
X81353248Y-83060436D01*
X81670191Y-83217677D01*
X82972868Y-81915000D01*
X81670191Y-80612323D01*
X81353248Y-80769564D01*
X81164981Y-81148930D01*
X81054342Y-81557736D01*
X81025584Y-81980272D01*
X80890531Y-81980272D01*
X80899416Y-81849728D01*
X80845190Y-81429701D01*
X80710062Y-81028324D01*
X80571752Y-80769564D01*
X80254809Y-80612323D01*
X78952132Y-81915000D01*
X78527868Y-81915000D01*
X78513726Y-81900858D01*
X78725858Y-81688726D01*
X78740000Y-81702868D01*
X80042677Y-80400191D01*
X79885436Y-80083248D01*
X79506070Y-79894981D01*
X79097264Y-79784342D01*
X78674728Y-79755584D01*
X78254701Y-79809810D01*
X77853324Y-79944938D01*
X77755208Y-79997382D01*
X77810631Y-79863580D01*
X77875000Y-79539973D01*
X77875000Y-79210027D01*
X77810631Y-78886420D01*
X77752005Y-78744885D01*
X77973930Y-78855019D01*
X78382736Y-78965658D01*
X78805272Y-78994416D01*
X79225299Y-78940190D01*
X79626676Y-78805062D01*
X79885436Y-78666752D01*
X80042677Y-78349809D01*
X78740000Y-77047132D01*
X78725858Y-77061275D01*
X78513726Y-76849143D01*
X78527868Y-76835000D01*
X78952132Y-76835000D01*
X80254809Y-78137677D01*
X80571752Y-77980436D01*
X80760019Y-77601070D01*
X80870658Y-77192264D01*
X80890531Y-76900272D01*
X81025584Y-76900272D01*
X81079810Y-77320299D01*
X81214938Y-77721676D01*
X81353248Y-77980436D01*
X81670191Y-78137677D01*
X82972868Y-76835000D01*
X81670191Y-75532323D01*
X81353248Y-75689564D01*
X81164981Y-76068930D01*
X81054342Y-76477736D01*
X81025584Y-76900272D01*
X80890531Y-76900272D01*
X80899416Y-76769728D01*
X80845190Y-76349701D01*
X80710062Y-75948324D01*
X80571752Y-75689564D01*
X80254809Y-75532323D01*
X78952132Y-76835000D01*
X78527868Y-76835000D01*
X77225191Y-75532323D01*
X76908248Y-75689564D01*
X76719981Y-76068930D01*
X76609342Y-76477736D01*
X76580584Y-76900272D01*
X76634810Y-77320299D01*
X76769938Y-77721676D01*
X76822382Y-77819792D01*
X76688580Y-77764369D01*
X76364973Y-77700000D01*
X76035027Y-77700000D01*
X75711420Y-77764369D01*
X75569885Y-77822995D01*
X75680019Y-77601070D01*
X75790658Y-77192264D01*
X75819416Y-76769728D01*
X75765190Y-76349701D01*
X75630062Y-75948324D01*
X75491752Y-75689564D01*
X75174809Y-75532323D01*
X73872132Y-76835000D01*
X73886275Y-76849143D01*
X73674143Y-77061275D01*
X73660000Y-77047132D01*
X72357323Y-78349809D01*
X72514564Y-78666752D01*
X72893930Y-78855019D01*
X73302736Y-78965658D01*
X73725272Y-78994416D01*
X74145299Y-78940190D01*
X74546676Y-78805062D01*
X74644792Y-78752618D01*
X74589369Y-78886420D01*
X74525000Y-79210027D01*
X74525000Y-79539973D01*
X74589369Y-79863580D01*
X74647995Y-80005115D01*
X74426070Y-79894981D01*
X74017264Y-79784342D01*
X73594728Y-79755584D01*
X73174701Y-79809810D01*
X72773324Y-79944938D01*
X72514564Y-80083248D01*
X72357323Y-80400191D01*
X73660000Y-81702868D01*
X73674143Y-81688726D01*
X73886275Y-81900858D01*
X73872132Y-81915000D01*
X73886275Y-81929143D01*
X73674143Y-82141275D01*
X73660000Y-82127132D01*
X72357323Y-83429809D01*
X72514564Y-83746752D01*
X72893930Y-83935019D01*
X73302736Y-84045658D01*
X73725272Y-84074416D01*
X74145299Y-84020190D01*
X74546676Y-83885062D01*
X74800001Y-83749657D01*
X74800000Y-94670101D01*
X72895102Y-96575000D01*
X72842791Y-96575000D01*
X72485375Y-96646095D01*
X72148697Y-96785552D01*
X71845694Y-96988011D01*
X71588011Y-97245694D01*
X71437500Y-97470951D01*
X71286989Y-97245694D01*
X71029306Y-96988011D01*
X70726303Y-96785552D01*
X70389625Y-96646095D01*
X70032209Y-96575000D01*
X69667791Y-96575000D01*
X69310375Y-96646095D01*
X68973697Y-96785552D01*
X68670694Y-96988011D01*
X68413011Y-97245694D01*
X68262500Y-97470951D01*
X68111989Y-97245694D01*
X67854306Y-96988011D01*
X67551303Y-96785552D01*
X67214625Y-96646095D01*
X66857209Y-96575000D01*
X66804899Y-96575000D01*
X64900000Y-94670102D01*
X64900000Y-83749450D01*
X65273930Y-83935019D01*
X65682736Y-84045658D01*
X66105272Y-84074416D01*
X66525299Y-84020190D01*
X66926676Y-83885062D01*
X67185436Y-83746752D01*
X67342677Y-83429809D01*
X66040000Y-82127132D01*
X66025858Y-82141275D01*
X65813726Y-81929143D01*
X65827868Y-81915000D01*
X66252132Y-81915000D01*
X67554809Y-83217677D01*
X67871752Y-83060436D01*
X68060019Y-82681070D01*
X68170658Y-82272264D01*
X68190531Y-81980272D01*
X71500584Y-81980272D01*
X71554810Y-82400299D01*
X71689938Y-82801676D01*
X71828248Y-83060436D01*
X72145191Y-83217677D01*
X73447868Y-81915000D01*
X72145191Y-80612323D01*
X71828248Y-80769564D01*
X71639981Y-81148930D01*
X71529342Y-81557736D01*
X71500584Y-81980272D01*
X68190531Y-81980272D01*
X68199416Y-81849728D01*
X68145190Y-81429701D01*
X68010062Y-81028324D01*
X67871752Y-80769564D01*
X67554809Y-80612323D01*
X66252132Y-81915000D01*
X65827868Y-81915000D01*
X65813726Y-81900858D01*
X66025858Y-81688726D01*
X66040000Y-81702868D01*
X67342677Y-80400191D01*
X67185436Y-80083248D01*
X66806070Y-79894981D01*
X66397264Y-79784342D01*
X65974728Y-79755584D01*
X65554701Y-79809810D01*
X65153324Y-79944938D01*
X65055208Y-79997382D01*
X65110631Y-79863580D01*
X65175000Y-79539973D01*
X65175000Y-79210027D01*
X65110631Y-78886420D01*
X65052005Y-78744885D01*
X65273930Y-78855019D01*
X65682736Y-78965658D01*
X66105272Y-78994416D01*
X66525299Y-78940190D01*
X66926676Y-78805062D01*
X67185436Y-78666752D01*
X67342677Y-78349809D01*
X66040000Y-77047132D01*
X66025858Y-77061275D01*
X65813726Y-76849143D01*
X65827868Y-76835000D01*
X66252132Y-76835000D01*
X67554809Y-78137677D01*
X67871752Y-77980436D01*
X68060019Y-77601070D01*
X68170658Y-77192264D01*
X68190531Y-76900272D01*
X71500584Y-76900272D01*
X71554810Y-77320299D01*
X71689938Y-77721676D01*
X71828248Y-77980436D01*
X72145191Y-78137677D01*
X73447868Y-76835000D01*
X72145191Y-75532323D01*
X71828248Y-75689564D01*
X71639981Y-76068930D01*
X71529342Y-76477736D01*
X71500584Y-76900272D01*
X68190531Y-76900272D01*
X68199416Y-76769728D01*
X68145190Y-76349701D01*
X68010062Y-75948324D01*
X67871752Y-75689564D01*
X67554809Y-75532323D01*
X66252132Y-76835000D01*
X65827868Y-76835000D01*
X64525191Y-75532323D01*
X64208248Y-75689564D01*
X64019981Y-76068930D01*
X63909342Y-76477736D01*
X63880584Y-76900272D01*
X63934810Y-77320299D01*
X64069938Y-77721676D01*
X64122382Y-77819792D01*
X63988580Y-77764369D01*
X63664973Y-77700000D01*
X63335027Y-77700000D01*
X63011420Y-77764369D01*
X62869885Y-77822995D01*
X62980019Y-77601070D01*
X63090658Y-77192264D01*
X63119416Y-76769728D01*
X63065190Y-76349701D01*
X62930062Y-75948324D01*
X62791752Y-75689564D01*
X62474809Y-75532323D01*
X61172132Y-76835000D01*
X61186275Y-76849143D01*
X60974143Y-77061275D01*
X60960000Y-77047132D01*
X59657323Y-78349809D01*
X57817677Y-78349809D01*
X56515000Y-77047132D01*
X56500858Y-77061275D01*
X56288726Y-76849143D01*
X56302868Y-76835000D01*
X56727132Y-76835000D01*
X58029809Y-78137677D01*
X58346752Y-77980436D01*
X58535019Y-77601070D01*
X58645658Y-77192264D01*
X58665531Y-76900272D01*
X58800584Y-76900272D01*
X58854810Y-77320299D01*
X58989938Y-77721676D01*
X59128248Y-77980436D01*
X59445191Y-78137677D01*
X60747868Y-76835000D01*
X59445191Y-75532323D01*
X59128248Y-75689564D01*
X58939981Y-76068930D01*
X58829342Y-76477736D01*
X58800584Y-76900272D01*
X58665531Y-76900272D01*
X58674416Y-76769728D01*
X58620190Y-76349701D01*
X58485062Y-75948324D01*
X58346752Y-75689564D01*
X58029809Y-75532323D01*
X56727132Y-76835000D01*
X56302868Y-76835000D01*
X55000191Y-75532323D01*
X54683248Y-75689564D01*
X54494981Y-76068930D01*
X54384342Y-76477736D01*
X54355584Y-76900272D01*
X54409810Y-77320299D01*
X54544938Y-77721676D01*
X54597382Y-77819792D01*
X54463580Y-77764369D01*
X54139973Y-77700000D01*
X53810027Y-77700000D01*
X53486420Y-77764369D01*
X53344885Y-77822995D01*
X53455019Y-77601070D01*
X53565658Y-77192264D01*
X53594416Y-76769728D01*
X53540190Y-76349701D01*
X53405062Y-75948324D01*
X53266752Y-75689564D01*
X52949809Y-75532323D01*
X51647132Y-76835000D01*
X51661275Y-76849143D01*
X51449143Y-77061275D01*
X51435000Y-77047132D01*
X50132323Y-78349809D01*
X50289564Y-78666752D01*
X50668930Y-78855019D01*
X51077736Y-78965658D01*
X51500272Y-78994416D01*
X51920299Y-78940190D01*
X52321676Y-78805062D01*
X52419792Y-78752618D01*
X52364369Y-78886420D01*
X52300000Y-79210027D01*
X52300000Y-79539973D01*
X52364369Y-79863580D01*
X52422995Y-80005115D01*
X52201070Y-79894981D01*
X51792264Y-79784342D01*
X51369728Y-79755584D01*
X50949701Y-79809810D01*
X50548324Y-79944938D01*
X50289564Y-80083248D01*
X50132323Y-80400191D01*
X51435000Y-81702868D01*
X51449143Y-81688726D01*
X51661275Y-81900858D01*
X51647132Y-81915000D01*
X51661275Y-81929143D01*
X51449143Y-82141275D01*
X51435000Y-82127132D01*
X50132323Y-83429809D01*
X50289564Y-83746752D01*
X50668930Y-83935019D01*
X51077736Y-84045658D01*
X51500272Y-84074416D01*
X51920299Y-84020190D01*
X52321676Y-83885062D01*
X52575001Y-83749657D01*
X52575000Y-95181231D01*
X52568227Y-95250000D01*
X52575000Y-95318769D01*
X52575000Y-95318776D01*
X52595257Y-95524447D01*
X52675310Y-95788348D01*
X52805310Y-96031561D01*
X52980261Y-96244738D01*
X53033682Y-96288580D01*
X53404136Y-96659035D01*
X53098697Y-96785552D01*
X52795694Y-96988011D01*
X52538011Y-97245694D01*
X52387500Y-97470951D01*
X52236989Y-97245694D01*
X51979306Y-96988011D01*
X51676303Y-96785552D01*
X51339625Y-96646095D01*
X50982209Y-96575000D01*
X50929899Y-96575000D01*
X45850000Y-91495102D01*
X45850000Y-83749450D01*
X46223930Y-83935019D01*
X46632736Y-84045658D01*
X47055272Y-84074416D01*
X47475299Y-84020190D01*
X47876676Y-83885062D01*
X48135436Y-83746752D01*
X48292677Y-83429809D01*
X46990000Y-82127132D01*
X46975858Y-82141275D01*
X46763726Y-81929143D01*
X46777868Y-81915000D01*
X47202132Y-81915000D01*
X48504809Y-83217677D01*
X48821752Y-83060436D01*
X49010019Y-82681070D01*
X49120658Y-82272264D01*
X49140531Y-81980272D01*
X49275584Y-81980272D01*
X49329810Y-82400299D01*
X49464938Y-82801676D01*
X49603248Y-83060436D01*
X49920191Y-83217677D01*
X51222868Y-81915000D01*
X49920191Y-80612323D01*
X49603248Y-80769564D01*
X49414981Y-81148930D01*
X49304342Y-81557736D01*
X49275584Y-81980272D01*
X49140531Y-81980272D01*
X49149416Y-81849728D01*
X49095190Y-81429701D01*
X48960062Y-81028324D01*
X48821752Y-80769564D01*
X48504809Y-80612323D01*
X47202132Y-81915000D01*
X46777868Y-81915000D01*
X46763726Y-81900858D01*
X46975858Y-81688726D01*
X46990000Y-81702868D01*
X48292677Y-80400191D01*
X48135436Y-80083248D01*
X47756070Y-79894981D01*
X47347264Y-79784342D01*
X46924728Y-79755584D01*
X46504701Y-79809810D01*
X46103324Y-79944938D01*
X46005208Y-79997382D01*
X46060631Y-79863580D01*
X46125000Y-79539973D01*
X46125000Y-79210027D01*
X46060631Y-78886420D01*
X46002005Y-78744885D01*
X46223930Y-78855019D01*
X46632736Y-78965658D01*
X47055272Y-78994416D01*
X47475299Y-78940190D01*
X47876676Y-78805062D01*
X48135436Y-78666752D01*
X48292677Y-78349809D01*
X46990000Y-77047132D01*
X46975858Y-77061275D01*
X46763726Y-76849143D01*
X46777868Y-76835000D01*
X47202132Y-76835000D01*
X48504809Y-78137677D01*
X48821752Y-77980436D01*
X49010019Y-77601070D01*
X49120658Y-77192264D01*
X49140531Y-76900272D01*
X49275584Y-76900272D01*
X49329810Y-77320299D01*
X49464938Y-77721676D01*
X49603248Y-77980436D01*
X49920191Y-78137677D01*
X51222868Y-76835000D01*
X49920191Y-75532323D01*
X49603248Y-75689564D01*
X49414981Y-76068930D01*
X49304342Y-76477736D01*
X49275584Y-76900272D01*
X49140531Y-76900272D01*
X49149416Y-76769728D01*
X49095190Y-76349701D01*
X48960062Y-75948324D01*
X48821752Y-75689564D01*
X48504809Y-75532323D01*
X47202132Y-76835000D01*
X46777868Y-76835000D01*
X45475191Y-75532323D01*
X45158248Y-75689564D01*
X44969981Y-76068930D01*
X44859342Y-76477736D01*
X44830584Y-76900272D01*
X44884810Y-77320299D01*
X45019938Y-77721676D01*
X45072382Y-77819792D01*
X44938580Y-77764369D01*
X44614973Y-77700000D01*
X44285027Y-77700000D01*
X43961420Y-77764369D01*
X43819885Y-77822995D01*
X43930019Y-77601070D01*
X44040658Y-77192264D01*
X44069416Y-76769728D01*
X44015190Y-76349701D01*
X43880062Y-75948324D01*
X43741752Y-75689564D01*
X43424809Y-75532323D01*
X42122132Y-76835000D01*
X42136275Y-76849143D01*
X41924143Y-77061275D01*
X41910000Y-77047132D01*
X40607323Y-78349809D01*
X40764564Y-78666752D01*
X41143930Y-78855019D01*
X41552736Y-78965658D01*
X41975272Y-78994416D01*
X42395299Y-78940190D01*
X42796676Y-78805062D01*
X42894792Y-78752618D01*
X42839369Y-78886420D01*
X42775000Y-79210027D01*
X42775000Y-79539973D01*
X42839369Y-79863580D01*
X42897995Y-80005115D01*
X42676070Y-79894981D01*
X42267264Y-79784342D01*
X41844728Y-79755584D01*
X41424701Y-79809810D01*
X41023324Y-79944938D01*
X40764564Y-80083248D01*
X40607323Y-80400191D01*
X41910000Y-81702868D01*
X41924143Y-81688726D01*
X42136275Y-81900858D01*
X42122132Y-81915000D01*
X42136275Y-81929143D01*
X41924143Y-82141275D01*
X41910000Y-82127132D01*
X40607323Y-83429809D01*
X40764564Y-83746752D01*
X41143930Y-83935019D01*
X41552736Y-84045658D01*
X41975272Y-84074416D01*
X42395299Y-84020190D01*
X42796676Y-83885062D01*
X43050000Y-83749657D01*
X43050001Y-92006221D01*
X43043227Y-92075000D01*
X43070257Y-92349447D01*
X43070258Y-92349449D01*
X43150311Y-92613349D01*
X43280311Y-92856562D01*
X43356752Y-92949705D01*
X43411418Y-93016316D01*
X43411419Y-93016317D01*
X43455262Y-93069739D01*
X43508682Y-93113580D01*
X47054136Y-96659035D01*
X46748697Y-96785552D01*
X46445694Y-96988011D01*
X46188011Y-97245694D01*
X45985552Y-97548697D01*
X45983855Y-97552794D01*
X38775000Y-85538037D01*
X38775000Y-81980272D01*
X39750584Y-81980272D01*
X39804810Y-82400299D01*
X39939938Y-82801676D01*
X40078248Y-83060436D01*
X40395191Y-83217677D01*
X41697868Y-81915000D01*
X40395191Y-80612323D01*
X40078248Y-80769564D01*
X39889981Y-81148930D01*
X39779342Y-81557736D01*
X39750584Y-81980272D01*
X38775000Y-81980272D01*
X38775000Y-76900272D01*
X39750584Y-76900272D01*
X39804810Y-77320299D01*
X39939938Y-77721676D01*
X40078248Y-77980436D01*
X40395191Y-78137677D01*
X41697868Y-76835000D01*
X40395191Y-75532323D01*
X40078248Y-75689564D01*
X39889981Y-76068930D01*
X39779342Y-76477736D01*
X39750584Y-76900272D01*
X38775000Y-76900272D01*
X38775000Y-75320191D01*
X40607323Y-75320191D01*
X41910000Y-76622868D01*
X43212677Y-75320191D01*
X45687323Y-75320191D01*
X46990000Y-76622868D01*
X48292677Y-75320191D01*
X50132323Y-75320191D01*
X51435000Y-76622868D01*
X52737677Y-75320191D01*
X55212323Y-75320191D01*
X56515000Y-76622868D01*
X57817677Y-75320191D01*
X59657323Y-75320191D01*
X60960000Y-76622868D01*
X62262677Y-75320191D01*
X64737323Y-75320191D01*
X66040000Y-76622868D01*
X67342677Y-75320191D01*
X72357323Y-75320191D01*
X73660000Y-76622868D01*
X74962677Y-75320191D01*
X77437323Y-75320191D01*
X78740000Y-76622868D01*
X80042677Y-75320191D01*
X81882323Y-75320191D01*
X83185000Y-76622868D01*
X84487677Y-75320191D01*
X86962323Y-75320191D01*
X88265000Y-76622868D01*
X89567677Y-75320191D01*
X91407323Y-75320191D01*
X92710000Y-76622868D01*
X94012677Y-75320191D01*
X96487323Y-75320191D01*
X97790000Y-76622868D01*
X99092677Y-75320191D01*
X98935436Y-75003248D01*
X98556070Y-74814981D01*
X98147264Y-74704342D01*
X97724728Y-74675584D01*
X97304701Y-74729810D01*
X96903324Y-74864938D01*
X96644564Y-75003248D01*
X96487323Y-75320191D01*
X94012677Y-75320191D01*
X93855436Y-75003248D01*
X93476070Y-74814981D01*
X93067264Y-74704342D01*
X92644728Y-74675584D01*
X92224701Y-74729810D01*
X91823324Y-74864938D01*
X91564564Y-75003248D01*
X91407323Y-75320191D01*
X89567677Y-75320191D01*
X89410436Y-75003248D01*
X89031070Y-74814981D01*
X88622264Y-74704342D01*
X88199728Y-74675584D01*
X87779701Y-74729810D01*
X87378324Y-74864938D01*
X87119564Y-75003248D01*
X86962323Y-75320191D01*
X84487677Y-75320191D01*
X84330436Y-75003248D01*
X83951070Y-74814981D01*
X83542264Y-74704342D01*
X83119728Y-74675584D01*
X82699701Y-74729810D01*
X82298324Y-74864938D01*
X82039564Y-75003248D01*
X81882323Y-75320191D01*
X80042677Y-75320191D01*
X79885436Y-75003248D01*
X79506070Y-74814981D01*
X79097264Y-74704342D01*
X78674728Y-74675584D01*
X78254701Y-74729810D01*
X77853324Y-74864938D01*
X77594564Y-75003248D01*
X77437323Y-75320191D01*
X74962677Y-75320191D01*
X74805436Y-75003248D01*
X74426070Y-74814981D01*
X74017264Y-74704342D01*
X73594728Y-74675584D01*
X73174701Y-74729810D01*
X72773324Y-74864938D01*
X72514564Y-75003248D01*
X72357323Y-75320191D01*
X67342677Y-75320191D01*
X67185436Y-75003248D01*
X66806070Y-74814981D01*
X66397264Y-74704342D01*
X65974728Y-74675584D01*
X65554701Y-74729810D01*
X65153324Y-74864938D01*
X64894564Y-75003248D01*
X64737323Y-75320191D01*
X62262677Y-75320191D01*
X62105436Y-75003248D01*
X61726070Y-74814981D01*
X61317264Y-74704342D01*
X60894728Y-74675584D01*
X60474701Y-74729810D01*
X60073324Y-74864938D01*
X59814564Y-75003248D01*
X59657323Y-75320191D01*
X57817677Y-75320191D01*
X57660436Y-75003248D01*
X57281070Y-74814981D01*
X56872264Y-74704342D01*
X56449728Y-74675584D01*
X56029701Y-74729810D01*
X55628324Y-74864938D01*
X55369564Y-75003248D01*
X55212323Y-75320191D01*
X52737677Y-75320191D01*
X52580436Y-75003248D01*
X52201070Y-74814981D01*
X51792264Y-74704342D01*
X51369728Y-74675584D01*
X50949701Y-74729810D01*
X50548324Y-74864938D01*
X50289564Y-75003248D01*
X50132323Y-75320191D01*
X48292677Y-75320191D01*
X48135436Y-75003248D01*
X47756070Y-74814981D01*
X47347264Y-74704342D01*
X46924728Y-74675584D01*
X46504701Y-74729810D01*
X46103324Y-74864938D01*
X45844564Y-75003248D01*
X45687323Y-75320191D01*
X43212677Y-75320191D01*
X43055436Y-75003248D01*
X42676070Y-74814981D01*
X42267264Y-74704342D01*
X41844728Y-74675584D01*
X41424701Y-74729810D01*
X41023324Y-74864938D01*
X40764564Y-75003248D01*
X40607323Y-75320191D01*
X38775000Y-75320191D01*
X38775000Y-73700000D01*
X100925001Y-73700000D01*
X100925000Y-85488223D01*
%TA.AperFunction,Conductor*%
D15*
G36*
X100925000Y-85488223D02*
G01*
X88575579Y-100925000D01*
X48007178Y-100925000D01*
X47617178Y-100275000D01*
X47807209Y-100275000D01*
X48164625Y-100203905D01*
X48501303Y-100064448D01*
X48804306Y-99861989D01*
X49061989Y-99604306D01*
X49212500Y-99379049D01*
X49363011Y-99604306D01*
X49620694Y-99861989D01*
X49923697Y-100064448D01*
X50260375Y-100203905D01*
X50617791Y-100275000D01*
X50982209Y-100275000D01*
X51339625Y-100203905D01*
X51676303Y-100064448D01*
X51979306Y-99861989D01*
X52236989Y-99604306D01*
X52387500Y-99379049D01*
X52538011Y-99604306D01*
X52795694Y-99861989D01*
X53098697Y-100064448D01*
X53435375Y-100203905D01*
X53792791Y-100275000D01*
X54157209Y-100275000D01*
X54514625Y-100203905D01*
X54851303Y-100064448D01*
X55154306Y-99861989D01*
X55411989Y-99604306D01*
X55562500Y-99379049D01*
X55713011Y-99604306D01*
X55970694Y-99861989D01*
X56273697Y-100064448D01*
X56610375Y-100203905D01*
X56967791Y-100275000D01*
X57332209Y-100275000D01*
X57689625Y-100203905D01*
X58026303Y-100064448D01*
X58329306Y-99861989D01*
X58465356Y-99725939D01*
X59236193Y-99725939D01*
X59357252Y-100012187D01*
X59685491Y-100170487D01*
X60038307Y-100261711D01*
X60402140Y-100282350D01*
X60763010Y-100231612D01*
X61107046Y-100111447D01*
X61292748Y-100012187D01*
X61413807Y-99725939D01*
X60325000Y-98637132D01*
X59236193Y-99725939D01*
X58465356Y-99725939D01*
X58586989Y-99604306D01*
X58733606Y-99384877D01*
X58737813Y-99392748D01*
X59024061Y-99513807D01*
X60112868Y-98425000D01*
X59024061Y-97336193D01*
X58737813Y-97457252D01*
X58733845Y-97465480D01*
X58586989Y-97245694D01*
X58465356Y-97124061D01*
X59236193Y-97124061D01*
X60325000Y-98212868D01*
X61413807Y-97124061D01*
X61292748Y-96837813D01*
X60964509Y-96679513D01*
X60611693Y-96588289D01*
X60247860Y-96567650D01*
X59886990Y-96618388D01*
X59542954Y-96738553D01*
X59357252Y-96837813D01*
X59236193Y-97124061D01*
X58465356Y-97124061D01*
X58329306Y-96988011D01*
X58026303Y-96785552D01*
X57689625Y-96646095D01*
X57332209Y-96575000D01*
X57279899Y-96575000D01*
X55375000Y-94670102D01*
X55375000Y-83749450D01*
X55748930Y-83935019D01*
X56157736Y-84045658D01*
X56580272Y-84074416D01*
X57000299Y-84020190D01*
X57401676Y-83885062D01*
X57660436Y-83746752D01*
X57817677Y-83429809D01*
X56515000Y-82127132D01*
X56500858Y-82141275D01*
X56288726Y-81929143D01*
X56302868Y-81915000D01*
X56727132Y-81915000D01*
X58029809Y-83217677D01*
X58346752Y-83060436D01*
X58535019Y-82681070D01*
X58645658Y-82272264D01*
X58665531Y-81980272D01*
X58800584Y-81980272D01*
X58854810Y-82400299D01*
X58989938Y-82801676D01*
X59128248Y-83060436D01*
X59445191Y-83217677D01*
X60747868Y-81915000D01*
X59445191Y-80612323D01*
X59128248Y-80769564D01*
X58939981Y-81148930D01*
X58829342Y-81557736D01*
X58800584Y-81980272D01*
X58665531Y-81980272D01*
X58674416Y-81849728D01*
X58620190Y-81429701D01*
X58485062Y-81028324D01*
X58346752Y-80769564D01*
X58029809Y-80612323D01*
X56727132Y-81915000D01*
X56302868Y-81915000D01*
X56288726Y-81900858D01*
X56500858Y-81688726D01*
X56515000Y-81702868D01*
X57817677Y-80400191D01*
X57660436Y-80083248D01*
X57281070Y-79894981D01*
X56872264Y-79784342D01*
X56449728Y-79755584D01*
X56029701Y-79809810D01*
X55628324Y-79944938D01*
X55530208Y-79997382D01*
X55585631Y-79863580D01*
X55650000Y-79539973D01*
X55650000Y-79210027D01*
X55585631Y-78886420D01*
X55527005Y-78744885D01*
X55748930Y-78855019D01*
X56157736Y-78965658D01*
X56580272Y-78994416D01*
X57000299Y-78940190D01*
X57401676Y-78805062D01*
X57660436Y-78666752D01*
X57817677Y-78349809D01*
X59657323Y-78349809D01*
X59814564Y-78666752D01*
X60193930Y-78855019D01*
X60602736Y-78965658D01*
X61025272Y-78994416D01*
X61445299Y-78940190D01*
X61846676Y-78805062D01*
X61944792Y-78752618D01*
X61889369Y-78886420D01*
X61825000Y-79210027D01*
X61825000Y-79539973D01*
X61889369Y-79863580D01*
X61947995Y-80005115D01*
X61726070Y-79894981D01*
X61317264Y-79784342D01*
X60894728Y-79755584D01*
X60474701Y-79809810D01*
X60073324Y-79944938D01*
X59814564Y-80083248D01*
X59657323Y-80400191D01*
X60960000Y-81702868D01*
X60974143Y-81688726D01*
X61186275Y-81900858D01*
X61172132Y-81915000D01*
X61186275Y-81929143D01*
X60974143Y-82141275D01*
X60960000Y-82127132D01*
X59657323Y-83429809D01*
X59814564Y-83746752D01*
X60193930Y-83935019D01*
X60602736Y-84045658D01*
X61025272Y-84074416D01*
X61445299Y-84020190D01*
X61846676Y-83885062D01*
X62100001Y-83749657D01*
X62100000Y-95181231D01*
X62093227Y-95250000D01*
X62100000Y-95318769D01*
X62100000Y-95318776D01*
X62120257Y-95524447D01*
X62200310Y-95788348D01*
X62330310Y-96031561D01*
X62505261Y-96244738D01*
X62558682Y-96288580D01*
X62929136Y-96659035D01*
X62623697Y-96785552D01*
X62320694Y-96988011D01*
X62063011Y-97245694D01*
X61916394Y-97465123D01*
X61912187Y-97457252D01*
X61625939Y-97336193D01*
X60537132Y-98425000D01*
X61625939Y-99513807D01*
X61912187Y-99392748D01*
X61916155Y-99384520D01*
X62063011Y-99604306D01*
X62320694Y-99861989D01*
X62623697Y-100064448D01*
X62960375Y-100203905D01*
X63317791Y-100275000D01*
X63682209Y-100275000D01*
X64039625Y-100203905D01*
X64376303Y-100064448D01*
X64679306Y-99861989D01*
X64936989Y-99604306D01*
X65087500Y-99379049D01*
X65238011Y-99604306D01*
X65495694Y-99861989D01*
X65798697Y-100064448D01*
X66135375Y-100203905D01*
X66492791Y-100275000D01*
X66857209Y-100275000D01*
X67214625Y-100203905D01*
X67551303Y-100064448D01*
X67854306Y-99861989D01*
X68111989Y-99604306D01*
X68262500Y-99379049D01*
X68413011Y-99604306D01*
X68670694Y-99861989D01*
X68973697Y-100064448D01*
X69310375Y-100203905D01*
X69667791Y-100275000D01*
X70032209Y-100275000D01*
X70389625Y-100203905D01*
X70726303Y-100064448D01*
X71029306Y-99861989D01*
X71286989Y-99604306D01*
X71437500Y-99379049D01*
X71588011Y-99604306D01*
X71845694Y-99861989D01*
X72148697Y-100064448D01*
X72485375Y-100203905D01*
X72842791Y-100275000D01*
X73207209Y-100275000D01*
X73564625Y-100203905D01*
X73901303Y-100064448D01*
X74204306Y-99861989D01*
X74461989Y-99604306D01*
X74612500Y-99379049D01*
X74763011Y-99604306D01*
X75020694Y-99861989D01*
X75323697Y-100064448D01*
X75660375Y-100203905D01*
X76017791Y-100275000D01*
X76382209Y-100275000D01*
X76739625Y-100203905D01*
X77076303Y-100064448D01*
X77379306Y-99861989D01*
X77636989Y-99604306D01*
X77787500Y-99379049D01*
X77938011Y-99604306D01*
X78195694Y-99861989D01*
X78498697Y-100064448D01*
X78835375Y-100203905D01*
X79192791Y-100275000D01*
X79557209Y-100275000D01*
X79914625Y-100203905D01*
X80251303Y-100064448D01*
X80554306Y-99861989D01*
X80811989Y-99604306D01*
X80962500Y-99379049D01*
X81113011Y-99604306D01*
X81370694Y-99861989D01*
X81673697Y-100064448D01*
X82010375Y-100203905D01*
X82367791Y-100275000D01*
X82732209Y-100275000D01*
X83089625Y-100203905D01*
X83426303Y-100064448D01*
X83729306Y-99861989D01*
X83986989Y-99604306D01*
X84137500Y-99379049D01*
X84288011Y-99604306D01*
X84545694Y-99861989D01*
X84848697Y-100064448D01*
X85185375Y-100203905D01*
X85542791Y-100275000D01*
X85907209Y-100275000D01*
X86264625Y-100203905D01*
X86601303Y-100064448D01*
X86904306Y-99861989D01*
X87161989Y-99604306D01*
X87364448Y-99301303D01*
X87503905Y-98964625D01*
X87575000Y-98607209D01*
X87575000Y-98554898D01*
X96191319Y-89938580D01*
X96244739Y-89894739D01*
X96419690Y-89681562D01*
X96549690Y-89438349D01*
X96629743Y-89174448D01*
X96650000Y-88968777D01*
X96650000Y-88968770D01*
X96656773Y-88900001D01*
X96650000Y-88831232D01*
X96650000Y-83749450D01*
X97023930Y-83935019D01*
X97432736Y-84045658D01*
X97855272Y-84074416D01*
X98275299Y-84020190D01*
X98676676Y-83885062D01*
X98935436Y-83746752D01*
X99092677Y-83429809D01*
X97790000Y-82127132D01*
X97775858Y-82141275D01*
X97563726Y-81929143D01*
X97577868Y-81915000D01*
X98002132Y-81915000D01*
X99304809Y-83217677D01*
X99621752Y-83060436D01*
X99810019Y-82681070D01*
X99920658Y-82272264D01*
X99949416Y-81849728D01*
X99895190Y-81429701D01*
X99760062Y-81028324D01*
X99621752Y-80769564D01*
X99304809Y-80612323D01*
X98002132Y-81915000D01*
X97577868Y-81915000D01*
X97563726Y-81900858D01*
X97775858Y-81688726D01*
X97790000Y-81702868D01*
X99092677Y-80400191D01*
X98935436Y-80083248D01*
X98556070Y-79894981D01*
X98147264Y-79784342D01*
X97724728Y-79755584D01*
X97304701Y-79809810D01*
X96903324Y-79944938D01*
X96805208Y-79997382D01*
X96860631Y-79863580D01*
X96925000Y-79539973D01*
X96925000Y-79210027D01*
X96860631Y-78886420D01*
X96802005Y-78744885D01*
X97023930Y-78855019D01*
X97432736Y-78965658D01*
X97855272Y-78994416D01*
X98275299Y-78940190D01*
X98676676Y-78805062D01*
X98935436Y-78666752D01*
X99092677Y-78349809D01*
X97790000Y-77047132D01*
X97775858Y-77061275D01*
X97563726Y-76849143D01*
X97577868Y-76835000D01*
X98002132Y-76835000D01*
X99304809Y-78137677D01*
X99621752Y-77980436D01*
X99810019Y-77601070D01*
X99920658Y-77192264D01*
X99949416Y-76769728D01*
X99895190Y-76349701D01*
X99760062Y-75948324D01*
X99621752Y-75689564D01*
X99304809Y-75532323D01*
X98002132Y-76835000D01*
X97577868Y-76835000D01*
X96275191Y-75532323D01*
X95958248Y-75689564D01*
X95769981Y-76068930D01*
X95659342Y-76477736D01*
X95630584Y-76900272D01*
X95684810Y-77320299D01*
X95819938Y-77721676D01*
X95872382Y-77819792D01*
X95738580Y-77764369D01*
X95414973Y-77700000D01*
X95085027Y-77700000D01*
X94761420Y-77764369D01*
X94619885Y-77822995D01*
X94730019Y-77601070D01*
X94840658Y-77192264D01*
X94869416Y-76769728D01*
X94815190Y-76349701D01*
X94680062Y-75948324D01*
X94541752Y-75689564D01*
X94224809Y-75532323D01*
X92922132Y-76835000D01*
X92936275Y-76849143D01*
X92724143Y-77061275D01*
X92710000Y-77047132D01*
X91407323Y-78349809D01*
X91564564Y-78666752D01*
X91943930Y-78855019D01*
X92352736Y-78965658D01*
X92775272Y-78994416D01*
X93195299Y-78940190D01*
X93596676Y-78805062D01*
X93694792Y-78752618D01*
X93639369Y-78886420D01*
X93575000Y-79210027D01*
X93575000Y-79539973D01*
X93639369Y-79863580D01*
X93697995Y-80005115D01*
X93476070Y-79894981D01*
X93067264Y-79784342D01*
X92644728Y-79755584D01*
X92224701Y-79809810D01*
X91823324Y-79944938D01*
X91564564Y-80083248D01*
X91407323Y-80400191D01*
X92710000Y-81702868D01*
X92724143Y-81688726D01*
X92936275Y-81900858D01*
X92922132Y-81915000D01*
X92936275Y-81929143D01*
X92724143Y-82141275D01*
X92710000Y-82127132D01*
X91407323Y-83429809D01*
X91564564Y-83746752D01*
X91943930Y-83935019D01*
X92352736Y-84045658D01*
X92775272Y-84074416D01*
X93195299Y-84020190D01*
X93596676Y-83885062D01*
X93850000Y-83749657D01*
X93850001Y-88320100D01*
X85595102Y-96575000D01*
X85542791Y-96575000D01*
X85185375Y-96646095D01*
X84848697Y-96785552D01*
X84545694Y-96988011D01*
X84288011Y-97245694D01*
X84137500Y-97470951D01*
X83986989Y-97245694D01*
X83729306Y-96988011D01*
X83426303Y-96785552D01*
X83120864Y-96659035D01*
X86666324Y-93113575D01*
X86719738Y-93069739D01*
X86763576Y-93016323D01*
X86763582Y-93016317D01*
X86833907Y-92930626D01*
X86894690Y-92856562D01*
X87024690Y-92613349D01*
X87104743Y-92349448D01*
X87125000Y-92143777D01*
X87125000Y-92143770D01*
X87131773Y-92075001D01*
X87125000Y-92006232D01*
X87125000Y-83749450D01*
X87498930Y-83935019D01*
X87907736Y-84045658D01*
X88330272Y-84074416D01*
X88750299Y-84020190D01*
X89151676Y-83885062D01*
X89410436Y-83746752D01*
X89567677Y-83429809D01*
X88265000Y-82127132D01*
X88250858Y-82141275D01*
X88038726Y-81929143D01*
X88052868Y-81915000D01*
X88477132Y-81915000D01*
X89779809Y-83217677D01*
X90096752Y-83060436D01*
X90285019Y-82681070D01*
X90395658Y-82272264D01*
X90415531Y-81980272D01*
X90550584Y-81980272D01*
X90604810Y-82400299D01*
X90739938Y-82801676D01*
X90878248Y-83060436D01*
X91195191Y-83217677D01*
X92497868Y-81915000D01*
X91195191Y-80612323D01*
X90878248Y-80769564D01*
X90689981Y-81148930D01*
X90579342Y-81557736D01*
X90550584Y-81980272D01*
X90415531Y-81980272D01*
X90424416Y-81849728D01*
X90370190Y-81429701D01*
X90235062Y-81028324D01*
X90096752Y-80769564D01*
X89779809Y-80612323D01*
X88477132Y-81915000D01*
X88052868Y-81915000D01*
X88038726Y-81900858D01*
X88250858Y-81688726D01*
X88265000Y-81702868D01*
X89567677Y-80400191D01*
X89410436Y-80083248D01*
X89031070Y-79894981D01*
X88622264Y-79784342D01*
X88199728Y-79755584D01*
X87779701Y-79809810D01*
X87378324Y-79944938D01*
X87280208Y-79997382D01*
X87335631Y-79863580D01*
X87400000Y-79539973D01*
X87400000Y-79210027D01*
X87335631Y-78886420D01*
X87277005Y-78744885D01*
X87498930Y-78855019D01*
X87907736Y-78965658D01*
X88330272Y-78994416D01*
X88750299Y-78940190D01*
X89151676Y-78805062D01*
X89410436Y-78666752D01*
X89567677Y-78349809D01*
X88265000Y-77047132D01*
X88250858Y-77061275D01*
X88038726Y-76849143D01*
X88052868Y-76835000D01*
X88477132Y-76835000D01*
X89779809Y-78137677D01*
X90096752Y-77980436D01*
X90285019Y-77601070D01*
X90395658Y-77192264D01*
X90415531Y-76900272D01*
X90550584Y-76900272D01*
X90604810Y-77320299D01*
X90739938Y-77721676D01*
X90878248Y-77980436D01*
X91195191Y-78137677D01*
X92497868Y-76835000D01*
X91195191Y-75532323D01*
X90878248Y-75689564D01*
X90689981Y-76068930D01*
X90579342Y-76477736D01*
X90550584Y-76900272D01*
X90415531Y-76900272D01*
X90424416Y-76769728D01*
X90370190Y-76349701D01*
X90235062Y-75948324D01*
X90096752Y-75689564D01*
X89779809Y-75532323D01*
X88477132Y-76835000D01*
X88052868Y-76835000D01*
X86750191Y-75532323D01*
X86433248Y-75689564D01*
X86244981Y-76068930D01*
X86134342Y-76477736D01*
X86105584Y-76900272D01*
X86159810Y-77320299D01*
X86294938Y-77721676D01*
X86347382Y-77819792D01*
X86213580Y-77764369D01*
X85889973Y-77700000D01*
X85560027Y-77700000D01*
X85236420Y-77764369D01*
X85094885Y-77822995D01*
X85205019Y-77601070D01*
X85315658Y-77192264D01*
X85344416Y-76769728D01*
X85290190Y-76349701D01*
X85155062Y-75948324D01*
X85016752Y-75689564D01*
X84699809Y-75532323D01*
X83397132Y-76835000D01*
X83411275Y-76849143D01*
X83199143Y-77061275D01*
X83185000Y-77047132D01*
X81882323Y-78349809D01*
X82039564Y-78666752D01*
X82418930Y-78855019D01*
X82827736Y-78965658D01*
X83250272Y-78994416D01*
X83670299Y-78940190D01*
X84071676Y-78805062D01*
X84169792Y-78752618D01*
X84114369Y-78886420D01*
X84050000Y-79210027D01*
X84050000Y-79539973D01*
X84114369Y-79863580D01*
X84172995Y-80005115D01*
X83951070Y-79894981D01*
X83542264Y-79784342D01*
X83119728Y-79755584D01*
X82699701Y-79809810D01*
X82298324Y-79944938D01*
X82039564Y-80083248D01*
X81882323Y-80400191D01*
X83185000Y-81702868D01*
X83199143Y-81688726D01*
X83411275Y-81900858D01*
X83397132Y-81915000D01*
X83411275Y-81929143D01*
X83199143Y-82141275D01*
X83185000Y-82127132D01*
X81882323Y-83429809D01*
X82039564Y-83746752D01*
X82418930Y-83935019D01*
X82827736Y-84045658D01*
X83250272Y-84074416D01*
X83670299Y-84020190D01*
X84071676Y-83885062D01*
X84325001Y-83749657D01*
X84325000Y-91495101D01*
X79245102Y-96575000D01*
X79192791Y-96575000D01*
X78835375Y-96646095D01*
X78498697Y-96785552D01*
X78195694Y-96988011D01*
X77938011Y-97245694D01*
X77787500Y-97470951D01*
X77636989Y-97245694D01*
X77379306Y-96988011D01*
X77076303Y-96785552D01*
X76770864Y-96659035D01*
X77141324Y-96288575D01*
X77194738Y-96244739D01*
X77238576Y-96191323D01*
X77238582Y-96191317D01*
X77308907Y-96105626D01*
X77369690Y-96031562D01*
X77499690Y-95788349D01*
X77579743Y-95524448D01*
X77600000Y-95318777D01*
X77600000Y-95318770D01*
X77606773Y-95250001D01*
X77600000Y-95181232D01*
X77600000Y-83749450D01*
X77973930Y-83935019D01*
X78382736Y-84045658D01*
X78805272Y-84074416D01*
X79225299Y-84020190D01*
X79626676Y-83885062D01*
X79885436Y-83746752D01*
X80042677Y-83429809D01*
X78740000Y-82127132D01*
X78725858Y-82141275D01*
X78513726Y-81929143D01*
X78527868Y-81915000D01*
X78952132Y-81915000D01*
X80254809Y-83217677D01*
X80571752Y-83060436D01*
X80760019Y-82681070D01*
X80870658Y-82272264D01*
X80890531Y-81980272D01*
X81025584Y-81980272D01*
X81079810Y-82400299D01*
X81214938Y-82801676D01*
X81353248Y-83060436D01*
X81670191Y-83217677D01*
X82972868Y-81915000D01*
X81670191Y-80612323D01*
X81353248Y-80769564D01*
X81164981Y-81148930D01*
X81054342Y-81557736D01*
X81025584Y-81980272D01*
X80890531Y-81980272D01*
X80899416Y-81849728D01*
X80845190Y-81429701D01*
X80710062Y-81028324D01*
X80571752Y-80769564D01*
X80254809Y-80612323D01*
X78952132Y-81915000D01*
X78527868Y-81915000D01*
X78513726Y-81900858D01*
X78725858Y-81688726D01*
X78740000Y-81702868D01*
X80042677Y-80400191D01*
X79885436Y-80083248D01*
X79506070Y-79894981D01*
X79097264Y-79784342D01*
X78674728Y-79755584D01*
X78254701Y-79809810D01*
X77853324Y-79944938D01*
X77755208Y-79997382D01*
X77810631Y-79863580D01*
X77875000Y-79539973D01*
X77875000Y-79210027D01*
X77810631Y-78886420D01*
X77752005Y-78744885D01*
X77973930Y-78855019D01*
X78382736Y-78965658D01*
X78805272Y-78994416D01*
X79225299Y-78940190D01*
X79626676Y-78805062D01*
X79885436Y-78666752D01*
X80042677Y-78349809D01*
X78740000Y-77047132D01*
X78725858Y-77061275D01*
X78513726Y-76849143D01*
X78527868Y-76835000D01*
X78952132Y-76835000D01*
X80254809Y-78137677D01*
X80571752Y-77980436D01*
X80760019Y-77601070D01*
X80870658Y-77192264D01*
X80890531Y-76900272D01*
X81025584Y-76900272D01*
X81079810Y-77320299D01*
X81214938Y-77721676D01*
X81353248Y-77980436D01*
X81670191Y-78137677D01*
X82972868Y-76835000D01*
X81670191Y-75532323D01*
X81353248Y-75689564D01*
X81164981Y-76068930D01*
X81054342Y-76477736D01*
X81025584Y-76900272D01*
X80890531Y-76900272D01*
X80899416Y-76769728D01*
X80845190Y-76349701D01*
X80710062Y-75948324D01*
X80571752Y-75689564D01*
X80254809Y-75532323D01*
X78952132Y-76835000D01*
X78527868Y-76835000D01*
X77225191Y-75532323D01*
X76908248Y-75689564D01*
X76719981Y-76068930D01*
X76609342Y-76477736D01*
X76580584Y-76900272D01*
X76634810Y-77320299D01*
X76769938Y-77721676D01*
X76822382Y-77819792D01*
X76688580Y-77764369D01*
X76364973Y-77700000D01*
X76035027Y-77700000D01*
X75711420Y-77764369D01*
X75569885Y-77822995D01*
X75680019Y-77601070D01*
X75790658Y-77192264D01*
X75819416Y-76769728D01*
X75765190Y-76349701D01*
X75630062Y-75948324D01*
X75491752Y-75689564D01*
X75174809Y-75532323D01*
X73872132Y-76835000D01*
X73886275Y-76849143D01*
X73674143Y-77061275D01*
X73660000Y-77047132D01*
X72357323Y-78349809D01*
X72514564Y-78666752D01*
X72893930Y-78855019D01*
X73302736Y-78965658D01*
X73725272Y-78994416D01*
X74145299Y-78940190D01*
X74546676Y-78805062D01*
X74644792Y-78752618D01*
X74589369Y-78886420D01*
X74525000Y-79210027D01*
X74525000Y-79539973D01*
X74589369Y-79863580D01*
X74647995Y-80005115D01*
X74426070Y-79894981D01*
X74017264Y-79784342D01*
X73594728Y-79755584D01*
X73174701Y-79809810D01*
X72773324Y-79944938D01*
X72514564Y-80083248D01*
X72357323Y-80400191D01*
X73660000Y-81702868D01*
X73674143Y-81688726D01*
X73886275Y-81900858D01*
X73872132Y-81915000D01*
X73886275Y-81929143D01*
X73674143Y-82141275D01*
X73660000Y-82127132D01*
X72357323Y-83429809D01*
X72514564Y-83746752D01*
X72893930Y-83935019D01*
X73302736Y-84045658D01*
X73725272Y-84074416D01*
X74145299Y-84020190D01*
X74546676Y-83885062D01*
X74800001Y-83749657D01*
X74800000Y-94670101D01*
X72895102Y-96575000D01*
X72842791Y-96575000D01*
X72485375Y-96646095D01*
X72148697Y-96785552D01*
X71845694Y-96988011D01*
X71588011Y-97245694D01*
X71437500Y-97470951D01*
X71286989Y-97245694D01*
X71029306Y-96988011D01*
X70726303Y-96785552D01*
X70389625Y-96646095D01*
X70032209Y-96575000D01*
X69667791Y-96575000D01*
X69310375Y-96646095D01*
X68973697Y-96785552D01*
X68670694Y-96988011D01*
X68413011Y-97245694D01*
X68262500Y-97470951D01*
X68111989Y-97245694D01*
X67854306Y-96988011D01*
X67551303Y-96785552D01*
X67214625Y-96646095D01*
X66857209Y-96575000D01*
X66804899Y-96575000D01*
X64900000Y-94670102D01*
X64900000Y-83749450D01*
X65273930Y-83935019D01*
X65682736Y-84045658D01*
X66105272Y-84074416D01*
X66525299Y-84020190D01*
X66926676Y-83885062D01*
X67185436Y-83746752D01*
X67342677Y-83429809D01*
X66040000Y-82127132D01*
X66025858Y-82141275D01*
X65813726Y-81929143D01*
X65827868Y-81915000D01*
X66252132Y-81915000D01*
X67554809Y-83217677D01*
X67871752Y-83060436D01*
X68060019Y-82681070D01*
X68170658Y-82272264D01*
X68190531Y-81980272D01*
X71500584Y-81980272D01*
X71554810Y-82400299D01*
X71689938Y-82801676D01*
X71828248Y-83060436D01*
X72145191Y-83217677D01*
X73447868Y-81915000D01*
X72145191Y-80612323D01*
X71828248Y-80769564D01*
X71639981Y-81148930D01*
X71529342Y-81557736D01*
X71500584Y-81980272D01*
X68190531Y-81980272D01*
X68199416Y-81849728D01*
X68145190Y-81429701D01*
X68010062Y-81028324D01*
X67871752Y-80769564D01*
X67554809Y-80612323D01*
X66252132Y-81915000D01*
X65827868Y-81915000D01*
X65813726Y-81900858D01*
X66025858Y-81688726D01*
X66040000Y-81702868D01*
X67342677Y-80400191D01*
X67185436Y-80083248D01*
X66806070Y-79894981D01*
X66397264Y-79784342D01*
X65974728Y-79755584D01*
X65554701Y-79809810D01*
X65153324Y-79944938D01*
X65055208Y-79997382D01*
X65110631Y-79863580D01*
X65175000Y-79539973D01*
X65175000Y-79210027D01*
X65110631Y-78886420D01*
X65052005Y-78744885D01*
X65273930Y-78855019D01*
X65682736Y-78965658D01*
X66105272Y-78994416D01*
X66525299Y-78940190D01*
X66926676Y-78805062D01*
X67185436Y-78666752D01*
X67342677Y-78349809D01*
X66040000Y-77047132D01*
X66025858Y-77061275D01*
X65813726Y-76849143D01*
X65827868Y-76835000D01*
X66252132Y-76835000D01*
X67554809Y-78137677D01*
X67871752Y-77980436D01*
X68060019Y-77601070D01*
X68170658Y-77192264D01*
X68190531Y-76900272D01*
X71500584Y-76900272D01*
X71554810Y-77320299D01*
X71689938Y-77721676D01*
X71828248Y-77980436D01*
X72145191Y-78137677D01*
X73447868Y-76835000D01*
X72145191Y-75532323D01*
X71828248Y-75689564D01*
X71639981Y-76068930D01*
X71529342Y-76477736D01*
X71500584Y-76900272D01*
X68190531Y-76900272D01*
X68199416Y-76769728D01*
X68145190Y-76349701D01*
X68010062Y-75948324D01*
X67871752Y-75689564D01*
X67554809Y-75532323D01*
X66252132Y-76835000D01*
X65827868Y-76835000D01*
X64525191Y-75532323D01*
X64208248Y-75689564D01*
X64019981Y-76068930D01*
X63909342Y-76477736D01*
X63880584Y-76900272D01*
X63934810Y-77320299D01*
X64069938Y-77721676D01*
X64122382Y-77819792D01*
X63988580Y-77764369D01*
X63664973Y-77700000D01*
X63335027Y-77700000D01*
X63011420Y-77764369D01*
X62869885Y-77822995D01*
X62980019Y-77601070D01*
X63090658Y-77192264D01*
X63119416Y-76769728D01*
X63065190Y-76349701D01*
X62930062Y-75948324D01*
X62791752Y-75689564D01*
X62474809Y-75532323D01*
X61172132Y-76835000D01*
X61186275Y-76849143D01*
X60974143Y-77061275D01*
X60960000Y-77047132D01*
X59657323Y-78349809D01*
X57817677Y-78349809D01*
X56515000Y-77047132D01*
X56500858Y-77061275D01*
X56288726Y-76849143D01*
X56302868Y-76835000D01*
X56727132Y-76835000D01*
X58029809Y-78137677D01*
X58346752Y-77980436D01*
X58535019Y-77601070D01*
X58645658Y-77192264D01*
X58665531Y-76900272D01*
X58800584Y-76900272D01*
X58854810Y-77320299D01*
X58989938Y-77721676D01*
X59128248Y-77980436D01*
X59445191Y-78137677D01*
X60747868Y-76835000D01*
X59445191Y-75532323D01*
X59128248Y-75689564D01*
X58939981Y-76068930D01*
X58829342Y-76477736D01*
X58800584Y-76900272D01*
X58665531Y-76900272D01*
X58674416Y-76769728D01*
X58620190Y-76349701D01*
X58485062Y-75948324D01*
X58346752Y-75689564D01*
X58029809Y-75532323D01*
X56727132Y-76835000D01*
X56302868Y-76835000D01*
X55000191Y-75532323D01*
X54683248Y-75689564D01*
X54494981Y-76068930D01*
X54384342Y-76477736D01*
X54355584Y-76900272D01*
X54409810Y-77320299D01*
X54544938Y-77721676D01*
X54597382Y-77819792D01*
X54463580Y-77764369D01*
X54139973Y-77700000D01*
X53810027Y-77700000D01*
X53486420Y-77764369D01*
X53344885Y-77822995D01*
X53455019Y-77601070D01*
X53565658Y-77192264D01*
X53594416Y-76769728D01*
X53540190Y-76349701D01*
X53405062Y-75948324D01*
X53266752Y-75689564D01*
X52949809Y-75532323D01*
X51647132Y-76835000D01*
X51661275Y-76849143D01*
X51449143Y-77061275D01*
X51435000Y-77047132D01*
X50132323Y-78349809D01*
X50289564Y-78666752D01*
X50668930Y-78855019D01*
X51077736Y-78965658D01*
X51500272Y-78994416D01*
X51920299Y-78940190D01*
X52321676Y-78805062D01*
X52419792Y-78752618D01*
X52364369Y-78886420D01*
X52300000Y-79210027D01*
X52300000Y-79539973D01*
X52364369Y-79863580D01*
X52422995Y-80005115D01*
X52201070Y-79894981D01*
X51792264Y-79784342D01*
X51369728Y-79755584D01*
X50949701Y-79809810D01*
X50548324Y-79944938D01*
X50289564Y-80083248D01*
X50132323Y-80400191D01*
X51435000Y-81702868D01*
X51449143Y-81688726D01*
X51661275Y-81900858D01*
X51647132Y-81915000D01*
X51661275Y-81929143D01*
X51449143Y-82141275D01*
X51435000Y-82127132D01*
X50132323Y-83429809D01*
X50289564Y-83746752D01*
X50668930Y-83935019D01*
X51077736Y-84045658D01*
X51500272Y-84074416D01*
X51920299Y-84020190D01*
X52321676Y-83885062D01*
X52575001Y-83749657D01*
X52575000Y-95181231D01*
X52568227Y-95250000D01*
X52575000Y-95318769D01*
X52575000Y-95318776D01*
X52595257Y-95524447D01*
X52675310Y-95788348D01*
X52805310Y-96031561D01*
X52980261Y-96244738D01*
X53033682Y-96288580D01*
X53404136Y-96659035D01*
X53098697Y-96785552D01*
X52795694Y-96988011D01*
X52538011Y-97245694D01*
X52387500Y-97470951D01*
X52236989Y-97245694D01*
X51979306Y-96988011D01*
X51676303Y-96785552D01*
X51339625Y-96646095D01*
X50982209Y-96575000D01*
X50929899Y-96575000D01*
X45850000Y-91495102D01*
X45850000Y-83749450D01*
X46223930Y-83935019D01*
X46632736Y-84045658D01*
X47055272Y-84074416D01*
X47475299Y-84020190D01*
X47876676Y-83885062D01*
X48135436Y-83746752D01*
X48292677Y-83429809D01*
X46990000Y-82127132D01*
X46975858Y-82141275D01*
X46763726Y-81929143D01*
X46777868Y-81915000D01*
X47202132Y-81915000D01*
X48504809Y-83217677D01*
X48821752Y-83060436D01*
X49010019Y-82681070D01*
X49120658Y-82272264D01*
X49140531Y-81980272D01*
X49275584Y-81980272D01*
X49329810Y-82400299D01*
X49464938Y-82801676D01*
X49603248Y-83060436D01*
X49920191Y-83217677D01*
X51222868Y-81915000D01*
X49920191Y-80612323D01*
X49603248Y-80769564D01*
X49414981Y-81148930D01*
X49304342Y-81557736D01*
X49275584Y-81980272D01*
X49140531Y-81980272D01*
X49149416Y-81849728D01*
X49095190Y-81429701D01*
X48960062Y-81028324D01*
X48821752Y-80769564D01*
X48504809Y-80612323D01*
X47202132Y-81915000D01*
X46777868Y-81915000D01*
X46763726Y-81900858D01*
X46975858Y-81688726D01*
X46990000Y-81702868D01*
X48292677Y-80400191D01*
X48135436Y-80083248D01*
X47756070Y-79894981D01*
X47347264Y-79784342D01*
X46924728Y-79755584D01*
X46504701Y-79809810D01*
X46103324Y-79944938D01*
X46005208Y-79997382D01*
X46060631Y-79863580D01*
X46125000Y-79539973D01*
X46125000Y-79210027D01*
X46060631Y-78886420D01*
X46002005Y-78744885D01*
X46223930Y-78855019D01*
X46632736Y-78965658D01*
X47055272Y-78994416D01*
X47475299Y-78940190D01*
X47876676Y-78805062D01*
X48135436Y-78666752D01*
X48292677Y-78349809D01*
X46990000Y-77047132D01*
X46975858Y-77061275D01*
X46763726Y-76849143D01*
X46777868Y-76835000D01*
X47202132Y-76835000D01*
X48504809Y-78137677D01*
X48821752Y-77980436D01*
X49010019Y-77601070D01*
X49120658Y-77192264D01*
X49140531Y-76900272D01*
X49275584Y-76900272D01*
X49329810Y-77320299D01*
X49464938Y-77721676D01*
X49603248Y-77980436D01*
X49920191Y-78137677D01*
X51222868Y-76835000D01*
X49920191Y-75532323D01*
X49603248Y-75689564D01*
X49414981Y-76068930D01*
X49304342Y-76477736D01*
X49275584Y-76900272D01*
X49140531Y-76900272D01*
X49149416Y-76769728D01*
X49095190Y-76349701D01*
X48960062Y-75948324D01*
X48821752Y-75689564D01*
X48504809Y-75532323D01*
X47202132Y-76835000D01*
X46777868Y-76835000D01*
X45475191Y-75532323D01*
X45158248Y-75689564D01*
X44969981Y-76068930D01*
X44859342Y-76477736D01*
X44830584Y-76900272D01*
X44884810Y-77320299D01*
X45019938Y-77721676D01*
X45072382Y-77819792D01*
X44938580Y-77764369D01*
X44614973Y-77700000D01*
X44285027Y-77700000D01*
X43961420Y-77764369D01*
X43819885Y-77822995D01*
X43930019Y-77601070D01*
X44040658Y-77192264D01*
X44069416Y-76769728D01*
X44015190Y-76349701D01*
X43880062Y-75948324D01*
X43741752Y-75689564D01*
X43424809Y-75532323D01*
X42122132Y-76835000D01*
X42136275Y-76849143D01*
X41924143Y-77061275D01*
X41910000Y-77047132D01*
X40607323Y-78349809D01*
X40764564Y-78666752D01*
X41143930Y-78855019D01*
X41552736Y-78965658D01*
X41975272Y-78994416D01*
X42395299Y-78940190D01*
X42796676Y-78805062D01*
X42894792Y-78752618D01*
X42839369Y-78886420D01*
X42775000Y-79210027D01*
X42775000Y-79539973D01*
X42839369Y-79863580D01*
X42897995Y-80005115D01*
X42676070Y-79894981D01*
X42267264Y-79784342D01*
X41844728Y-79755584D01*
X41424701Y-79809810D01*
X41023324Y-79944938D01*
X40764564Y-80083248D01*
X40607323Y-80400191D01*
X41910000Y-81702868D01*
X41924143Y-81688726D01*
X42136275Y-81900858D01*
X42122132Y-81915000D01*
X42136275Y-81929143D01*
X41924143Y-82141275D01*
X41910000Y-82127132D01*
X40607323Y-83429809D01*
X40764564Y-83746752D01*
X41143930Y-83935019D01*
X41552736Y-84045658D01*
X41975272Y-84074416D01*
X42395299Y-84020190D01*
X42796676Y-83885062D01*
X43050000Y-83749657D01*
X43050001Y-92006221D01*
X43043227Y-92075000D01*
X43070257Y-92349447D01*
X43070258Y-92349449D01*
X43150311Y-92613349D01*
X43280311Y-92856562D01*
X43356752Y-92949705D01*
X43411418Y-93016316D01*
X43411419Y-93016317D01*
X43455262Y-93069739D01*
X43508682Y-93113580D01*
X47054136Y-96659035D01*
X46748697Y-96785552D01*
X46445694Y-96988011D01*
X46188011Y-97245694D01*
X45985552Y-97548697D01*
X45983855Y-97552794D01*
X38775000Y-85538037D01*
X38775000Y-81980272D01*
X39750584Y-81980272D01*
X39804810Y-82400299D01*
X39939938Y-82801676D01*
X40078248Y-83060436D01*
X40395191Y-83217677D01*
X41697868Y-81915000D01*
X40395191Y-80612323D01*
X40078248Y-80769564D01*
X39889981Y-81148930D01*
X39779342Y-81557736D01*
X39750584Y-81980272D01*
X38775000Y-81980272D01*
X38775000Y-76900272D01*
X39750584Y-76900272D01*
X39804810Y-77320299D01*
X39939938Y-77721676D01*
X40078248Y-77980436D01*
X40395191Y-78137677D01*
X41697868Y-76835000D01*
X40395191Y-75532323D01*
X40078248Y-75689564D01*
X39889981Y-76068930D01*
X39779342Y-76477736D01*
X39750584Y-76900272D01*
X38775000Y-76900272D01*
X38775000Y-75320191D01*
X40607323Y-75320191D01*
X41910000Y-76622868D01*
X43212677Y-75320191D01*
X45687323Y-75320191D01*
X46990000Y-76622868D01*
X48292677Y-75320191D01*
X50132323Y-75320191D01*
X51435000Y-76622868D01*
X52737677Y-75320191D01*
X55212323Y-75320191D01*
X56515000Y-76622868D01*
X57817677Y-75320191D01*
X59657323Y-75320191D01*
X60960000Y-76622868D01*
X62262677Y-75320191D01*
X64737323Y-75320191D01*
X66040000Y-76622868D01*
X67342677Y-75320191D01*
X72357323Y-75320191D01*
X73660000Y-76622868D01*
X74962677Y-75320191D01*
X77437323Y-75320191D01*
X78740000Y-76622868D01*
X80042677Y-75320191D01*
X81882323Y-75320191D01*
X83185000Y-76622868D01*
X84487677Y-75320191D01*
X86962323Y-75320191D01*
X88265000Y-76622868D01*
X89567677Y-75320191D01*
X91407323Y-75320191D01*
X92710000Y-76622868D01*
X94012677Y-75320191D01*
X96487323Y-75320191D01*
X97790000Y-76622868D01*
X99092677Y-75320191D01*
X98935436Y-75003248D01*
X98556070Y-74814981D01*
X98147264Y-74704342D01*
X97724728Y-74675584D01*
X97304701Y-74729810D01*
X96903324Y-74864938D01*
X96644564Y-75003248D01*
X96487323Y-75320191D01*
X94012677Y-75320191D01*
X93855436Y-75003248D01*
X93476070Y-74814981D01*
X93067264Y-74704342D01*
X92644728Y-74675584D01*
X92224701Y-74729810D01*
X91823324Y-74864938D01*
X91564564Y-75003248D01*
X91407323Y-75320191D01*
X89567677Y-75320191D01*
X89410436Y-75003248D01*
X89031070Y-74814981D01*
X88622264Y-74704342D01*
X88199728Y-74675584D01*
X87779701Y-74729810D01*
X87378324Y-74864938D01*
X87119564Y-75003248D01*
X86962323Y-75320191D01*
X84487677Y-75320191D01*
X84330436Y-75003248D01*
X83951070Y-74814981D01*
X83542264Y-74704342D01*
X83119728Y-74675584D01*
X82699701Y-74729810D01*
X82298324Y-74864938D01*
X82039564Y-75003248D01*
X81882323Y-75320191D01*
X80042677Y-75320191D01*
X79885436Y-75003248D01*
X79506070Y-74814981D01*
X79097264Y-74704342D01*
X78674728Y-74675584D01*
X78254701Y-74729810D01*
X77853324Y-74864938D01*
X77594564Y-75003248D01*
X77437323Y-75320191D01*
X74962677Y-75320191D01*
X74805436Y-75003248D01*
X74426070Y-74814981D01*
X74017264Y-74704342D01*
X73594728Y-74675584D01*
X73174701Y-74729810D01*
X72773324Y-74864938D01*
X72514564Y-75003248D01*
X72357323Y-75320191D01*
X67342677Y-75320191D01*
X67185436Y-75003248D01*
X66806070Y-74814981D01*
X66397264Y-74704342D01*
X65974728Y-74675584D01*
X65554701Y-74729810D01*
X65153324Y-74864938D01*
X64894564Y-75003248D01*
X64737323Y-75320191D01*
X62262677Y-75320191D01*
X62105436Y-75003248D01*
X61726070Y-74814981D01*
X61317264Y-74704342D01*
X60894728Y-74675584D01*
X60474701Y-74729810D01*
X60073324Y-74864938D01*
X59814564Y-75003248D01*
X59657323Y-75320191D01*
X57817677Y-75320191D01*
X57660436Y-75003248D01*
X57281070Y-74814981D01*
X56872264Y-74704342D01*
X56449728Y-74675584D01*
X56029701Y-74729810D01*
X55628324Y-74864938D01*
X55369564Y-75003248D01*
X55212323Y-75320191D01*
X52737677Y-75320191D01*
X52580436Y-75003248D01*
X52201070Y-74814981D01*
X51792264Y-74704342D01*
X51369728Y-74675584D01*
X50949701Y-74729810D01*
X50548324Y-74864938D01*
X50289564Y-75003248D01*
X50132323Y-75320191D01*
X48292677Y-75320191D01*
X48135436Y-75003248D01*
X47756070Y-74814981D01*
X47347264Y-74704342D01*
X46924728Y-74675584D01*
X46504701Y-74729810D01*
X46103324Y-74864938D01*
X45844564Y-75003248D01*
X45687323Y-75320191D01*
X43212677Y-75320191D01*
X43055436Y-75003248D01*
X42676070Y-74814981D01*
X42267264Y-74704342D01*
X41844728Y-74675584D01*
X41424701Y-74729810D01*
X41023324Y-74864938D01*
X40764564Y-75003248D01*
X40607323Y-75320191D01*
X38775000Y-75320191D01*
X38775000Y-73700000D01*
X100925001Y-73700000D01*
X100925000Y-85488223D01*
G37*
%TD.AperFunction*%
%TD*%
M02*
