M48
; DRILL file {KiCad (5.1.9)-1} date 11/06/21 20:20:08
; FORMAT={-:-/ absolute / metric / decimal}
; #@! TF.CreationDate,2021-11-06T20:20:08+07:00
; #@! TF.GenerationSoftware,Kicad,Pcbnew,(5.1.9)-1
; #@! TF.FileFunction,Plated,1,2,PTH
FMAT,2
METRIC
T1C0.800
T2C1.000
T3C1.300
T4C1.500
T5C1.700
%
G90
G05
T1
X132.08Y-151.765
X132.08Y-161.925
X135.89Y-150.495
X135.89Y-153.035
X135.89Y-155.575
X135.89Y-158.115
X139.7Y-142.875
X139.7Y-146.685
X143.51Y-150.495
X143.51Y-153.035
X143.51Y-155.575
X143.51Y-158.115
X149.86Y-142.875
X149.86Y-146.685
X154.305Y-142.875
X154.305Y-153.035
X159.385Y-142.875
X159.385Y-153.035
T2
X132.08Y-142.955
X132.08Y-147.955
X137.24Y-137.795
X138.43Y-161.925
X140.97Y-161.925
X142.24Y-137.795
X143.51Y-161.925
X146.05Y-161.925
X147.4Y-137.795
X148.59Y-153.115
X148.59Y-158.115
X152.4Y-137.795
X159.385Y-134.62
X159.385Y-139.62
T3
X139.7Y-128.905
X144.78Y-128.905
X149.86Y-128.905
T4
X132.08Y-128.905
X157.48Y-128.905
X158.115Y-159.385
T5
X129.54Y-126.365
X129.54Y-131.445
X134.62Y-126.365
X134.62Y-131.445
X154.94Y-126.365
X154.94Y-131.445
X155.575Y-156.845
X155.575Y-161.925
X160.02Y-126.365
X160.02Y-131.445
X160.655Y-156.845
X160.655Y-161.925
T0
M30
