M48
; DRILL file {KiCad (5.1.9)-1} date 11/14/21 17:22:50
; FORMAT={-:-/ absolute / metric / decimal}
; #@! TF.CreationDate,2021-11-14T17:22:50+07:00
; #@! TF.GenerationSoftware,Kicad,Pcbnew,(5.1.9)-1
; #@! TF.FileFunction,Plated,1,2,PTH
FMAT,2
METRIC
T1C0.800
T2C1.000
T3C1.300
T4C1.500
T5C1.700
%
G90
G05
T1
X99.06Y-114.3
X99.06Y-121.92
X101.6Y-123.19
X101.6Y-125.73
X101.6Y-128.27
X101.6Y-130.81
X109.22Y-123.19
X109.22Y-125.73
X109.22Y-128.27
X109.22Y-130.81
X113.03Y-115.57
X113.03Y-125.73
X114.3Y-129.54
X116.84Y-115.57
X116.84Y-125.73
X116.84Y-129.54
X119.38Y-129.54
T2
X91.44Y-115.57
X91.44Y-118.11
X91.44Y-120.65
X91.44Y-123.19
X91.44Y-125.73
X93.98Y-115.57
X93.98Y-118.11
X93.98Y-120.65
X93.98Y-123.19
X93.98Y-125.73
X101.72Y-110.49
X101.72Y-116.84
X109.22Y-110.49
X109.22Y-116.84
X111.88Y-110.49
X119.38Y-110.49
T3
X125.73Y-107.95
X125.73Y-113.03
T4
X127.0Y-128.27
T5
X124.46Y-125.73
X124.46Y-130.81
X129.54Y-125.73
X129.54Y-130.81
T0
M30
