%TF.GenerationSoftware,KiCad,Pcbnew,(5.1.9)-1*%
%TF.CreationDate,2021-11-23T14:08:38+07:00*%
%TF.ProjectId,ADC_SMA,4144435f-534d-4412-9e6b-696361645f70,rev?*%
%TF.SameCoordinates,Original*%
%TF.FileFunction,Copper,L1,Top*%
%TF.FilePolarity,Positive*%
%FSLAX46Y46*%
G04 Gerber Fmt 4.6, Leading zero omitted, Abs format (unit mm)*
G04 Created by KiCad (PCBNEW (5.1.9)-1) date 2021-11-23 14:08:38*
%MOMM*%
%LPD*%
G01*
G04 APERTURE LIST*
%TA.AperFunction,ComponentPad*%
%ADD10C,2.400000*%
%TD*%
%TA.AperFunction,ComponentPad*%
%ADD11C,3.000000*%
%TD*%
%TA.AperFunction,ComponentPad*%
%ADD12C,2.050000*%
%TD*%
%TA.AperFunction,Conductor*%
%ADD13C,1.500000*%
%TD*%
%TA.AperFunction,Conductor*%
%ADD14C,1.000000*%
%TD*%
%TA.AperFunction,Conductor*%
%ADD15C,0.100000*%
%TD*%
G04 APERTURE END LIST*
D10*
%TO.P,J6,1*%
%TO.N,N/C*%
X104775000Y-104775000D03*
%TD*%
%TO.P,J6,1*%
%TO.N,N/C*%
X107950000Y-104775000D03*
%TD*%
%TO.P,J6,1*%
%TO.N,N/C*%
X111125000Y-104775000D03*
%TD*%
%TO.P,J6,1*%
%TO.N,N/C*%
X101600000Y-104775000D03*
%TD*%
%TO.P,J6,1*%
%TO.N,N/C*%
X117475000Y-104775000D03*
%TD*%
%TO.P,J6,1*%
%TO.N,N/C*%
X120650000Y-104775000D03*
%TD*%
D11*
%TO.P,J13,2*%
%TO.N,GNDA*%
X97790000Y-91440000D03*
X92710000Y-91440000D03*
X92710000Y-86360000D03*
X97790000Y-86360000D03*
D12*
%TO.P,J13,1*%
%TO.N,Net-(J13-Pad1)*%
X95250000Y-88900000D03*
%TD*%
D11*
%TO.P,J12,2*%
%TO.N,GNDA*%
X107315000Y-91440000D03*
X102235000Y-91440000D03*
X102235000Y-86360000D03*
X107315000Y-86360000D03*
D12*
%TO.P,J12,1*%
%TO.N,Net-(J12-Pad1)*%
X104775000Y-88900000D03*
%TD*%
D11*
%TO.P,J11,2*%
%TO.N,GNDA*%
X116840000Y-91440000D03*
X111760000Y-91440000D03*
X111760000Y-86360000D03*
X116840000Y-86360000D03*
D12*
%TO.P,J11,1*%
%TO.N,Net-(J11-Pad1)*%
X114300000Y-88900000D03*
%TD*%
D11*
%TO.P,J10,2*%
%TO.N,GNDA*%
X129540000Y-91440000D03*
X124460000Y-91440000D03*
X124460000Y-86360000D03*
X129540000Y-86360000D03*
D12*
%TO.P,J10,1*%
%TO.N,Net-(J10-Pad1)*%
X127000000Y-88900000D03*
%TD*%
D11*
%TO.P,J9,2*%
%TO.N,GNDA*%
X139065000Y-91440000D03*
X133985000Y-91440000D03*
X133985000Y-86360000D03*
X139065000Y-86360000D03*
D12*
%TO.P,J9,1*%
%TO.N,Net-(J2-Pad1)*%
X136525000Y-88900000D03*
%TD*%
D11*
%TO.P,J8,2*%
%TO.N,GNDA*%
X148590000Y-91440000D03*
X143510000Y-91440000D03*
X143510000Y-86360000D03*
X148590000Y-86360000D03*
D12*
%TO.P,J8,1*%
%TO.N,Net-(J1-Pad1)*%
X146050000Y-88900000D03*
%TD*%
D10*
%TO.P,J7,1*%
%TO.N,GNDA*%
X114300000Y-104775000D03*
%TD*%
%TO.P,J6,1*%
%TO.N,Net-(J13-Pad1)*%
X123825000Y-104775000D03*
%TD*%
%TO.P,J5,1*%
%TO.N,Net-(J12-Pad1)*%
X127000000Y-104775000D03*
%TD*%
%TO.P,J4,1*%
%TO.N,Net-(J11-Pad1)*%
X130175000Y-104775000D03*
%TD*%
%TO.P,J3,1*%
%TO.N,Net-(J10-Pad1)*%
X133350000Y-104775000D03*
%TD*%
%TO.P,J2,1*%
%TO.N,Net-(J2-Pad1)*%
X136525000Y-104775000D03*
%TD*%
%TO.P,J1,1*%
%TO.N,Net-(J1-Pad1)*%
X139700000Y-104775000D03*
%TD*%
D13*
%TO.N,Net-(J1-Pad1)*%
X139700000Y-104775000D02*
X146050000Y-98425000D01*
X146050000Y-98425000D02*
X146050000Y-88900000D01*
%TO.N,Net-(J2-Pad1)*%
X136525000Y-104775000D02*
X136525000Y-88900000D01*
%TO.N,Net-(J10-Pad1)*%
X133350000Y-104775000D02*
X133350000Y-95250000D01*
X127000000Y-92526002D02*
X127000000Y-88900000D01*
X129723998Y-95250000D02*
X127000000Y-92526002D01*
X133350000Y-95250000D02*
X129723998Y-95250000D01*
%TO.N,Net-(J11-Pad1)*%
X114300000Y-92526002D02*
X114300000Y-88900000D01*
X115663999Y-93890001D02*
X114300000Y-92526002D01*
X119290001Y-93890001D02*
X115663999Y-93890001D01*
X130175000Y-104775000D02*
X119290001Y-93890001D01*
%TO.N,Net-(J12-Pad1)*%
X104775000Y-92526002D02*
X104775000Y-88900000D01*
X107839009Y-95590011D02*
X104775000Y-92526002D01*
X117815011Y-95590011D02*
X107839009Y-95590011D01*
X127000000Y-104775000D02*
X117815011Y-95590011D01*
%TO.N,Net-(J13-Pad1)*%
X95250000Y-92526002D02*
X95250000Y-88900000D01*
X100014019Y-97290021D02*
X95250000Y-92526002D01*
X116340021Y-97290021D02*
X100014019Y-97290021D01*
X123825000Y-104775000D02*
X116340021Y-97290021D01*
%TD*%
D14*
%TO.N,GNDA*%
X151475001Y-94941666D02*
X142412501Y-107025000D01*
X98948725Y-107025000D01*
X97474626Y-104568168D01*
X99500000Y-104568168D01*
X99500000Y-104981832D01*
X99580702Y-105387547D01*
X99739004Y-105769723D01*
X99968823Y-106113672D01*
X100261328Y-106406177D01*
X100605277Y-106635996D01*
X100987453Y-106794298D01*
X101393168Y-106875000D01*
X101806832Y-106875000D01*
X102212547Y-106794298D01*
X102594723Y-106635996D01*
X102938672Y-106406177D01*
X103187500Y-106157349D01*
X103436328Y-106406177D01*
X103780277Y-106635996D01*
X104162453Y-106794298D01*
X104568168Y-106875000D01*
X104981832Y-106875000D01*
X105387547Y-106794298D01*
X105769723Y-106635996D01*
X106113672Y-106406177D01*
X106362500Y-106157349D01*
X106611328Y-106406177D01*
X106955277Y-106635996D01*
X107337453Y-106794298D01*
X107743168Y-106875000D01*
X108156832Y-106875000D01*
X108562547Y-106794298D01*
X108944723Y-106635996D01*
X109288672Y-106406177D01*
X109537500Y-106157349D01*
X109786328Y-106406177D01*
X110130277Y-106635996D01*
X110512453Y-106794298D01*
X110918168Y-106875000D01*
X111331832Y-106875000D01*
X111737547Y-106794298D01*
X112119723Y-106635996D01*
X112463672Y-106406177D01*
X112511472Y-106358377D01*
X113423730Y-106358377D01*
X113560394Y-106643631D01*
X113939157Y-106752016D01*
X114331787Y-106784425D01*
X114723196Y-106739613D01*
X115039606Y-106643631D01*
X115176270Y-106358377D01*
X114300000Y-105482107D01*
X113423730Y-106358377D01*
X112511472Y-106358377D01*
X112756177Y-106113672D01*
X112985996Y-105769723D01*
X113144298Y-105387547D01*
X113185008Y-105182885D01*
X113592893Y-104775000D01*
X113185008Y-104367115D01*
X113144298Y-104162453D01*
X112985996Y-103780277D01*
X112756177Y-103436328D01*
X112511472Y-103191623D01*
X113423730Y-103191623D01*
X114300000Y-104067893D01*
X115176270Y-103191623D01*
X115039606Y-102906369D01*
X114660843Y-102797984D01*
X114268213Y-102765575D01*
X113876804Y-102810387D01*
X113560394Y-102906369D01*
X113423730Y-103191623D01*
X112511472Y-103191623D01*
X112463672Y-103143823D01*
X112119723Y-102914004D01*
X111737547Y-102755702D01*
X111331832Y-102675000D01*
X110918168Y-102675000D01*
X110512453Y-102755702D01*
X110130277Y-102914004D01*
X109786328Y-103143823D01*
X109537500Y-103392651D01*
X109288672Y-103143823D01*
X108944723Y-102914004D01*
X108562547Y-102755702D01*
X108156832Y-102675000D01*
X107743168Y-102675000D01*
X107337453Y-102755702D01*
X106955277Y-102914004D01*
X106611328Y-103143823D01*
X106362500Y-103392651D01*
X106113672Y-103143823D01*
X105769723Y-102914004D01*
X105387547Y-102755702D01*
X104981832Y-102675000D01*
X104568168Y-102675000D01*
X104162453Y-102755702D01*
X103780277Y-102914004D01*
X103436328Y-103143823D01*
X103187500Y-103392651D01*
X102938672Y-103143823D01*
X102594723Y-102914004D01*
X102212547Y-102755702D01*
X101806832Y-102675000D01*
X101393168Y-102675000D01*
X100987453Y-102755702D01*
X100605277Y-102914004D01*
X100261328Y-103143823D01*
X99968823Y-103436328D01*
X99739004Y-103780277D01*
X99580702Y-104162453D01*
X99500000Y-104568168D01*
X97474626Y-104568168D01*
X89825000Y-91818792D01*
X89825000Y-91399440D01*
X90399227Y-91399440D01*
X90435714Y-91851028D01*
X90559601Y-92286822D01*
X90590645Y-92361767D01*
X90906125Y-92536769D01*
X92002893Y-91440000D01*
X90906125Y-90343231D01*
X90590645Y-90518233D01*
X90451541Y-90949409D01*
X90399227Y-91399440D01*
X89825000Y-91399440D01*
X89825000Y-88163875D01*
X91613231Y-88163875D01*
X91788233Y-88479355D01*
X92219409Y-88618459D01*
X92669440Y-88670773D01*
X93121028Y-88634286D01*
X93353274Y-88568263D01*
X93325000Y-88710404D01*
X93325000Y-89089596D01*
X93353074Y-89230734D01*
X93200591Y-89181541D01*
X92750560Y-89129227D01*
X92298972Y-89165714D01*
X91863178Y-89289601D01*
X91788233Y-89320645D01*
X91613231Y-89636125D01*
X92710000Y-90732893D01*
X92724142Y-90718751D01*
X93431249Y-91425858D01*
X93417107Y-91440000D01*
X93431249Y-91454142D01*
X92724142Y-92161249D01*
X92710000Y-92147107D01*
X91613231Y-93243875D01*
X91788233Y-93559355D01*
X92219409Y-93698459D01*
X92669440Y-93750773D01*
X93121028Y-93714286D01*
X93556822Y-93590399D01*
X93631767Y-93559355D01*
X93784375Y-93284245D01*
X93871438Y-93447127D01*
X94077629Y-93698373D01*
X94140593Y-93750046D01*
X98789979Y-98399433D01*
X98841648Y-98462392D01*
X99092893Y-98668583D01*
X99379536Y-98821798D01*
X99690563Y-98916146D01*
X99932967Y-98940021D01*
X99932976Y-98940021D01*
X100014018Y-98948003D01*
X100095060Y-98940021D01*
X115656570Y-98940021D01*
X119640456Y-102923907D01*
X119311328Y-103143823D01*
X119062500Y-103392651D01*
X118813672Y-103143823D01*
X118469723Y-102914004D01*
X118087547Y-102755702D01*
X117681832Y-102675000D01*
X117268168Y-102675000D01*
X116862453Y-102755702D01*
X116480277Y-102914004D01*
X116136328Y-103143823D01*
X115843823Y-103436328D01*
X115614004Y-103780277D01*
X115455702Y-104162453D01*
X115414992Y-104367115D01*
X115007107Y-104775000D01*
X115414992Y-105182885D01*
X115455702Y-105387547D01*
X115614004Y-105769723D01*
X115843823Y-106113672D01*
X116136328Y-106406177D01*
X116480277Y-106635996D01*
X116862453Y-106794298D01*
X117268168Y-106875000D01*
X117681832Y-106875000D01*
X118087547Y-106794298D01*
X118469723Y-106635996D01*
X118813672Y-106406177D01*
X119062500Y-106157349D01*
X119311328Y-106406177D01*
X119655277Y-106635996D01*
X120037453Y-106794298D01*
X120443168Y-106875000D01*
X120856832Y-106875000D01*
X121262547Y-106794298D01*
X121644723Y-106635996D01*
X121988672Y-106406177D01*
X122237500Y-106157349D01*
X122486328Y-106406177D01*
X122830277Y-106635996D01*
X123212453Y-106794298D01*
X123618168Y-106875000D01*
X124031832Y-106875000D01*
X124437547Y-106794298D01*
X124819723Y-106635996D01*
X125163672Y-106406177D01*
X125412500Y-106157349D01*
X125661328Y-106406177D01*
X126005277Y-106635996D01*
X126387453Y-106794298D01*
X126793168Y-106875000D01*
X127206832Y-106875000D01*
X127612547Y-106794298D01*
X127994723Y-106635996D01*
X128338672Y-106406177D01*
X128587500Y-106157349D01*
X128836328Y-106406177D01*
X129180277Y-106635996D01*
X129562453Y-106794298D01*
X129968168Y-106875000D01*
X130381832Y-106875000D01*
X130787547Y-106794298D01*
X131169723Y-106635996D01*
X131513672Y-106406177D01*
X131762500Y-106157349D01*
X132011328Y-106406177D01*
X132355277Y-106635996D01*
X132737453Y-106794298D01*
X133143168Y-106875000D01*
X133556832Y-106875000D01*
X133962547Y-106794298D01*
X134344723Y-106635996D01*
X134688672Y-106406177D01*
X134937500Y-106157349D01*
X135186328Y-106406177D01*
X135530277Y-106635996D01*
X135912453Y-106794298D01*
X136318168Y-106875000D01*
X136731832Y-106875000D01*
X137137547Y-106794298D01*
X137519723Y-106635996D01*
X137863672Y-106406177D01*
X138112500Y-106157349D01*
X138361328Y-106406177D01*
X138705277Y-106635996D01*
X139087453Y-106794298D01*
X139493168Y-106875000D01*
X139906832Y-106875000D01*
X140312547Y-106794298D01*
X140694723Y-106635996D01*
X141038672Y-106406177D01*
X141331177Y-106113672D01*
X141560996Y-105769723D01*
X141719298Y-105387547D01*
X141793390Y-105015061D01*
X147159413Y-99649039D01*
X147222371Y-99597371D01*
X147428562Y-99346126D01*
X147581777Y-99059483D01*
X147676125Y-98748456D01*
X147700000Y-98506052D01*
X147700000Y-98506043D01*
X147707982Y-98425001D01*
X147700000Y-98343959D01*
X147700000Y-93569604D01*
X148099409Y-93698459D01*
X148549440Y-93750773D01*
X149001028Y-93714286D01*
X149436822Y-93590399D01*
X149511767Y-93559355D01*
X149686769Y-93243875D01*
X148590000Y-92147107D01*
X148575858Y-92161249D01*
X147868751Y-91454142D01*
X147882893Y-91440000D01*
X149297107Y-91440000D01*
X150393875Y-92536769D01*
X150709355Y-92361767D01*
X150848459Y-91930591D01*
X150900773Y-91480560D01*
X150864286Y-91028972D01*
X150740399Y-90593178D01*
X150709355Y-90518233D01*
X150393875Y-90343231D01*
X149297107Y-91440000D01*
X147882893Y-91440000D01*
X147868751Y-91425858D01*
X148575858Y-90718751D01*
X148590000Y-90732893D01*
X149686769Y-89636125D01*
X149511767Y-89320645D01*
X149080591Y-89181541D01*
X148630560Y-89129227D01*
X148178972Y-89165714D01*
X147946726Y-89231737D01*
X147975000Y-89089596D01*
X147975000Y-88710404D01*
X147946926Y-88569266D01*
X148099409Y-88618459D01*
X148549440Y-88670773D01*
X149001028Y-88634286D01*
X149436822Y-88510399D01*
X149511767Y-88479355D01*
X149686769Y-88163875D01*
X148590000Y-87067107D01*
X148575858Y-87081249D01*
X147868751Y-86374142D01*
X147882893Y-86360000D01*
X149297107Y-86360000D01*
X150393875Y-87456769D01*
X150709355Y-87281767D01*
X150848459Y-86850591D01*
X150900773Y-86400560D01*
X150864286Y-85948972D01*
X150740399Y-85513178D01*
X150709355Y-85438233D01*
X150393875Y-85263231D01*
X149297107Y-86360000D01*
X147882893Y-86360000D01*
X146786125Y-85263231D01*
X146470645Y-85438233D01*
X146331541Y-85869409D01*
X146279227Y-86319440D01*
X146315714Y-86771028D01*
X146381737Y-87003274D01*
X146239596Y-86975000D01*
X145860404Y-86975000D01*
X145719266Y-87003074D01*
X145768459Y-86850591D01*
X145820773Y-86400560D01*
X145784286Y-85948972D01*
X145660399Y-85513178D01*
X145629355Y-85438233D01*
X145313875Y-85263231D01*
X144217107Y-86360000D01*
X144231249Y-86374142D01*
X143524142Y-87081249D01*
X143510000Y-87067107D01*
X142413231Y-88163875D01*
X142588233Y-88479355D01*
X143019409Y-88618459D01*
X143469440Y-88670773D01*
X143921028Y-88634286D01*
X144153274Y-88568263D01*
X144125000Y-88710404D01*
X144125000Y-89089596D01*
X144153074Y-89230734D01*
X144000591Y-89181541D01*
X143550560Y-89129227D01*
X143098972Y-89165714D01*
X142663178Y-89289601D01*
X142588233Y-89320645D01*
X142413231Y-89636125D01*
X143510000Y-90732893D01*
X143524142Y-90718751D01*
X144231249Y-91425858D01*
X144217107Y-91440000D01*
X144231249Y-91454142D01*
X143524142Y-92161249D01*
X143510000Y-92147107D01*
X142413231Y-93243875D01*
X142588233Y-93559355D01*
X143019409Y-93698459D01*
X143469440Y-93750773D01*
X143921028Y-93714286D01*
X144356822Y-93590399D01*
X144400001Y-93572513D01*
X144400000Y-97741548D01*
X139459939Y-102681610D01*
X139087453Y-102755702D01*
X138705277Y-102914004D01*
X138361328Y-103143823D01*
X138175000Y-103330151D01*
X138175000Y-93569604D01*
X138574409Y-93698459D01*
X139024440Y-93750773D01*
X139476028Y-93714286D01*
X139911822Y-93590399D01*
X139986767Y-93559355D01*
X140161769Y-93243875D01*
X139065000Y-92147107D01*
X139050858Y-92161249D01*
X138343751Y-91454142D01*
X138357893Y-91440000D01*
X139772107Y-91440000D01*
X140868875Y-92536769D01*
X141184355Y-92361767D01*
X141288839Y-92037903D01*
X141359601Y-92286822D01*
X141390645Y-92361767D01*
X141706125Y-92536769D01*
X142802893Y-91440000D01*
X141706125Y-90343231D01*
X141390645Y-90518233D01*
X141286161Y-90842097D01*
X141215399Y-90593178D01*
X141184355Y-90518233D01*
X140868875Y-90343231D01*
X139772107Y-91440000D01*
X138357893Y-91440000D01*
X138343751Y-91425858D01*
X139050858Y-90718751D01*
X139065000Y-90732893D01*
X140161769Y-89636125D01*
X139986767Y-89320645D01*
X139555591Y-89181541D01*
X139105560Y-89129227D01*
X138653972Y-89165714D01*
X138421726Y-89231737D01*
X138450000Y-89089596D01*
X138450000Y-88710404D01*
X138421926Y-88569266D01*
X138574409Y-88618459D01*
X139024440Y-88670773D01*
X139476028Y-88634286D01*
X139911822Y-88510399D01*
X139986767Y-88479355D01*
X140161769Y-88163875D01*
X139065000Y-87067107D01*
X139050858Y-87081249D01*
X138343751Y-86374142D01*
X138357893Y-86360000D01*
X139772107Y-86360000D01*
X140868875Y-87456769D01*
X141184355Y-87281767D01*
X141288839Y-86957903D01*
X141359601Y-87206822D01*
X141390645Y-87281767D01*
X141706125Y-87456769D01*
X142802893Y-86360000D01*
X141706125Y-85263231D01*
X141390645Y-85438233D01*
X141286161Y-85762097D01*
X141215399Y-85513178D01*
X141184355Y-85438233D01*
X140868875Y-85263231D01*
X139772107Y-86360000D01*
X138357893Y-86360000D01*
X137261125Y-85263231D01*
X136945645Y-85438233D01*
X136806541Y-85869409D01*
X136754227Y-86319440D01*
X136790714Y-86771028D01*
X136856737Y-87003274D01*
X136714596Y-86975000D01*
X136335404Y-86975000D01*
X136194266Y-87003074D01*
X136243459Y-86850591D01*
X136295773Y-86400560D01*
X136259286Y-85948972D01*
X136135399Y-85513178D01*
X136104355Y-85438233D01*
X135788875Y-85263231D01*
X134692107Y-86360000D01*
X134706249Y-86374142D01*
X133999142Y-87081249D01*
X133985000Y-87067107D01*
X132888231Y-88163875D01*
X133063233Y-88479355D01*
X133494409Y-88618459D01*
X133944440Y-88670773D01*
X134396028Y-88634286D01*
X134628274Y-88568263D01*
X134600000Y-88710404D01*
X134600000Y-89089596D01*
X134628074Y-89230734D01*
X134475591Y-89181541D01*
X134025560Y-89129227D01*
X133573972Y-89165714D01*
X133138178Y-89289601D01*
X133063233Y-89320645D01*
X132888231Y-89636125D01*
X133985000Y-90732893D01*
X133999142Y-90718751D01*
X134706249Y-91425858D01*
X134692107Y-91440000D01*
X134706249Y-91454142D01*
X133999142Y-92161249D01*
X133985000Y-92147107D01*
X132888231Y-93243875D01*
X133063233Y-93559355D01*
X133189219Y-93600000D01*
X130407450Y-93600000D01*
X130394619Y-93587169D01*
X130461767Y-93559355D01*
X130636769Y-93243875D01*
X129540000Y-92147107D01*
X129525858Y-92161249D01*
X128818751Y-91454142D01*
X128832893Y-91440000D01*
X130247107Y-91440000D01*
X131343875Y-92536769D01*
X131659355Y-92361767D01*
X131763839Y-92037903D01*
X131834601Y-92286822D01*
X131865645Y-92361767D01*
X132181125Y-92536769D01*
X133277893Y-91440000D01*
X132181125Y-90343231D01*
X131865645Y-90518233D01*
X131761161Y-90842097D01*
X131690399Y-90593178D01*
X131659355Y-90518233D01*
X131343875Y-90343231D01*
X130247107Y-91440000D01*
X128832893Y-91440000D01*
X128818751Y-91425858D01*
X129525858Y-90718751D01*
X129540000Y-90732893D01*
X130636769Y-89636125D01*
X130461767Y-89320645D01*
X130030591Y-89181541D01*
X129580560Y-89129227D01*
X129128972Y-89165714D01*
X128896726Y-89231737D01*
X128925000Y-89089596D01*
X128925000Y-88710404D01*
X128896926Y-88569266D01*
X129049409Y-88618459D01*
X129499440Y-88670773D01*
X129951028Y-88634286D01*
X130386822Y-88510399D01*
X130461767Y-88479355D01*
X130636769Y-88163875D01*
X129540000Y-87067107D01*
X129525858Y-87081249D01*
X128818751Y-86374142D01*
X128832893Y-86360000D01*
X130247107Y-86360000D01*
X131343875Y-87456769D01*
X131659355Y-87281767D01*
X131763839Y-86957903D01*
X131834601Y-87206822D01*
X131865645Y-87281767D01*
X132181125Y-87456769D01*
X133277893Y-86360000D01*
X132181125Y-85263231D01*
X131865645Y-85438233D01*
X131761161Y-85762097D01*
X131690399Y-85513178D01*
X131659355Y-85438233D01*
X131343875Y-85263231D01*
X130247107Y-86360000D01*
X128832893Y-86360000D01*
X127736125Y-85263231D01*
X127420645Y-85438233D01*
X127281541Y-85869409D01*
X127229227Y-86319440D01*
X127265714Y-86771028D01*
X127331737Y-87003274D01*
X127189596Y-86975000D01*
X126810404Y-86975000D01*
X126669266Y-87003074D01*
X126718459Y-86850591D01*
X126770773Y-86400560D01*
X126734286Y-85948972D01*
X126610399Y-85513178D01*
X126579355Y-85438233D01*
X126263875Y-85263231D01*
X125167107Y-86360000D01*
X125181249Y-86374142D01*
X124474142Y-87081249D01*
X124460000Y-87067107D01*
X123363231Y-88163875D01*
X123538233Y-88479355D01*
X123969409Y-88618459D01*
X124419440Y-88670773D01*
X124871028Y-88634286D01*
X125103274Y-88568263D01*
X125075000Y-88710404D01*
X125075000Y-89089596D01*
X125103074Y-89230734D01*
X124950591Y-89181541D01*
X124500560Y-89129227D01*
X124048972Y-89165714D01*
X123613178Y-89289601D01*
X123538233Y-89320645D01*
X123363231Y-89636125D01*
X124460000Y-90732893D01*
X124474142Y-90718751D01*
X125181249Y-91425858D01*
X125167107Y-91440000D01*
X125181249Y-91454142D01*
X124474142Y-92161249D01*
X124460000Y-92147107D01*
X123363231Y-93243875D01*
X123538233Y-93559355D01*
X123969409Y-93698459D01*
X124419440Y-93750773D01*
X124871028Y-93714286D01*
X125306822Y-93590399D01*
X125381767Y-93559355D01*
X125534375Y-93284245D01*
X125621438Y-93447127D01*
X125827629Y-93698373D01*
X125890593Y-93750046D01*
X128499958Y-96359412D01*
X128551627Y-96422371D01*
X128614584Y-96474038D01*
X128802871Y-96628562D01*
X129089515Y-96781777D01*
X129400541Y-96876125D01*
X129723998Y-96907983D01*
X129805050Y-96900000D01*
X131700001Y-96900000D01*
X131700000Y-103330151D01*
X131513672Y-103143823D01*
X131169723Y-102914004D01*
X130787547Y-102755702D01*
X130415062Y-102681610D01*
X120514046Y-92780595D01*
X120462372Y-92717630D01*
X120211127Y-92511439D01*
X119924484Y-92358224D01*
X119613457Y-92263876D01*
X119371053Y-92240001D01*
X119371043Y-92240001D01*
X119290001Y-92232019D01*
X119208959Y-92240001D01*
X118998639Y-92240001D01*
X119098459Y-91930591D01*
X119150773Y-91480560D01*
X119144219Y-91399440D01*
X122149227Y-91399440D01*
X122185714Y-91851028D01*
X122309601Y-92286822D01*
X122340645Y-92361767D01*
X122656125Y-92536769D01*
X123752893Y-91440000D01*
X122656125Y-90343231D01*
X122340645Y-90518233D01*
X122201541Y-90949409D01*
X122149227Y-91399440D01*
X119144219Y-91399440D01*
X119114286Y-91028972D01*
X118990399Y-90593178D01*
X118959355Y-90518233D01*
X118643875Y-90343231D01*
X117547107Y-91440000D01*
X117561249Y-91454142D01*
X116854142Y-92161249D01*
X116840000Y-92147107D01*
X116825858Y-92161249D01*
X116118751Y-91454142D01*
X116132893Y-91440000D01*
X116118751Y-91425858D01*
X116825858Y-90718751D01*
X116840000Y-90732893D01*
X117936769Y-89636125D01*
X117761767Y-89320645D01*
X117330591Y-89181541D01*
X116880560Y-89129227D01*
X116428972Y-89165714D01*
X116196726Y-89231737D01*
X116225000Y-89089596D01*
X116225000Y-88710404D01*
X116196926Y-88569266D01*
X116349409Y-88618459D01*
X116799440Y-88670773D01*
X117251028Y-88634286D01*
X117686822Y-88510399D01*
X117761767Y-88479355D01*
X117936769Y-88163875D01*
X116840000Y-87067107D01*
X116825858Y-87081249D01*
X116118751Y-86374142D01*
X116132893Y-86360000D01*
X117547107Y-86360000D01*
X118643875Y-87456769D01*
X118959355Y-87281767D01*
X119098459Y-86850591D01*
X119150773Y-86400560D01*
X119144219Y-86319440D01*
X122149227Y-86319440D01*
X122185714Y-86771028D01*
X122309601Y-87206822D01*
X122340645Y-87281767D01*
X122656125Y-87456769D01*
X123752893Y-86360000D01*
X122656125Y-85263231D01*
X122340645Y-85438233D01*
X122201541Y-85869409D01*
X122149227Y-86319440D01*
X119144219Y-86319440D01*
X119114286Y-85948972D01*
X118990399Y-85513178D01*
X118959355Y-85438233D01*
X118643875Y-85263231D01*
X117547107Y-86360000D01*
X116132893Y-86360000D01*
X115036125Y-85263231D01*
X114720645Y-85438233D01*
X114581541Y-85869409D01*
X114529227Y-86319440D01*
X114565714Y-86771028D01*
X114631737Y-87003274D01*
X114489596Y-86975000D01*
X114110404Y-86975000D01*
X113969266Y-87003074D01*
X114018459Y-86850591D01*
X114070773Y-86400560D01*
X114034286Y-85948972D01*
X113910399Y-85513178D01*
X113879355Y-85438233D01*
X113563875Y-85263231D01*
X112467107Y-86360000D01*
X112481249Y-86374142D01*
X111774142Y-87081249D01*
X111760000Y-87067107D01*
X110663231Y-88163875D01*
X110838233Y-88479355D01*
X111269409Y-88618459D01*
X111719440Y-88670773D01*
X112171028Y-88634286D01*
X112403274Y-88568263D01*
X112375000Y-88710404D01*
X112375000Y-89089596D01*
X112403074Y-89230734D01*
X112250591Y-89181541D01*
X111800560Y-89129227D01*
X111348972Y-89165714D01*
X110913178Y-89289601D01*
X110838233Y-89320645D01*
X110663231Y-89636125D01*
X111760000Y-90732893D01*
X111774142Y-90718751D01*
X112481249Y-91425858D01*
X112467107Y-91440000D01*
X112481249Y-91454142D01*
X111774142Y-92161249D01*
X111760000Y-92147107D01*
X110663231Y-93243875D01*
X110838233Y-93559355D01*
X111269409Y-93698459D01*
X111719440Y-93750773D01*
X112171028Y-93714286D01*
X112606822Y-93590399D01*
X112681767Y-93559355D01*
X112834375Y-93284245D01*
X112921438Y-93447127D01*
X113127629Y-93698373D01*
X113190593Y-93750046D01*
X113380558Y-93940011D01*
X108522461Y-93940011D01*
X108169619Y-93587169D01*
X108236767Y-93559355D01*
X108411769Y-93243875D01*
X107315000Y-92147107D01*
X107300858Y-92161249D01*
X106593751Y-91454142D01*
X106607893Y-91440000D01*
X108022107Y-91440000D01*
X109118875Y-92536769D01*
X109434355Y-92361767D01*
X109538839Y-92037903D01*
X109609601Y-92286822D01*
X109640645Y-92361767D01*
X109956125Y-92536769D01*
X111052893Y-91440000D01*
X109956125Y-90343231D01*
X109640645Y-90518233D01*
X109536161Y-90842097D01*
X109465399Y-90593178D01*
X109434355Y-90518233D01*
X109118875Y-90343231D01*
X108022107Y-91440000D01*
X106607893Y-91440000D01*
X106593751Y-91425858D01*
X107300858Y-90718751D01*
X107315000Y-90732893D01*
X108411769Y-89636125D01*
X108236767Y-89320645D01*
X107805591Y-89181541D01*
X107355560Y-89129227D01*
X106903972Y-89165714D01*
X106671726Y-89231737D01*
X106700000Y-89089596D01*
X106700000Y-88710404D01*
X106671926Y-88569266D01*
X106824409Y-88618459D01*
X107274440Y-88670773D01*
X107726028Y-88634286D01*
X108161822Y-88510399D01*
X108236767Y-88479355D01*
X108411769Y-88163875D01*
X107315000Y-87067107D01*
X107300858Y-87081249D01*
X106593751Y-86374142D01*
X106607893Y-86360000D01*
X108022107Y-86360000D01*
X109118875Y-87456769D01*
X109434355Y-87281767D01*
X109538839Y-86957903D01*
X109609601Y-87206822D01*
X109640645Y-87281767D01*
X109956125Y-87456769D01*
X111052893Y-86360000D01*
X109956125Y-85263231D01*
X109640645Y-85438233D01*
X109536161Y-85762097D01*
X109465399Y-85513178D01*
X109434355Y-85438233D01*
X109118875Y-85263231D01*
X108022107Y-86360000D01*
X106607893Y-86360000D01*
X105511125Y-85263231D01*
X105195645Y-85438233D01*
X105056541Y-85869409D01*
X105004227Y-86319440D01*
X105040714Y-86771028D01*
X105106737Y-87003274D01*
X104964596Y-86975000D01*
X104585404Y-86975000D01*
X104444266Y-87003074D01*
X104493459Y-86850591D01*
X104545773Y-86400560D01*
X104509286Y-85948972D01*
X104385399Y-85513178D01*
X104354355Y-85438233D01*
X104038875Y-85263231D01*
X102942107Y-86360000D01*
X102956249Y-86374142D01*
X102249142Y-87081249D01*
X102235000Y-87067107D01*
X101138231Y-88163875D01*
X101313233Y-88479355D01*
X101744409Y-88618459D01*
X102194440Y-88670773D01*
X102646028Y-88634286D01*
X102878274Y-88568263D01*
X102850000Y-88710404D01*
X102850000Y-89089596D01*
X102878074Y-89230734D01*
X102725591Y-89181541D01*
X102275560Y-89129227D01*
X101823972Y-89165714D01*
X101388178Y-89289601D01*
X101313233Y-89320645D01*
X101138231Y-89636125D01*
X102235000Y-90732893D01*
X102249142Y-90718751D01*
X102956249Y-91425858D01*
X102942107Y-91440000D01*
X102956249Y-91454142D01*
X102249142Y-92161249D01*
X102235000Y-92147107D01*
X101138231Y-93243875D01*
X101313233Y-93559355D01*
X101744409Y-93698459D01*
X102194440Y-93750773D01*
X102646028Y-93714286D01*
X103081822Y-93590399D01*
X103156767Y-93559355D01*
X103309375Y-93284245D01*
X103396438Y-93447127D01*
X103602629Y-93698373D01*
X103665593Y-93750046D01*
X105555567Y-95640021D01*
X100697471Y-95640021D01*
X98644619Y-93587169D01*
X98711767Y-93559355D01*
X98886769Y-93243875D01*
X97790000Y-92147107D01*
X97775858Y-92161249D01*
X97068751Y-91454142D01*
X97082893Y-91440000D01*
X98497107Y-91440000D01*
X99593875Y-92536769D01*
X99909355Y-92361767D01*
X100013839Y-92037903D01*
X100084601Y-92286822D01*
X100115645Y-92361767D01*
X100431125Y-92536769D01*
X101527893Y-91440000D01*
X100431125Y-90343231D01*
X100115645Y-90518233D01*
X100011161Y-90842097D01*
X99940399Y-90593178D01*
X99909355Y-90518233D01*
X99593875Y-90343231D01*
X98497107Y-91440000D01*
X97082893Y-91440000D01*
X97068751Y-91425858D01*
X97775858Y-90718751D01*
X97790000Y-90732893D01*
X98886769Y-89636125D01*
X98711767Y-89320645D01*
X98280591Y-89181541D01*
X97830560Y-89129227D01*
X97378972Y-89165714D01*
X97146726Y-89231737D01*
X97175000Y-89089596D01*
X97175000Y-88710404D01*
X97146926Y-88569266D01*
X97299409Y-88618459D01*
X97749440Y-88670773D01*
X98201028Y-88634286D01*
X98636822Y-88510399D01*
X98711767Y-88479355D01*
X98886769Y-88163875D01*
X97790000Y-87067107D01*
X97775858Y-87081249D01*
X97068751Y-86374142D01*
X97082893Y-86360000D01*
X98497107Y-86360000D01*
X99593875Y-87456769D01*
X99909355Y-87281767D01*
X100013839Y-86957903D01*
X100084601Y-87206822D01*
X100115645Y-87281767D01*
X100431125Y-87456769D01*
X101527893Y-86360000D01*
X100431125Y-85263231D01*
X100115645Y-85438233D01*
X100011161Y-85762097D01*
X99940399Y-85513178D01*
X99909355Y-85438233D01*
X99593875Y-85263231D01*
X98497107Y-86360000D01*
X97082893Y-86360000D01*
X95986125Y-85263231D01*
X95670645Y-85438233D01*
X95531541Y-85869409D01*
X95479227Y-86319440D01*
X95515714Y-86771028D01*
X95581737Y-87003274D01*
X95439596Y-86975000D01*
X95060404Y-86975000D01*
X94919266Y-87003074D01*
X94968459Y-86850591D01*
X95020773Y-86400560D01*
X94984286Y-85948972D01*
X94860399Y-85513178D01*
X94829355Y-85438233D01*
X94513875Y-85263231D01*
X93417107Y-86360000D01*
X93431249Y-86374142D01*
X92724142Y-87081249D01*
X92710000Y-87067107D01*
X91613231Y-88163875D01*
X89825000Y-88163875D01*
X89825000Y-86319440D01*
X90399227Y-86319440D01*
X90435714Y-86771028D01*
X90559601Y-87206822D01*
X90590645Y-87281767D01*
X90906125Y-87456769D01*
X92002893Y-86360000D01*
X90906125Y-85263231D01*
X90590645Y-85438233D01*
X90451541Y-85869409D01*
X90399227Y-86319440D01*
X89825000Y-86319440D01*
X89825000Y-84556125D01*
X91613231Y-84556125D01*
X92710000Y-85652893D01*
X93806769Y-84556125D01*
X96693231Y-84556125D01*
X97790000Y-85652893D01*
X98886769Y-84556125D01*
X101138231Y-84556125D01*
X102235000Y-85652893D01*
X103331769Y-84556125D01*
X106218231Y-84556125D01*
X107315000Y-85652893D01*
X108411769Y-84556125D01*
X110663231Y-84556125D01*
X111760000Y-85652893D01*
X112856769Y-84556125D01*
X115743231Y-84556125D01*
X116840000Y-85652893D01*
X117936769Y-84556125D01*
X123363231Y-84556125D01*
X124460000Y-85652893D01*
X125556769Y-84556125D01*
X128443231Y-84556125D01*
X129540000Y-85652893D01*
X130636769Y-84556125D01*
X132888231Y-84556125D01*
X133985000Y-85652893D01*
X135081769Y-84556125D01*
X137968231Y-84556125D01*
X139065000Y-85652893D01*
X140161769Y-84556125D01*
X142413231Y-84556125D01*
X143510000Y-85652893D01*
X144606769Y-84556125D01*
X147493231Y-84556125D01*
X148590000Y-85652893D01*
X149686769Y-84556125D01*
X149511767Y-84240645D01*
X149080591Y-84101541D01*
X148630560Y-84049227D01*
X148178972Y-84085714D01*
X147743178Y-84209601D01*
X147668233Y-84240645D01*
X147493231Y-84556125D01*
X144606769Y-84556125D01*
X144431767Y-84240645D01*
X144000591Y-84101541D01*
X143550560Y-84049227D01*
X143098972Y-84085714D01*
X142663178Y-84209601D01*
X142588233Y-84240645D01*
X142413231Y-84556125D01*
X140161769Y-84556125D01*
X139986767Y-84240645D01*
X139555591Y-84101541D01*
X139105560Y-84049227D01*
X138653972Y-84085714D01*
X138218178Y-84209601D01*
X138143233Y-84240645D01*
X137968231Y-84556125D01*
X135081769Y-84556125D01*
X134906767Y-84240645D01*
X134475591Y-84101541D01*
X134025560Y-84049227D01*
X133573972Y-84085714D01*
X133138178Y-84209601D01*
X133063233Y-84240645D01*
X132888231Y-84556125D01*
X130636769Y-84556125D01*
X130461767Y-84240645D01*
X130030591Y-84101541D01*
X129580560Y-84049227D01*
X129128972Y-84085714D01*
X128693178Y-84209601D01*
X128618233Y-84240645D01*
X128443231Y-84556125D01*
X125556769Y-84556125D01*
X125381767Y-84240645D01*
X124950591Y-84101541D01*
X124500560Y-84049227D01*
X124048972Y-84085714D01*
X123613178Y-84209601D01*
X123538233Y-84240645D01*
X123363231Y-84556125D01*
X117936769Y-84556125D01*
X117761767Y-84240645D01*
X117330591Y-84101541D01*
X116880560Y-84049227D01*
X116428972Y-84085714D01*
X115993178Y-84209601D01*
X115918233Y-84240645D01*
X115743231Y-84556125D01*
X112856769Y-84556125D01*
X112681767Y-84240645D01*
X112250591Y-84101541D01*
X111800560Y-84049227D01*
X111348972Y-84085714D01*
X110913178Y-84209601D01*
X110838233Y-84240645D01*
X110663231Y-84556125D01*
X108411769Y-84556125D01*
X108236767Y-84240645D01*
X107805591Y-84101541D01*
X107355560Y-84049227D01*
X106903972Y-84085714D01*
X106468178Y-84209601D01*
X106393233Y-84240645D01*
X106218231Y-84556125D01*
X103331769Y-84556125D01*
X103156767Y-84240645D01*
X102725591Y-84101541D01*
X102275560Y-84049227D01*
X101823972Y-84085714D01*
X101388178Y-84209601D01*
X101313233Y-84240645D01*
X101138231Y-84556125D01*
X98886769Y-84556125D01*
X98711767Y-84240645D01*
X98280591Y-84101541D01*
X97830560Y-84049227D01*
X97378972Y-84085714D01*
X96943178Y-84209601D01*
X96868233Y-84240645D01*
X96693231Y-84556125D01*
X93806769Y-84556125D01*
X93631767Y-84240645D01*
X93200591Y-84101541D01*
X92750560Y-84049227D01*
X92298972Y-84085714D01*
X91863178Y-84209601D01*
X91788233Y-84240645D01*
X91613231Y-84556125D01*
X89825000Y-84556125D01*
X89825000Y-83475000D01*
X151475000Y-83475000D01*
X151475001Y-94941666D01*
%TA.AperFunction,Conductor*%
D15*
G36*
X151475001Y-94941666D02*
G01*
X142412501Y-107025000D01*
X98948725Y-107025000D01*
X97474626Y-104568168D01*
X99500000Y-104568168D01*
X99500000Y-104981832D01*
X99580702Y-105387547D01*
X99739004Y-105769723D01*
X99968823Y-106113672D01*
X100261328Y-106406177D01*
X100605277Y-106635996D01*
X100987453Y-106794298D01*
X101393168Y-106875000D01*
X101806832Y-106875000D01*
X102212547Y-106794298D01*
X102594723Y-106635996D01*
X102938672Y-106406177D01*
X103187500Y-106157349D01*
X103436328Y-106406177D01*
X103780277Y-106635996D01*
X104162453Y-106794298D01*
X104568168Y-106875000D01*
X104981832Y-106875000D01*
X105387547Y-106794298D01*
X105769723Y-106635996D01*
X106113672Y-106406177D01*
X106362500Y-106157349D01*
X106611328Y-106406177D01*
X106955277Y-106635996D01*
X107337453Y-106794298D01*
X107743168Y-106875000D01*
X108156832Y-106875000D01*
X108562547Y-106794298D01*
X108944723Y-106635996D01*
X109288672Y-106406177D01*
X109537500Y-106157349D01*
X109786328Y-106406177D01*
X110130277Y-106635996D01*
X110512453Y-106794298D01*
X110918168Y-106875000D01*
X111331832Y-106875000D01*
X111737547Y-106794298D01*
X112119723Y-106635996D01*
X112463672Y-106406177D01*
X112511472Y-106358377D01*
X113423730Y-106358377D01*
X113560394Y-106643631D01*
X113939157Y-106752016D01*
X114331787Y-106784425D01*
X114723196Y-106739613D01*
X115039606Y-106643631D01*
X115176270Y-106358377D01*
X114300000Y-105482107D01*
X113423730Y-106358377D01*
X112511472Y-106358377D01*
X112756177Y-106113672D01*
X112985996Y-105769723D01*
X113144298Y-105387547D01*
X113185008Y-105182885D01*
X113592893Y-104775000D01*
X113185008Y-104367115D01*
X113144298Y-104162453D01*
X112985996Y-103780277D01*
X112756177Y-103436328D01*
X112511472Y-103191623D01*
X113423730Y-103191623D01*
X114300000Y-104067893D01*
X115176270Y-103191623D01*
X115039606Y-102906369D01*
X114660843Y-102797984D01*
X114268213Y-102765575D01*
X113876804Y-102810387D01*
X113560394Y-102906369D01*
X113423730Y-103191623D01*
X112511472Y-103191623D01*
X112463672Y-103143823D01*
X112119723Y-102914004D01*
X111737547Y-102755702D01*
X111331832Y-102675000D01*
X110918168Y-102675000D01*
X110512453Y-102755702D01*
X110130277Y-102914004D01*
X109786328Y-103143823D01*
X109537500Y-103392651D01*
X109288672Y-103143823D01*
X108944723Y-102914004D01*
X108562547Y-102755702D01*
X108156832Y-102675000D01*
X107743168Y-102675000D01*
X107337453Y-102755702D01*
X106955277Y-102914004D01*
X106611328Y-103143823D01*
X106362500Y-103392651D01*
X106113672Y-103143823D01*
X105769723Y-102914004D01*
X105387547Y-102755702D01*
X104981832Y-102675000D01*
X104568168Y-102675000D01*
X104162453Y-102755702D01*
X103780277Y-102914004D01*
X103436328Y-103143823D01*
X103187500Y-103392651D01*
X102938672Y-103143823D01*
X102594723Y-102914004D01*
X102212547Y-102755702D01*
X101806832Y-102675000D01*
X101393168Y-102675000D01*
X100987453Y-102755702D01*
X100605277Y-102914004D01*
X100261328Y-103143823D01*
X99968823Y-103436328D01*
X99739004Y-103780277D01*
X99580702Y-104162453D01*
X99500000Y-104568168D01*
X97474626Y-104568168D01*
X89825000Y-91818792D01*
X89825000Y-91399440D01*
X90399227Y-91399440D01*
X90435714Y-91851028D01*
X90559601Y-92286822D01*
X90590645Y-92361767D01*
X90906125Y-92536769D01*
X92002893Y-91440000D01*
X90906125Y-90343231D01*
X90590645Y-90518233D01*
X90451541Y-90949409D01*
X90399227Y-91399440D01*
X89825000Y-91399440D01*
X89825000Y-88163875D01*
X91613231Y-88163875D01*
X91788233Y-88479355D01*
X92219409Y-88618459D01*
X92669440Y-88670773D01*
X93121028Y-88634286D01*
X93353274Y-88568263D01*
X93325000Y-88710404D01*
X93325000Y-89089596D01*
X93353074Y-89230734D01*
X93200591Y-89181541D01*
X92750560Y-89129227D01*
X92298972Y-89165714D01*
X91863178Y-89289601D01*
X91788233Y-89320645D01*
X91613231Y-89636125D01*
X92710000Y-90732893D01*
X92724142Y-90718751D01*
X93431249Y-91425858D01*
X93417107Y-91440000D01*
X93431249Y-91454142D01*
X92724142Y-92161249D01*
X92710000Y-92147107D01*
X91613231Y-93243875D01*
X91788233Y-93559355D01*
X92219409Y-93698459D01*
X92669440Y-93750773D01*
X93121028Y-93714286D01*
X93556822Y-93590399D01*
X93631767Y-93559355D01*
X93784375Y-93284245D01*
X93871438Y-93447127D01*
X94077629Y-93698373D01*
X94140593Y-93750046D01*
X98789979Y-98399433D01*
X98841648Y-98462392D01*
X99092893Y-98668583D01*
X99379536Y-98821798D01*
X99690563Y-98916146D01*
X99932967Y-98940021D01*
X99932976Y-98940021D01*
X100014018Y-98948003D01*
X100095060Y-98940021D01*
X115656570Y-98940021D01*
X119640456Y-102923907D01*
X119311328Y-103143823D01*
X119062500Y-103392651D01*
X118813672Y-103143823D01*
X118469723Y-102914004D01*
X118087547Y-102755702D01*
X117681832Y-102675000D01*
X117268168Y-102675000D01*
X116862453Y-102755702D01*
X116480277Y-102914004D01*
X116136328Y-103143823D01*
X115843823Y-103436328D01*
X115614004Y-103780277D01*
X115455702Y-104162453D01*
X115414992Y-104367115D01*
X115007107Y-104775000D01*
X115414992Y-105182885D01*
X115455702Y-105387547D01*
X115614004Y-105769723D01*
X115843823Y-106113672D01*
X116136328Y-106406177D01*
X116480277Y-106635996D01*
X116862453Y-106794298D01*
X117268168Y-106875000D01*
X117681832Y-106875000D01*
X118087547Y-106794298D01*
X118469723Y-106635996D01*
X118813672Y-106406177D01*
X119062500Y-106157349D01*
X119311328Y-106406177D01*
X119655277Y-106635996D01*
X120037453Y-106794298D01*
X120443168Y-106875000D01*
X120856832Y-106875000D01*
X121262547Y-106794298D01*
X121644723Y-106635996D01*
X121988672Y-106406177D01*
X122237500Y-106157349D01*
X122486328Y-106406177D01*
X122830277Y-106635996D01*
X123212453Y-106794298D01*
X123618168Y-106875000D01*
X124031832Y-106875000D01*
X124437547Y-106794298D01*
X124819723Y-106635996D01*
X125163672Y-106406177D01*
X125412500Y-106157349D01*
X125661328Y-106406177D01*
X126005277Y-106635996D01*
X126387453Y-106794298D01*
X126793168Y-106875000D01*
X127206832Y-106875000D01*
X127612547Y-106794298D01*
X127994723Y-106635996D01*
X128338672Y-106406177D01*
X128587500Y-106157349D01*
X128836328Y-106406177D01*
X129180277Y-106635996D01*
X129562453Y-106794298D01*
X129968168Y-106875000D01*
X130381832Y-106875000D01*
X130787547Y-106794298D01*
X131169723Y-106635996D01*
X131513672Y-106406177D01*
X131762500Y-106157349D01*
X132011328Y-106406177D01*
X132355277Y-106635996D01*
X132737453Y-106794298D01*
X133143168Y-106875000D01*
X133556832Y-106875000D01*
X133962547Y-106794298D01*
X134344723Y-106635996D01*
X134688672Y-106406177D01*
X134937500Y-106157349D01*
X135186328Y-106406177D01*
X135530277Y-106635996D01*
X135912453Y-106794298D01*
X136318168Y-106875000D01*
X136731832Y-106875000D01*
X137137547Y-106794298D01*
X137519723Y-106635996D01*
X137863672Y-106406177D01*
X138112500Y-106157349D01*
X138361328Y-106406177D01*
X138705277Y-106635996D01*
X139087453Y-106794298D01*
X139493168Y-106875000D01*
X139906832Y-106875000D01*
X140312547Y-106794298D01*
X140694723Y-106635996D01*
X141038672Y-106406177D01*
X141331177Y-106113672D01*
X141560996Y-105769723D01*
X141719298Y-105387547D01*
X141793390Y-105015061D01*
X147159413Y-99649039D01*
X147222371Y-99597371D01*
X147428562Y-99346126D01*
X147581777Y-99059483D01*
X147676125Y-98748456D01*
X147700000Y-98506052D01*
X147700000Y-98506043D01*
X147707982Y-98425001D01*
X147700000Y-98343959D01*
X147700000Y-93569604D01*
X148099409Y-93698459D01*
X148549440Y-93750773D01*
X149001028Y-93714286D01*
X149436822Y-93590399D01*
X149511767Y-93559355D01*
X149686769Y-93243875D01*
X148590000Y-92147107D01*
X148575858Y-92161249D01*
X147868751Y-91454142D01*
X147882893Y-91440000D01*
X149297107Y-91440000D01*
X150393875Y-92536769D01*
X150709355Y-92361767D01*
X150848459Y-91930591D01*
X150900773Y-91480560D01*
X150864286Y-91028972D01*
X150740399Y-90593178D01*
X150709355Y-90518233D01*
X150393875Y-90343231D01*
X149297107Y-91440000D01*
X147882893Y-91440000D01*
X147868751Y-91425858D01*
X148575858Y-90718751D01*
X148590000Y-90732893D01*
X149686769Y-89636125D01*
X149511767Y-89320645D01*
X149080591Y-89181541D01*
X148630560Y-89129227D01*
X148178972Y-89165714D01*
X147946726Y-89231737D01*
X147975000Y-89089596D01*
X147975000Y-88710404D01*
X147946926Y-88569266D01*
X148099409Y-88618459D01*
X148549440Y-88670773D01*
X149001028Y-88634286D01*
X149436822Y-88510399D01*
X149511767Y-88479355D01*
X149686769Y-88163875D01*
X148590000Y-87067107D01*
X148575858Y-87081249D01*
X147868751Y-86374142D01*
X147882893Y-86360000D01*
X149297107Y-86360000D01*
X150393875Y-87456769D01*
X150709355Y-87281767D01*
X150848459Y-86850591D01*
X150900773Y-86400560D01*
X150864286Y-85948972D01*
X150740399Y-85513178D01*
X150709355Y-85438233D01*
X150393875Y-85263231D01*
X149297107Y-86360000D01*
X147882893Y-86360000D01*
X146786125Y-85263231D01*
X146470645Y-85438233D01*
X146331541Y-85869409D01*
X146279227Y-86319440D01*
X146315714Y-86771028D01*
X146381737Y-87003274D01*
X146239596Y-86975000D01*
X145860404Y-86975000D01*
X145719266Y-87003074D01*
X145768459Y-86850591D01*
X145820773Y-86400560D01*
X145784286Y-85948972D01*
X145660399Y-85513178D01*
X145629355Y-85438233D01*
X145313875Y-85263231D01*
X144217107Y-86360000D01*
X144231249Y-86374142D01*
X143524142Y-87081249D01*
X143510000Y-87067107D01*
X142413231Y-88163875D01*
X142588233Y-88479355D01*
X143019409Y-88618459D01*
X143469440Y-88670773D01*
X143921028Y-88634286D01*
X144153274Y-88568263D01*
X144125000Y-88710404D01*
X144125000Y-89089596D01*
X144153074Y-89230734D01*
X144000591Y-89181541D01*
X143550560Y-89129227D01*
X143098972Y-89165714D01*
X142663178Y-89289601D01*
X142588233Y-89320645D01*
X142413231Y-89636125D01*
X143510000Y-90732893D01*
X143524142Y-90718751D01*
X144231249Y-91425858D01*
X144217107Y-91440000D01*
X144231249Y-91454142D01*
X143524142Y-92161249D01*
X143510000Y-92147107D01*
X142413231Y-93243875D01*
X142588233Y-93559355D01*
X143019409Y-93698459D01*
X143469440Y-93750773D01*
X143921028Y-93714286D01*
X144356822Y-93590399D01*
X144400001Y-93572513D01*
X144400000Y-97741548D01*
X139459939Y-102681610D01*
X139087453Y-102755702D01*
X138705277Y-102914004D01*
X138361328Y-103143823D01*
X138175000Y-103330151D01*
X138175000Y-93569604D01*
X138574409Y-93698459D01*
X139024440Y-93750773D01*
X139476028Y-93714286D01*
X139911822Y-93590399D01*
X139986767Y-93559355D01*
X140161769Y-93243875D01*
X139065000Y-92147107D01*
X139050858Y-92161249D01*
X138343751Y-91454142D01*
X138357893Y-91440000D01*
X139772107Y-91440000D01*
X140868875Y-92536769D01*
X141184355Y-92361767D01*
X141288839Y-92037903D01*
X141359601Y-92286822D01*
X141390645Y-92361767D01*
X141706125Y-92536769D01*
X142802893Y-91440000D01*
X141706125Y-90343231D01*
X141390645Y-90518233D01*
X141286161Y-90842097D01*
X141215399Y-90593178D01*
X141184355Y-90518233D01*
X140868875Y-90343231D01*
X139772107Y-91440000D01*
X138357893Y-91440000D01*
X138343751Y-91425858D01*
X139050858Y-90718751D01*
X139065000Y-90732893D01*
X140161769Y-89636125D01*
X139986767Y-89320645D01*
X139555591Y-89181541D01*
X139105560Y-89129227D01*
X138653972Y-89165714D01*
X138421726Y-89231737D01*
X138450000Y-89089596D01*
X138450000Y-88710404D01*
X138421926Y-88569266D01*
X138574409Y-88618459D01*
X139024440Y-88670773D01*
X139476028Y-88634286D01*
X139911822Y-88510399D01*
X139986767Y-88479355D01*
X140161769Y-88163875D01*
X139065000Y-87067107D01*
X139050858Y-87081249D01*
X138343751Y-86374142D01*
X138357893Y-86360000D01*
X139772107Y-86360000D01*
X140868875Y-87456769D01*
X141184355Y-87281767D01*
X141288839Y-86957903D01*
X141359601Y-87206822D01*
X141390645Y-87281767D01*
X141706125Y-87456769D01*
X142802893Y-86360000D01*
X141706125Y-85263231D01*
X141390645Y-85438233D01*
X141286161Y-85762097D01*
X141215399Y-85513178D01*
X141184355Y-85438233D01*
X140868875Y-85263231D01*
X139772107Y-86360000D01*
X138357893Y-86360000D01*
X137261125Y-85263231D01*
X136945645Y-85438233D01*
X136806541Y-85869409D01*
X136754227Y-86319440D01*
X136790714Y-86771028D01*
X136856737Y-87003274D01*
X136714596Y-86975000D01*
X136335404Y-86975000D01*
X136194266Y-87003074D01*
X136243459Y-86850591D01*
X136295773Y-86400560D01*
X136259286Y-85948972D01*
X136135399Y-85513178D01*
X136104355Y-85438233D01*
X135788875Y-85263231D01*
X134692107Y-86360000D01*
X134706249Y-86374142D01*
X133999142Y-87081249D01*
X133985000Y-87067107D01*
X132888231Y-88163875D01*
X133063233Y-88479355D01*
X133494409Y-88618459D01*
X133944440Y-88670773D01*
X134396028Y-88634286D01*
X134628274Y-88568263D01*
X134600000Y-88710404D01*
X134600000Y-89089596D01*
X134628074Y-89230734D01*
X134475591Y-89181541D01*
X134025560Y-89129227D01*
X133573972Y-89165714D01*
X133138178Y-89289601D01*
X133063233Y-89320645D01*
X132888231Y-89636125D01*
X133985000Y-90732893D01*
X133999142Y-90718751D01*
X134706249Y-91425858D01*
X134692107Y-91440000D01*
X134706249Y-91454142D01*
X133999142Y-92161249D01*
X133985000Y-92147107D01*
X132888231Y-93243875D01*
X133063233Y-93559355D01*
X133189219Y-93600000D01*
X130407450Y-93600000D01*
X130394619Y-93587169D01*
X130461767Y-93559355D01*
X130636769Y-93243875D01*
X129540000Y-92147107D01*
X129525858Y-92161249D01*
X128818751Y-91454142D01*
X128832893Y-91440000D01*
X130247107Y-91440000D01*
X131343875Y-92536769D01*
X131659355Y-92361767D01*
X131763839Y-92037903D01*
X131834601Y-92286822D01*
X131865645Y-92361767D01*
X132181125Y-92536769D01*
X133277893Y-91440000D01*
X132181125Y-90343231D01*
X131865645Y-90518233D01*
X131761161Y-90842097D01*
X131690399Y-90593178D01*
X131659355Y-90518233D01*
X131343875Y-90343231D01*
X130247107Y-91440000D01*
X128832893Y-91440000D01*
X128818751Y-91425858D01*
X129525858Y-90718751D01*
X129540000Y-90732893D01*
X130636769Y-89636125D01*
X130461767Y-89320645D01*
X130030591Y-89181541D01*
X129580560Y-89129227D01*
X129128972Y-89165714D01*
X128896726Y-89231737D01*
X128925000Y-89089596D01*
X128925000Y-88710404D01*
X128896926Y-88569266D01*
X129049409Y-88618459D01*
X129499440Y-88670773D01*
X129951028Y-88634286D01*
X130386822Y-88510399D01*
X130461767Y-88479355D01*
X130636769Y-88163875D01*
X129540000Y-87067107D01*
X129525858Y-87081249D01*
X128818751Y-86374142D01*
X128832893Y-86360000D01*
X130247107Y-86360000D01*
X131343875Y-87456769D01*
X131659355Y-87281767D01*
X131763839Y-86957903D01*
X131834601Y-87206822D01*
X131865645Y-87281767D01*
X132181125Y-87456769D01*
X133277893Y-86360000D01*
X132181125Y-85263231D01*
X131865645Y-85438233D01*
X131761161Y-85762097D01*
X131690399Y-85513178D01*
X131659355Y-85438233D01*
X131343875Y-85263231D01*
X130247107Y-86360000D01*
X128832893Y-86360000D01*
X127736125Y-85263231D01*
X127420645Y-85438233D01*
X127281541Y-85869409D01*
X127229227Y-86319440D01*
X127265714Y-86771028D01*
X127331737Y-87003274D01*
X127189596Y-86975000D01*
X126810404Y-86975000D01*
X126669266Y-87003074D01*
X126718459Y-86850591D01*
X126770773Y-86400560D01*
X126734286Y-85948972D01*
X126610399Y-85513178D01*
X126579355Y-85438233D01*
X126263875Y-85263231D01*
X125167107Y-86360000D01*
X125181249Y-86374142D01*
X124474142Y-87081249D01*
X124460000Y-87067107D01*
X123363231Y-88163875D01*
X123538233Y-88479355D01*
X123969409Y-88618459D01*
X124419440Y-88670773D01*
X124871028Y-88634286D01*
X125103274Y-88568263D01*
X125075000Y-88710404D01*
X125075000Y-89089596D01*
X125103074Y-89230734D01*
X124950591Y-89181541D01*
X124500560Y-89129227D01*
X124048972Y-89165714D01*
X123613178Y-89289601D01*
X123538233Y-89320645D01*
X123363231Y-89636125D01*
X124460000Y-90732893D01*
X124474142Y-90718751D01*
X125181249Y-91425858D01*
X125167107Y-91440000D01*
X125181249Y-91454142D01*
X124474142Y-92161249D01*
X124460000Y-92147107D01*
X123363231Y-93243875D01*
X123538233Y-93559355D01*
X123969409Y-93698459D01*
X124419440Y-93750773D01*
X124871028Y-93714286D01*
X125306822Y-93590399D01*
X125381767Y-93559355D01*
X125534375Y-93284245D01*
X125621438Y-93447127D01*
X125827629Y-93698373D01*
X125890593Y-93750046D01*
X128499958Y-96359412D01*
X128551627Y-96422371D01*
X128614584Y-96474038D01*
X128802871Y-96628562D01*
X129089515Y-96781777D01*
X129400541Y-96876125D01*
X129723998Y-96907983D01*
X129805050Y-96900000D01*
X131700001Y-96900000D01*
X131700000Y-103330151D01*
X131513672Y-103143823D01*
X131169723Y-102914004D01*
X130787547Y-102755702D01*
X130415062Y-102681610D01*
X120514046Y-92780595D01*
X120462372Y-92717630D01*
X120211127Y-92511439D01*
X119924484Y-92358224D01*
X119613457Y-92263876D01*
X119371053Y-92240001D01*
X119371043Y-92240001D01*
X119290001Y-92232019D01*
X119208959Y-92240001D01*
X118998639Y-92240001D01*
X119098459Y-91930591D01*
X119150773Y-91480560D01*
X119144219Y-91399440D01*
X122149227Y-91399440D01*
X122185714Y-91851028D01*
X122309601Y-92286822D01*
X122340645Y-92361767D01*
X122656125Y-92536769D01*
X123752893Y-91440000D01*
X122656125Y-90343231D01*
X122340645Y-90518233D01*
X122201541Y-90949409D01*
X122149227Y-91399440D01*
X119144219Y-91399440D01*
X119114286Y-91028972D01*
X118990399Y-90593178D01*
X118959355Y-90518233D01*
X118643875Y-90343231D01*
X117547107Y-91440000D01*
X117561249Y-91454142D01*
X116854142Y-92161249D01*
X116840000Y-92147107D01*
X116825858Y-92161249D01*
X116118751Y-91454142D01*
X116132893Y-91440000D01*
X116118751Y-91425858D01*
X116825858Y-90718751D01*
X116840000Y-90732893D01*
X117936769Y-89636125D01*
X117761767Y-89320645D01*
X117330591Y-89181541D01*
X116880560Y-89129227D01*
X116428972Y-89165714D01*
X116196726Y-89231737D01*
X116225000Y-89089596D01*
X116225000Y-88710404D01*
X116196926Y-88569266D01*
X116349409Y-88618459D01*
X116799440Y-88670773D01*
X117251028Y-88634286D01*
X117686822Y-88510399D01*
X117761767Y-88479355D01*
X117936769Y-88163875D01*
X116840000Y-87067107D01*
X116825858Y-87081249D01*
X116118751Y-86374142D01*
X116132893Y-86360000D01*
X117547107Y-86360000D01*
X118643875Y-87456769D01*
X118959355Y-87281767D01*
X119098459Y-86850591D01*
X119150773Y-86400560D01*
X119144219Y-86319440D01*
X122149227Y-86319440D01*
X122185714Y-86771028D01*
X122309601Y-87206822D01*
X122340645Y-87281767D01*
X122656125Y-87456769D01*
X123752893Y-86360000D01*
X122656125Y-85263231D01*
X122340645Y-85438233D01*
X122201541Y-85869409D01*
X122149227Y-86319440D01*
X119144219Y-86319440D01*
X119114286Y-85948972D01*
X118990399Y-85513178D01*
X118959355Y-85438233D01*
X118643875Y-85263231D01*
X117547107Y-86360000D01*
X116132893Y-86360000D01*
X115036125Y-85263231D01*
X114720645Y-85438233D01*
X114581541Y-85869409D01*
X114529227Y-86319440D01*
X114565714Y-86771028D01*
X114631737Y-87003274D01*
X114489596Y-86975000D01*
X114110404Y-86975000D01*
X113969266Y-87003074D01*
X114018459Y-86850591D01*
X114070773Y-86400560D01*
X114034286Y-85948972D01*
X113910399Y-85513178D01*
X113879355Y-85438233D01*
X113563875Y-85263231D01*
X112467107Y-86360000D01*
X112481249Y-86374142D01*
X111774142Y-87081249D01*
X111760000Y-87067107D01*
X110663231Y-88163875D01*
X110838233Y-88479355D01*
X111269409Y-88618459D01*
X111719440Y-88670773D01*
X112171028Y-88634286D01*
X112403274Y-88568263D01*
X112375000Y-88710404D01*
X112375000Y-89089596D01*
X112403074Y-89230734D01*
X112250591Y-89181541D01*
X111800560Y-89129227D01*
X111348972Y-89165714D01*
X110913178Y-89289601D01*
X110838233Y-89320645D01*
X110663231Y-89636125D01*
X111760000Y-90732893D01*
X111774142Y-90718751D01*
X112481249Y-91425858D01*
X112467107Y-91440000D01*
X112481249Y-91454142D01*
X111774142Y-92161249D01*
X111760000Y-92147107D01*
X110663231Y-93243875D01*
X110838233Y-93559355D01*
X111269409Y-93698459D01*
X111719440Y-93750773D01*
X112171028Y-93714286D01*
X112606822Y-93590399D01*
X112681767Y-93559355D01*
X112834375Y-93284245D01*
X112921438Y-93447127D01*
X113127629Y-93698373D01*
X113190593Y-93750046D01*
X113380558Y-93940011D01*
X108522461Y-93940011D01*
X108169619Y-93587169D01*
X108236767Y-93559355D01*
X108411769Y-93243875D01*
X107315000Y-92147107D01*
X107300858Y-92161249D01*
X106593751Y-91454142D01*
X106607893Y-91440000D01*
X108022107Y-91440000D01*
X109118875Y-92536769D01*
X109434355Y-92361767D01*
X109538839Y-92037903D01*
X109609601Y-92286822D01*
X109640645Y-92361767D01*
X109956125Y-92536769D01*
X111052893Y-91440000D01*
X109956125Y-90343231D01*
X109640645Y-90518233D01*
X109536161Y-90842097D01*
X109465399Y-90593178D01*
X109434355Y-90518233D01*
X109118875Y-90343231D01*
X108022107Y-91440000D01*
X106607893Y-91440000D01*
X106593751Y-91425858D01*
X107300858Y-90718751D01*
X107315000Y-90732893D01*
X108411769Y-89636125D01*
X108236767Y-89320645D01*
X107805591Y-89181541D01*
X107355560Y-89129227D01*
X106903972Y-89165714D01*
X106671726Y-89231737D01*
X106700000Y-89089596D01*
X106700000Y-88710404D01*
X106671926Y-88569266D01*
X106824409Y-88618459D01*
X107274440Y-88670773D01*
X107726028Y-88634286D01*
X108161822Y-88510399D01*
X108236767Y-88479355D01*
X108411769Y-88163875D01*
X107315000Y-87067107D01*
X107300858Y-87081249D01*
X106593751Y-86374142D01*
X106607893Y-86360000D01*
X108022107Y-86360000D01*
X109118875Y-87456769D01*
X109434355Y-87281767D01*
X109538839Y-86957903D01*
X109609601Y-87206822D01*
X109640645Y-87281767D01*
X109956125Y-87456769D01*
X111052893Y-86360000D01*
X109956125Y-85263231D01*
X109640645Y-85438233D01*
X109536161Y-85762097D01*
X109465399Y-85513178D01*
X109434355Y-85438233D01*
X109118875Y-85263231D01*
X108022107Y-86360000D01*
X106607893Y-86360000D01*
X105511125Y-85263231D01*
X105195645Y-85438233D01*
X105056541Y-85869409D01*
X105004227Y-86319440D01*
X105040714Y-86771028D01*
X105106737Y-87003274D01*
X104964596Y-86975000D01*
X104585404Y-86975000D01*
X104444266Y-87003074D01*
X104493459Y-86850591D01*
X104545773Y-86400560D01*
X104509286Y-85948972D01*
X104385399Y-85513178D01*
X104354355Y-85438233D01*
X104038875Y-85263231D01*
X102942107Y-86360000D01*
X102956249Y-86374142D01*
X102249142Y-87081249D01*
X102235000Y-87067107D01*
X101138231Y-88163875D01*
X101313233Y-88479355D01*
X101744409Y-88618459D01*
X102194440Y-88670773D01*
X102646028Y-88634286D01*
X102878274Y-88568263D01*
X102850000Y-88710404D01*
X102850000Y-89089596D01*
X102878074Y-89230734D01*
X102725591Y-89181541D01*
X102275560Y-89129227D01*
X101823972Y-89165714D01*
X101388178Y-89289601D01*
X101313233Y-89320645D01*
X101138231Y-89636125D01*
X102235000Y-90732893D01*
X102249142Y-90718751D01*
X102956249Y-91425858D01*
X102942107Y-91440000D01*
X102956249Y-91454142D01*
X102249142Y-92161249D01*
X102235000Y-92147107D01*
X101138231Y-93243875D01*
X101313233Y-93559355D01*
X101744409Y-93698459D01*
X102194440Y-93750773D01*
X102646028Y-93714286D01*
X103081822Y-93590399D01*
X103156767Y-93559355D01*
X103309375Y-93284245D01*
X103396438Y-93447127D01*
X103602629Y-93698373D01*
X103665593Y-93750046D01*
X105555567Y-95640021D01*
X100697471Y-95640021D01*
X98644619Y-93587169D01*
X98711767Y-93559355D01*
X98886769Y-93243875D01*
X97790000Y-92147107D01*
X97775858Y-92161249D01*
X97068751Y-91454142D01*
X97082893Y-91440000D01*
X98497107Y-91440000D01*
X99593875Y-92536769D01*
X99909355Y-92361767D01*
X100013839Y-92037903D01*
X100084601Y-92286822D01*
X100115645Y-92361767D01*
X100431125Y-92536769D01*
X101527893Y-91440000D01*
X100431125Y-90343231D01*
X100115645Y-90518233D01*
X100011161Y-90842097D01*
X99940399Y-90593178D01*
X99909355Y-90518233D01*
X99593875Y-90343231D01*
X98497107Y-91440000D01*
X97082893Y-91440000D01*
X97068751Y-91425858D01*
X97775858Y-90718751D01*
X97790000Y-90732893D01*
X98886769Y-89636125D01*
X98711767Y-89320645D01*
X98280591Y-89181541D01*
X97830560Y-89129227D01*
X97378972Y-89165714D01*
X97146726Y-89231737D01*
X97175000Y-89089596D01*
X97175000Y-88710404D01*
X97146926Y-88569266D01*
X97299409Y-88618459D01*
X97749440Y-88670773D01*
X98201028Y-88634286D01*
X98636822Y-88510399D01*
X98711767Y-88479355D01*
X98886769Y-88163875D01*
X97790000Y-87067107D01*
X97775858Y-87081249D01*
X97068751Y-86374142D01*
X97082893Y-86360000D01*
X98497107Y-86360000D01*
X99593875Y-87456769D01*
X99909355Y-87281767D01*
X100013839Y-86957903D01*
X100084601Y-87206822D01*
X100115645Y-87281767D01*
X100431125Y-87456769D01*
X101527893Y-86360000D01*
X100431125Y-85263231D01*
X100115645Y-85438233D01*
X100011161Y-85762097D01*
X99940399Y-85513178D01*
X99909355Y-85438233D01*
X99593875Y-85263231D01*
X98497107Y-86360000D01*
X97082893Y-86360000D01*
X95986125Y-85263231D01*
X95670645Y-85438233D01*
X95531541Y-85869409D01*
X95479227Y-86319440D01*
X95515714Y-86771028D01*
X95581737Y-87003274D01*
X95439596Y-86975000D01*
X95060404Y-86975000D01*
X94919266Y-87003074D01*
X94968459Y-86850591D01*
X95020773Y-86400560D01*
X94984286Y-85948972D01*
X94860399Y-85513178D01*
X94829355Y-85438233D01*
X94513875Y-85263231D01*
X93417107Y-86360000D01*
X93431249Y-86374142D01*
X92724142Y-87081249D01*
X92710000Y-87067107D01*
X91613231Y-88163875D01*
X89825000Y-88163875D01*
X89825000Y-86319440D01*
X90399227Y-86319440D01*
X90435714Y-86771028D01*
X90559601Y-87206822D01*
X90590645Y-87281767D01*
X90906125Y-87456769D01*
X92002893Y-86360000D01*
X90906125Y-85263231D01*
X90590645Y-85438233D01*
X90451541Y-85869409D01*
X90399227Y-86319440D01*
X89825000Y-86319440D01*
X89825000Y-84556125D01*
X91613231Y-84556125D01*
X92710000Y-85652893D01*
X93806769Y-84556125D01*
X96693231Y-84556125D01*
X97790000Y-85652893D01*
X98886769Y-84556125D01*
X101138231Y-84556125D01*
X102235000Y-85652893D01*
X103331769Y-84556125D01*
X106218231Y-84556125D01*
X107315000Y-85652893D01*
X108411769Y-84556125D01*
X110663231Y-84556125D01*
X111760000Y-85652893D01*
X112856769Y-84556125D01*
X115743231Y-84556125D01*
X116840000Y-85652893D01*
X117936769Y-84556125D01*
X123363231Y-84556125D01*
X124460000Y-85652893D01*
X125556769Y-84556125D01*
X128443231Y-84556125D01*
X129540000Y-85652893D01*
X130636769Y-84556125D01*
X132888231Y-84556125D01*
X133985000Y-85652893D01*
X135081769Y-84556125D01*
X137968231Y-84556125D01*
X139065000Y-85652893D01*
X140161769Y-84556125D01*
X142413231Y-84556125D01*
X143510000Y-85652893D01*
X144606769Y-84556125D01*
X147493231Y-84556125D01*
X148590000Y-85652893D01*
X149686769Y-84556125D01*
X149511767Y-84240645D01*
X149080591Y-84101541D01*
X148630560Y-84049227D01*
X148178972Y-84085714D01*
X147743178Y-84209601D01*
X147668233Y-84240645D01*
X147493231Y-84556125D01*
X144606769Y-84556125D01*
X144431767Y-84240645D01*
X144000591Y-84101541D01*
X143550560Y-84049227D01*
X143098972Y-84085714D01*
X142663178Y-84209601D01*
X142588233Y-84240645D01*
X142413231Y-84556125D01*
X140161769Y-84556125D01*
X139986767Y-84240645D01*
X139555591Y-84101541D01*
X139105560Y-84049227D01*
X138653972Y-84085714D01*
X138218178Y-84209601D01*
X138143233Y-84240645D01*
X137968231Y-84556125D01*
X135081769Y-84556125D01*
X134906767Y-84240645D01*
X134475591Y-84101541D01*
X134025560Y-84049227D01*
X133573972Y-84085714D01*
X133138178Y-84209601D01*
X133063233Y-84240645D01*
X132888231Y-84556125D01*
X130636769Y-84556125D01*
X130461767Y-84240645D01*
X130030591Y-84101541D01*
X129580560Y-84049227D01*
X129128972Y-84085714D01*
X128693178Y-84209601D01*
X128618233Y-84240645D01*
X128443231Y-84556125D01*
X125556769Y-84556125D01*
X125381767Y-84240645D01*
X124950591Y-84101541D01*
X124500560Y-84049227D01*
X124048972Y-84085714D01*
X123613178Y-84209601D01*
X123538233Y-84240645D01*
X123363231Y-84556125D01*
X117936769Y-84556125D01*
X117761767Y-84240645D01*
X117330591Y-84101541D01*
X116880560Y-84049227D01*
X116428972Y-84085714D01*
X115993178Y-84209601D01*
X115918233Y-84240645D01*
X115743231Y-84556125D01*
X112856769Y-84556125D01*
X112681767Y-84240645D01*
X112250591Y-84101541D01*
X111800560Y-84049227D01*
X111348972Y-84085714D01*
X110913178Y-84209601D01*
X110838233Y-84240645D01*
X110663231Y-84556125D01*
X108411769Y-84556125D01*
X108236767Y-84240645D01*
X107805591Y-84101541D01*
X107355560Y-84049227D01*
X106903972Y-84085714D01*
X106468178Y-84209601D01*
X106393233Y-84240645D01*
X106218231Y-84556125D01*
X103331769Y-84556125D01*
X103156767Y-84240645D01*
X102725591Y-84101541D01*
X102275560Y-84049227D01*
X101823972Y-84085714D01*
X101388178Y-84209601D01*
X101313233Y-84240645D01*
X101138231Y-84556125D01*
X98886769Y-84556125D01*
X98711767Y-84240645D01*
X98280591Y-84101541D01*
X97830560Y-84049227D01*
X97378972Y-84085714D01*
X96943178Y-84209601D01*
X96868233Y-84240645D01*
X96693231Y-84556125D01*
X93806769Y-84556125D01*
X93631767Y-84240645D01*
X93200591Y-84101541D01*
X92750560Y-84049227D01*
X92298972Y-84085714D01*
X91863178Y-84209601D01*
X91788233Y-84240645D01*
X91613231Y-84556125D01*
X89825000Y-84556125D01*
X89825000Y-83475000D01*
X151475000Y-83475000D01*
X151475001Y-94941666D01*
G37*
%TD.AperFunction*%
%TD*%
M02*
