M48
; DRILL file {KiCad (5.1.9)-1} date 11/23/21 14:08:48
; FORMAT={-:-/ absolute / metric / decimal}
; #@! TF.CreationDate,2021-11-23T14:08:48+07:00
; #@! TF.GenerationSoftware,Kicad,Pcbnew,(5.1.9)-1
; #@! TF.FileFunction,Plated,1,2,PTH
FMAT,2
METRIC
T1C1.200
T2C1.500
T3C1.700
%
G90
G05
T1
X101.6Y-104.775
X104.775Y-104.775
X107.95Y-104.775
X111.125Y-104.775
X114.3Y-104.775
X117.475Y-104.775
X120.65Y-104.775
X123.825Y-104.775
X127.0Y-104.775
X130.175Y-104.775
X133.35Y-104.775
X136.525Y-104.775
X139.7Y-104.775
T2
X95.25Y-88.9
X104.775Y-88.9
X114.3Y-88.9
X127.0Y-88.9
X136.525Y-88.9
X146.05Y-88.9
T3
X92.71Y-86.36
X92.71Y-91.44
X97.79Y-86.36
X97.79Y-91.44
X102.235Y-86.36
X102.235Y-91.44
X107.315Y-86.36
X107.315Y-91.44
X111.76Y-86.36
X111.76Y-91.44
X116.84Y-86.36
X116.84Y-91.44
X124.46Y-86.36
X124.46Y-91.44
X129.54Y-86.36
X129.54Y-91.44
X133.985Y-86.36
X133.985Y-91.44
X139.065Y-86.36
X139.065Y-91.44
X143.51Y-86.36
X143.51Y-91.44
X148.59Y-86.36
X148.59Y-91.44
T0
M30
